<svg width="28" height="22" viewBox="0 0 28 22" fill="none" xmlns="http://www.w3.org/2000/svg">
<g clip-path="url(#clip0_791_9604)">
<path d="M1.12132 20.9197L1.17976 13.1228L5.47065 9.72644L6.04277 4.63196L5.47065 2.9338L12.3361 2.08472L16.3409 2.9338L15.7688 8.02828C15.7688 8.02828 16.0549 17.3712 16.0549 17.6542V20.4845L15.1967 21.3336L1.17668 21.6166L0.890625 21.0505L1.11824 20.9227L1.12132 20.9197Z" fill="white"/>
<path d="M19.3352 17.2159C21.9189 17.4168 23.5338 18.5763 20.6424 20.1832C20.1995 20.4297 15.9732 22 15.7117 22H0.725914L0 21.2818V12.6723C0 12.2401 4.42008 6.43657 5.34593 5.88574L4.42316 2.69941C4.71844 2.26421 6.82237 0 7.01 0H18.6123L19.3382 0.718218V17.219L19.3352 17.2159ZM14.9858 3.34763H5.80116C5.67198 3.69761 6.28408 3.91977 6.28408 4.06585V21.0444C7.41602 21.1083 7.13918 21.2087 7.25299 20.3353C7.3668 19.4619 6.93925 14.903 7.5329 14.8178L9.67373 14.8239L9.66758 21.0474H14.5029V4.06585C14.5029 3.96542 15.2288 3.5211 14.9858 3.34763ZM5.31825 13.3905H0.965835V21.0414H5.31517V13.3905H5.31825Z" fill="black"/>
<path d="M12.539 4.7749H11.0195V6.08656H12.539V4.7749Z" fill="black"/>
<path d="M12.8242 7.68433H11.3047V8.99599H12.8242V7.68433Z" fill="black"/>
<path d="M12.8945 10.1555H11.375V11.4672H12.8945V10.1555Z" fill="black"/>
<path d="M8.82028 4.7749H7.30078V6.08656H8.82028V4.7749Z" fill="black"/>
<path d="M9.10544 7.68433H7.58594V8.99599H9.10544V7.68433Z" fill="black"/>
<path d="M9.17575 10.1555H7.65625V11.4672H9.17575V10.1555Z" fill="black"/>
<path d="M9.17575 12.7028H7.65625V14.0144H9.17575V12.7028Z" fill="black"/>
<path d="M12.8945 12.7028H11.375V14.0144H12.8945V12.7028Z" fill="black"/>
<path d="M12.2173 15.2443L11.8548 15.263C11.5359 15.2794 11.2908 15.5485 11.3074 15.8641L11.3162 16.0312C11.3328 16.3468 11.6048 16.5893 11.9238 16.5729L12.2862 16.5542C12.6052 16.5378 12.8502 16.2686 12.8336 15.9531L12.8249 15.7859C12.8082 15.4704 12.5362 15.2279 12.2173 15.2443Z" fill="black"/>
<path d="M12.9276 17.7577L11.4102 17.8358L11.4791 19.1457L12.9965 19.0675L12.9276 17.7577Z" fill="black"/>
<path d="M21.1684 14.1149C21.0208 14.2244 20.867 14.3218 20.707 14.4101L20.7316 18.7589L21.6575 18.7529L21.6329 14.404C21.4729 14.3188 21.3161 14.2214 21.1684 14.1149Z" fill="black"/>
<path d="M25.3901 6.73487C25.2455 5.77623 24.7749 4.89671 24.0459 4.23632C23.24 3.50288 22.1942 3.10421 21.0992 3.1103C20.0042 3.11638 18.9645 3.53027 18.1678 4.26979C17.4481 4.94236 16.9867 5.82492 16.8544 6.78356C15.298 7.46526 14.2799 9.00821 14.2891 10.7094C14.3045 13.0619 16.2485 14.9639 18.6262 14.9518C19.3582 14.9487 20.0718 14.76 20.7024 14.4101L20.6901 12.5445L18.6046 11.4763L19.0322 10.6638L20.6839 11.5098L20.6624 7.6722L21.5883 7.66612L21.5975 9.47079L23.24 8.60345L23.6768 9.41297L21.6036 10.5055L21.6252 14.404C22.2588 14.7448 22.9755 14.9244 23.7076 14.9213C26.0852 14.9061 28.0077 12.9828 27.9954 10.6303C27.9861 8.92908 26.9465 7.3983 25.3839 6.73487H25.3901Z" fill="black"/>
</g>
<defs>
<clipPath id="clip0_791_9604">
<rect width="28" height="22" fill="white"/>
</clipPath>
</defs>
</svg>
