<svg width="68" height="69" viewBox="0 0 68 69" fill="none" xmlns="http://www.w3.org/2000/svg">
<path d="M10.7719 10.9878C26.2342 -5.31996 54.2136 -3.84884 64.097 17.91C78.8456 50.383 49.3257 77.496 17.291 66.5139C-5.60786 58.668 -3.60853 26.1608 10.7719 10.9878ZM32 3.42122C-6.12893 9.28858 -8.04898 75.0555 35.6475 63.4976C74.8129 53.137 68.7526 -2.24088 32 3.42122Z" fill="black"/>
<path d="M48.6052 19.3984L36.1731 32.8495L29.3085 48.9462C21.7246 50.9648 19.0513 41.9328 19.1306 35.729C23.7523 37.6905 21.753 46.4716 27.9549 46.118C29.0423 35.1417 37.9402 22.4718 48.6052 19.3984Z" fill="black"/>
</svg>
