<svg width="36" height="36" viewBox="0 0 36 36" fill="none" xmlns="http://www.w3.org/2000/svg">
<rect width="36" height="36" rx="5" fill="#ECEFEE"/>
<path d="M25.6084 20.7262L19.8257 18.0968C19.8057 18.0875 19.7857 18.0802 19.7657 18.0728C19.2804 17.9075 18.7537 18.0295 18.391 18.3922C18.0284 18.7548 17.9064 19.2815 18.0964 19.8262L20.7257 25.6095C20.8317 25.8435 21.063 25.9955 21.3204 26.0002H21.333C21.585 26.0002 21.8164 25.8575 21.9297 25.6315L23.1637 23.1635L25.6317 21.9295C25.8617 21.8142 26.005 21.5782 26.0004 21.3208C25.9957 21.0642 25.8437 20.8328 25.6097 20.7262H25.6084ZM18.607 24.6388C18.4924 24.6488 18.377 24.6562 18.2604 24.6608C17.815 24.2202 16.6537 22.9822 15.8444 21.3328H16.3324C16.7004 21.3328 16.999 21.0348 16.999 20.6662C16.999 20.2975 16.7004 19.9995 16.3324 19.9995H15.3124C15.1184 19.3648 14.999 18.6928 14.999 17.9995C14.999 17.3062 15.119 16.6348 15.3137 15.9995H20.685C20.7637 16.2575 20.8304 16.5215 20.8817 16.7908C20.951 17.1528 21.301 17.3915 21.661 17.3208C22.0224 17.2522 22.2597 16.9028 22.191 16.5415C22.1564 16.3582 22.115 16.1775 22.069 15.9995H24.331C24.3397 15.9995 24.349 15.9995 24.3577 15.9995C24.557 16.6315 24.6644 17.3035 24.6644 18.0002C24.6644 18.2048 24.655 18.4068 24.637 18.6068C24.6044 18.9735 24.8744 19.2975 25.241 19.3308C25.609 19.3668 25.9324 19.0935 25.965 18.7268C25.9864 18.4875 25.9977 18.2448 25.9977 18.0002C25.999 13.5882 22.4104 9.99951 17.999 9.99951C13.5877 9.99951 9.99902 13.5882 9.99902 17.9995C9.99902 22.4108 13.5877 25.9995 17.9984 25.9995C18.243 25.9995 18.485 25.9882 18.7237 25.9668C19.0904 25.9342 19.3617 25.6108 19.329 25.2435C19.2964 24.8775 18.9744 24.6068 18.607 24.6388ZM13.927 19.9995H11.6657C11.657 19.9995 11.6484 19.9995 11.639 19.9995C11.4397 19.3675 11.3324 18.6955 11.3324 17.9988C11.3324 17.3022 11.4397 16.6302 11.639 15.9982C11.6477 15.9982 11.6564 15.9982 11.6657 15.9982H13.927C13.7637 16.6348 13.6657 17.3042 13.6657 17.9982C13.6657 18.6922 13.763 19.3615 13.927 19.9982V19.9995ZM15.8477 14.6662C16.5284 13.2815 17.4577 12.1835 18.0004 11.6075C18.5437 12.1828 19.473 13.2788 20.1537 14.6662H15.8477ZM23.771 14.6662H21.619C21.0917 13.4088 20.3604 12.3408 19.731 11.5615C21.4504 12.0248 22.897 13.1595 23.771 14.6662ZM16.2657 11.5622C15.6364 12.3415 14.9044 13.4095 14.3777 14.6662H12.227C13.1004 13.1595 14.5464 12.0248 16.2657 11.5622ZM12.227 21.3328H14.3777C14.9044 22.5902 15.6364 23.6575 16.2657 24.4368C14.547 23.9735 13.101 22.8388 12.227 21.3328Z" fill="black"/>
</svg>
