<svg width="36" height="36" viewBox="0 0 36 36" fill="none" xmlns="http://www.w3.org/2000/svg">
<rect width="36" height="36" rx="5" fill="#009773" fill-opacity="0.14"/>
<path d="M20.5 9.24988H20.775C20.9299 9.25029 21.0791 9.3082 21.1938 9.41238L24.6687 12.5374C24.7335 12.5958 24.7853 12.6672 24.8208 12.7468C24.8563 12.8265 24.8748 12.9127 24.875 12.9999H21.125C20.9592 12.9999 20.8003 12.934 20.6831 12.8168C20.5658 12.6996 20.5 12.5406 20.5 12.3749V9.24988ZM24.875 14.2499V24.8749C24.8538 25.3894 24.6307 25.8748 24.2539 26.2258C23.8772 26.5768 23.3772 26.7651 22.8625 26.7499H13.1375C12.6228 26.7651 12.1228 26.5768 11.7461 26.2258C11.3693 25.8748 11.1462 25.3894 11.125 24.8749V11.1249C11.1462 10.6104 11.3693 10.125 11.7461 9.77397C12.1228 9.42295 12.6228 9.23464 13.1375 9.24988H19.25V12.3749C19.25 12.8722 19.4475 13.3491 19.7992 13.7007C20.1508 14.0523 20.6277 14.2499 21.125 14.2499H24.875ZM21.125 22.9999C21.125 22.8341 21.0592 22.6751 20.9419 22.5579C20.8247 22.4407 20.6658 22.3749 20.5 22.3749H15.5C15.3342 22.3749 15.1753 22.4407 15.0581 22.5579C14.9408 22.6751 14.875 22.8341 14.875 22.9999C14.875 23.1656 14.9408 23.3246 15.0581 23.4418C15.1753 23.559 15.3342 23.6249 15.5 23.6249H20.5C20.6658 23.6249 20.8247 23.559 20.9419 23.4418C21.0592 23.3246 21.125 23.1656 21.125 22.9999ZM21.125 19.8749C21.125 19.7091 21.0592 19.5501 20.9419 19.4329C20.8247 19.3157 20.6658 19.2499 20.5 19.2499H15.5C15.3342 19.2499 15.1753 19.3157 15.0581 19.4329C14.9408 19.5501 14.875 19.7091 14.875 19.8749C14.875 20.0406 14.9408 20.1996 15.0581 20.3168C15.1753 20.434 15.3342 20.4999 15.5 20.4999H20.5C20.6658 20.4999 20.8247 20.434 20.9419 20.3168C21.0592 20.1996 21.125 20.0406 21.125 19.8749ZM21.125 16.7499C21.125 16.5841 21.0592 16.4252 20.9419 16.3079C20.8247 16.1907 20.6658 16.1249 20.5 16.1249H15.5C15.3342 16.1249 15.1753 16.1907 15.0581 16.3079C14.9408 16.4252 14.875 16.5841 14.875 16.7499C14.875 16.9156 14.9408 17.0746 15.0581 17.1918C15.1753 17.309 15.3342 17.3749 15.5 17.3749H20.5C20.6658 17.3749 20.8247 17.309 20.9419 17.1918C21.0592 17.0746 21.125 16.9156 21.125 16.7499Z" fill="#18A957"/>
</svg>
