<svg width="56" height="56" viewBox="0 0 56 56" fill="none" xmlns="http://www.w3.org/2000/svg">
<path fill-rule="evenodd" clip-rule="evenodd" d="M38.4097 27.4567C38.2436 27.7792 38.0243 28.042 37.7788 28.2902C36.5784 29.5031 35.1944 30.5197 33.6841 31.3905C32.6837 31.9672 31.5997 32.3232 30.5304 32.7105C29.8861 32.9437 29.2336 33.1129 28.5774 33.1389C28.4185 33.1452 28.3875 33.2083 28.3873 33.3234C28.3865 33.5592 28.5185 33.7326 28.6527 33.8957C29.4352 34.8467 30.0266 35.9148 30.6809 36.9444C30.9042 37.2964 31.0992 37.3395 31.6215 37.2148C32.3636 37.0373 33.0676 36.7084 33.7925 36.4639C35.2757 35.9633 36.7192 35.3444 38.074 34.5162C39.342 33.7406 40.4009 32.7932 41.2018 31.6367C41.4364 31.2982 41.4634 31.3285 41.204 31.0594C40.2969 30.1193 39.4347 29.1497 38.9022 27.9605C38.8122 27.7598 38.6853 27.5694 38.4097 27.4567ZM35.6145 28.6555C35.9391 28.6837 36.2301 28.5739 36.5068 28.5765C36.4972 28.7101 36.3727 28.7602 36.2941 28.8256C35.3772 29.5873 34.427 30.3218 33.3689 30.9005C32.1671 31.5578 30.8984 32.022 29.5773 32.2009C29.0766 32.2689 28.6196 32.2066 28.2097 32.023C27.8887 31.8791 27.5833 31.7178 27.3055 31.5258C25.5593 30.3184 23.7133 29.2242 21.7829 28.224C21.0109 27.8237 20.2357 27.4241 19.5842 26.8892C19.4999 26.8198 19.3999 26.7827 19.2819 26.7714C18.9802 26.7422 18.7651 26.6056 18.597 26.4151C17.5593 25.2423 16.1989 24.3866 14.7583 23.6145C14.3417 23.3917 13.8542 23.2539 13.3947 23.0833C13.1965 23.0098 13.0201 22.9158 12.8843 22.7749C12.6579 22.5398 12.6836 22.1838 12.9722 21.8967C13.3008 21.5693 13.6768 21.3556 14.1588 21.3133C15.4074 21.2042 16.4823 21.4567 17.4768 21.9099C18.0514 22.1717 18.5406 22.524 19.0463 22.8597C19.6173 23.2386 20.2535 23.5208 21.0073 23.6297C21.1985 23.6574 21.393 23.6905 21.5928 23.6797C22.224 23.6446 22.7603 23.8574 23.3737 23.8714C24.2563 23.8914 25.1515 23.8058 26.0527 23.6766C27.8143 23.4236 29.4747 23.5114 31.0459 23.9059C31.4829 24.0158 31.9141 24.1361 32.4032 24.2657C32.1698 23.9803 31.8731 23.8281 31.571 23.6895C31.0889 23.468 30.576 23.2944 30.0291 23.1732C29.5842 23.0746 29.1487 22.965 28.6757 22.9231C27.9246 22.8566 27.153 22.9289 26.3771 23.0219C25.6279 23.1116 24.8749 23.2596 24.127 23.3217C23.9751 23.3342 23.8269 23.3504 23.7019 23.2502C24.2263 22.6273 24.2259 22.0171 24.0474 21.4113C23.9452 21.0636 23.808 20.733 23.6608 20.4056C22.8195 18.5361 21.9802 16.6655 21.1405 14.7952C20.6358 13.6711 20.1308 12.5465 19.6272 11.4219C19.5811 11.3197 19.5378 11.216 19.4989 11.1108C19.3441 10.694 19.4412 10.4539 19.8994 10.1154C20.3244 9.80091 20.5179 9.79121 20.8181 10.09C20.9304 10.2012 21.0231 10.3308 21.107 10.4626C21.7704 11.5011 22.4443 12.5327 23.1573 13.5407C23.7342 14.357 24.3484 15.1464 25.0251 15.8927C25.1773 16.0602 25.332 16.2285 25.5915 16.2864C25.7595 16.324 25.8286 16.2791 25.8162 16.1298C25.7981 15.9017 25.7924 15.674 25.6202 15.4953C25.5058 15.3768 25.4684 15.1984 25.3976 15.0464C24.7853 13.7379 24.1455 12.4436 23.4899 11.1573C23.0481 10.2901 22.6823 9.38368 22.2819 8.49521C22.0878 8.06462 22.087 7.79124 22.9181 7.45687C23.2146 7.33728 23.4443 7.34654 23.6608 7.4926C23.897 7.65162 24.0887 7.84055 24.2305 8.07174C24.9212 9.19777 25.5898 10.3374 26.3086 11.4463C26.9787 12.4799 27.6773 13.4972 28.5224 14.4161C28.6369 14.5407 28.7319 14.6863 28.9723 14.6631C29.0549 14.5675 28.9784 14.5091 28.9522 14.4431C28.8079 14.0781 28.6685 13.7101 28.5072 13.3528C28.327 12.9536 28.0515 12.6086 27.8025 12.2502C27.0344 11.1437 26.3378 9.99531 25.6723 8.82836C25.5619 8.63395 25.4263 8.45301 25.3222 8.25553C25.1646 7.95601 25.2638 7.76732 25.6485 7.56343C25.988 7.38397 26.2793 7.36218 26.5465 7.5461C26.7419 7.6808 26.8915 7.84516 27.0269 8.02566C28.0096 9.33927 28.9952 10.6511 29.9791 11.9637C30.1003 12.1257 30.2246 12.2761 30.4515 12.3493C30.6537 12.4139 30.78 12.5699 30.9108 12.7112C31.1915 13.0133 31.4655 13.3212 31.7796 13.6685C31.8042 13.4655 31.7509 13.343 31.7174 13.2181C31.3984 12.0388 31.0758 10.861 30.7527 9.6832C30.6029 9.13772 30.4572 8.59141 30.4419 8.00373C30.4355 7.75106 30.6813 7.44531 30.9575 7.36829C31.057 7.34047 31.1146 7.37808 31.1591 7.42862C31.2847 7.57347 31.4133 7.71697 31.5225 7.87267C31.7673 8.22149 32.0003 8.57738 32.2403 8.92955C32.3174 9.04265 32.3477 9.17563 32.3825 9.30679C32.7748 10.7842 33.2826 12.2141 33.8158 13.634C33.8908 13.8336 33.9628 14.0353 34.017 14.2431C34.0987 14.5532 34.2431 14.8283 34.4391 15.0782C34.9712 15.7555 35.3382 16.5207 35.6256 17.329C35.6552 17.4139 35.6707 17.5085 35.7215 17.58C36.2745 18.3589 36.5006 19.289 36.8004 20.1842C37.1466 21.2201 37.47 22.2638 37.5887 23.382C37.693 24.3607 37.7038 25.3551 37.4864 26.377C37.3423 27.0528 36.9304 27.6661 36.2796 28.1665C36.0772 28.3217 35.8678 28.4696 35.6145 28.6555ZM30.6885 11.4963C30.4941 10.97 30.302 10.4426 30.1051 9.91737C29.9076 9.39013 29.7922 8.83433 29.6712 8.27829C29.5183 7.57483 30.4191 6.87393 31.0344 6.77897C31.4866 6.70895 31.8072 6.91068 32.0282 7.2054C32.3269 7.60297 32.5248 8.05594 32.7156 8.51036C33.4189 10.1859 33.9998 11.9153 34.6356 13.6204C34.8378 14.163 35.1098 14.647 35.4435 15.1162C36.4755 16.5662 37.2677 18.145 37.8042 19.8539C38.1011 20.8004 38.4262 21.7339 38.5688 22.7389C38.7097 23.7336 38.69 24.7523 38.5338 25.7945C38.4971 26.0411 38.5071 26.1942 38.7856 26.2947C39.2852 26.4751 39.6144 26.8087 39.7078 27.3183C39.8115 27.8865 40.0969 28.3698 40.4274 28.8271C40.651 29.1364 40.8815 29.4411 41.1079 29.7486C41.1952 29.8681 41.2953 29.9132 41.5018 29.8341C42.1784 29.575 42.6493 29.7217 42.995 30.1725C43.5372 30.8794 43.9908 31.6374 44.438 32.4008C45.4744 34.1701 46.6058 35.8792 47.9426 37.4588C48.1506 37.7047 48.2415 38.0062 48.3013 38.3216C48.3078 38.3548 48.2901 38.3982 48.3045 38.4255C48.5051 38.8119 48.1846 39.0789 47.8596 39.3718C46.2541 40.8177 44.5076 42.1168 42.7591 43.4167C42.04 43.9511 41.3564 44.5257 40.6565 45.0821C40.6242 45.1077 40.5875 45.1305 40.5943 45.1942C40.7106 45.1873 40.8183 45.1171 40.9257 45.0667C42.351 44.397 43.7736 43.7195 45.1681 42.9848C46.005 42.544 46.8114 42.0486 47.6088 41.5414C47.7283 41.4656 47.8407 41.3776 47.9869 41.3485C48.1122 41.3233 48.1976 41.3418 48.2412 41.4383C48.2816 41.5274 48.2868 41.6167 48.1776 41.7011C48.0311 41.8136 47.8861 41.9291 47.7306 42.0293C47.394 42.2463 47.0621 42.4766 46.7086 42.662C45.5276 43.2807 44.5093 44.0984 43.4731 44.8959C43.304 45.0257 43.1397 45.1607 42.9754 45.2956C42.9605 45.3078 42.9643 45.3378 42.957 45.3689C42.9967 45.3588 43.036 45.3558 43.0692 45.3392C44.1838 44.7823 45.299 44.2259 46.4113 43.6633C46.5364 43.6 46.7496 43.5736 46.679 43.3641C46.6636 43.3179 46.7939 43.254 46.8676 43.2133C47.2817 42.9856 47.6977 42.7602 48.1131 42.5351C48.1631 42.5081 48.2159 42.4842 48.269 42.465C48.3546 42.4343 48.4371 42.4298 48.4815 42.4945C48.5235 42.556 48.4987 42.6282 48.4451 42.6973C48.3184 42.8605 48.1651 43.0027 47.9906 43.1301C47.376 43.5785 46.6987 43.9236 46.0254 44.2744C44.8562 44.883 43.6587 45.4351 42.5147 46.0939C41.5804 46.6322 40.7098 47.2523 39.8643 47.9035C39.6588 48.062 39.443 48.1978 39.2037 48.289C38.982 48.3737 38.9312 48.3236 38.8973 48.14C38.8487 47.8757 39.0025 47.6727 39.2397 47.4908C40.2214 46.7386 41.0982 45.8833 42.1126 45.1632C42.1548 45.1329 42.2172 45.1066 42.2029 45.045C42.1531 45.021 42.1049 45.0559 42.0602 45.08C40.9239 45.6929 39.7453 46.2137 38.5933 46.7929C38.2621 46.9594 37.9418 47.1487 37.6174 47.3293C37.5283 47.3788 37.4385 47.4125 37.3402 47.4321C37.1931 47.4614 37.1276 47.4396 37.1144 47.2959C37.0925 47.0496 37.205 46.8568 37.4272 46.67C37.9908 46.1966 38.5684 45.7387 39.1812 45.3174C39.5528 45.062 39.914 44.7945 40.2398 44.4869C40.058 44.5227 39.9082 44.6239 39.753 44.7116C39.0798 45.0925 38.4235 45.5023 37.7329 45.8542C37.0933 46.1808 36.4401 46.4681 35.7651 46.6951C35.1916 46.8878 34.8154 46.8451 34.5374 46.3993C33.5903 44.8782 32.6621 43.3459 31.6783 41.8466C31.0448 40.8812 30.4013 39.9227 29.6793 39.0149C29.4615 38.7413 29.2932 38.4365 29.089 38.1554C28.7934 37.7481 28.8872 37.3881 29.3441 36.8707C29.6175 36.5607 29.625 36.5651 29.409 36.2976C28.9281 35.7017 28.444 35.1083 27.9683 34.5091C27.7501 34.2355 27.5487 33.9527 27.5636 33.565C27.5695 33.4087 27.6232 33.2543 27.6551 33.0991C27.6768 32.9935 27.6712 32.9235 27.5585 32.8774C26.5015 32.4444 25.706 31.7233 24.7861 31.1395C23.6067 30.3911 22.4136 29.6589 21.1981 28.9514C20.371 28.4702 19.5689 27.9594 18.7234 27.5005C18.2248 27.2296 17.8288 26.8827 17.4594 26.4951C16.7985 25.8016 15.9336 25.3033 15.1069 24.7688C14.3639 24.2879 13.5313 23.9338 12.6539 23.6342C12.5265 23.5908 12.4034 23.5352 12.2962 23.4656C12.0061 23.2772 11.8835 23.0139 11.9073 22.6504C11.9773 21.5674 13.1281 20.8412 13.9627 20.7331C15.214 20.5704 16.3676 20.6794 17.4328 21.0673C18.3159 21.3888 19.0941 21.8314 19.8475 22.3099C20.449 22.6919 21.1255 22.9461 21.936 23.003C22.3764 23.0338 22.7983 22.9016 23.2299 22.7933C23.3517 22.7629 23.3759 22.6738 23.391 22.5877C23.425 22.3947 23.4321 22.2055 23.376 22.0313C23.2865 21.7526 23.2028 21.4706 23.0923 21.2012C22.5729 19.9346 21.9729 18.7072 21.4109 17.4609C20.5538 15.5609 19.7105 13.6545 18.8614 11.7509C18.8295 11.6793 18.7984 11.6071 18.7697 11.5338C18.4263 10.6615 19.0661 9.67487 20.2032 9.32815C20.3785 9.27486 20.557 9.22288 20.733 9.19483C21.1054 9.13511 21.3909 9.29524 21.485 9.59423C21.4981 9.63619 21.5056 9.68364 21.5326 9.71659C22.0146 10.3009 22.3415 10.9801 22.7691 11.5974C22.7875 11.6239 22.815 11.644 22.8834 11.6454C22.7645 11.3893 22.6464 11.1333 22.5264 10.8778C22.2319 10.2489 21.9358 9.6208 21.6422 8.99164C21.5946 8.89026 21.559 8.78296 21.5123 8.68138C21.2511 8.11089 21.6601 7.45969 22.3304 7.12212C22.626 6.97339 22.9371 6.86135 23.2532 6.80315C23.8746 6.68827 24.292 6.92196 24.6388 7.25826C24.7109 7.32853 24.7406 7.4325 24.8417 7.48537C24.967 7.47392 25.0269 7.36787 25.1144 7.30365C25.7038 6.87332 26.35 6.77233 26.9148 7.0202C27.276 7.17841 27.5633 7.39867 27.7775 7.69788C28.4517 8.63695 29.134 9.57055 29.8192 10.5024C30.0764 10.8527 30.3492 11.1927 30.6145 11.5375C30.639 11.5237 30.664 11.5098 30.6885 11.4963Z" fill="#09090B"/>
<path fill-rule="evenodd" clip-rule="evenodd" d="M32.0353 15.3117C32.2375 16.0139 32.072 16.7652 32.0393 17.4939C31.9965 18.4376 31.9575 19.3812 31.9402 20.321C31.9315 20.7791 31.9817 21.2269 32.1137 21.6492C32.1271 21.6916 32.1454 21.7414 32.086 21.78C32.0212 21.8219 31.9537 21.823 31.8991 21.7867C31.7983 21.7186 31.7593 21.6115 31.7139 21.5098C31.5383 21.1186 31.4544 20.6949 31.4059 20.2588C31.2705 19.0443 31.1972 17.8187 31.3751 16.5459C31.4317 16.1382 31.6708 15.6785 32.0353 15.3117Z" fill="#09090B"/>
<path d="M38.5794 8.793C38.3262 5.93039 33.3691 5.05706 33.2923 4.28077C33.2637 3.98482 33.2777 3.72685 33.4026 3.45163L37.6655 5.6282C39.1611 7.21513 39.1453 6.05063 39.4058 8.99667C39.5591 9.35338 39.1938 13.8287 38.3858 13.7749C37.7914 13.7324 38.9837 10.1618 38.6426 9.50865C38.6426 9.50865 38.8325 11.6556 38.5794 8.793Z" fill="#09090B"/>
<path d="M41.4213 7.0238C41.2344 4.90961 37.5733 4.26461 37.5165 3.69128C37.4954 3.4727 37.5057 3.28218 37.598 3.07891L40.7463 4.68643C41.8509 5.85846 41.8393 4.99842 42.0317 7.17422C42.1449 7.43768 41.8751 10.7429 41.2783 10.7032C40.8394 10.6718 41.7199 8.03473 41.468 7.55235C41.468 7.55235 41.6082 9.13799 41.4213 7.0238Z" fill="#09090B"/>
<path d="M7.09057 24.9336C7.34369 27.7962 12.3008 28.6695 12.3777 29.4458C12.4062 29.7417 12.3923 29.9997 12.2673 30.2749L8.00447 28.0984C6.50884 26.5114 6.52462 27.6759 6.26413 24.7299C6.11081 24.3732 6.47609 19.8979 7.28413 19.9517C7.87848 19.9942 6.68624 23.5648 7.02729 24.2179C7.02729 24.2179 6.83746 22.071 7.09057 24.9336Z" fill="#09090B"/>
<path d="M4.24863 26.7018C4.43557 28.816 8.09667 29.461 8.15342 30.0343C8.17453 30.2529 8.1642 30.4434 8.07192 30.6467L4.92359 29.0392C3.81899 27.8671 3.83065 28.7272 3.63826 26.5514C3.52502 26.2879 3.7948 22.9827 4.39158 23.0224C4.83054 23.0538 3.95001 25.6909 4.20189 26.1732C4.20189 26.1732 4.06169 24.5876 4.24863 26.7018Z" fill="#09090B"/>
</svg>
