<svg width="88" height="87" viewBox="0 0 88 87" fill="none" xmlns="http://www.w3.org/2000/svg">
<path fill-rule="evenodd" clip-rule="evenodd" d="M59.0863 41.391C58.8814 41.8874 58.5915 42.3018 58.2615 42.6978C56.6477 44.6327 54.7414 46.2993 52.6326 47.7653C51.2359 48.7361 49.6903 49.3908 48.1699 50.0897C47.2539 50.5107 46.3181 50.8381 45.3599 50.9542C45.1278 50.9823 45.0899 51.0793 45.1034 51.2494C45.1304 51.598 45.3445 51.8388 45.5605 52.064C46.8205 53.3771 47.8145 54.886 48.896 56.3306C49.2652 56.8244 49.5561 56.8651 50.3064 56.6189C51.3724 56.2688 52.3645 55.6992 53.3974 55.252C55.5105 54.3364 57.5514 53.2507 59.4374 51.8662C61.2026 50.5696 62.6407 49.0438 63.676 47.2396C63.9793 46.7113 64.0224 46.7529 63.6102 46.3858C62.169 45.1035 60.7901 43.7723 59.8679 42.0775C59.7121 41.7914 59.5034 41.5249 59.0863 41.391ZM55.1343 43.4938C55.6132 43.4972 56.0263 43.3004 56.4321 43.2716C56.4339 43.4702 56.2575 43.559 56.1502 43.665C54.8978 44.8994 53.5935 46.0976 52.1125 47.0782C50.4302 48.1921 48.6269 49.0284 46.7128 49.4493C45.9874 49.609 45.3103 49.571 44.6878 49.3481C44.2005 49.1734 43.7338 48.9711 43.3038 48.7203C40.6014 47.1421 37.7662 45.7431 34.8186 44.4931C33.6398 43.9927 32.4564 43.4937 31.438 42.7801C31.3061 42.6875 31.1552 42.6446 30.981 42.6419C30.5355 42.6344 30.2041 42.4579 29.9351 42.1962C28.2747 40.5854 26.1795 39.4814 23.9767 38.5107C23.3398 38.2306 22.6091 38.0846 21.9156 37.8868C21.6164 37.8016 21.3468 37.6836 21.1309 37.4913C20.7712 37.1706 20.7664 36.6414 21.1549 36.1828C21.5971 35.66 22.1225 35.2995 22.8236 35.1799C24.6399 34.8709 26.2448 35.1169 27.7559 35.6691C28.6289 35.9881 29.3878 36.451 30.1687 36.8874C31.0505 37.38 32.0163 37.7218 33.1336 37.7936C33.4171 37.8118 33.706 37.8378 33.9975 37.7981C34.918 37.6716 35.7291 37.9226 36.6295 37.8708C37.9249 37.7958 39.2263 37.5633 40.5311 37.2657C43.0817 36.6833 45.5248 36.6166 47.8738 37.0138C48.5272 37.1244 49.1733 37.2512 49.9053 37.385C49.5293 36.9907 49.0764 36.8008 48.6173 36.6317C47.8845 36.3614 47.1123 36.1655 46.2967 36.051C45.6331 35.9579 44.9819 35.8474 44.2839 35.8415C43.1757 35.832 42.0538 36.0303 40.9281 36.2596C39.8413 36.4808 38.7558 36.7888 37.6675 36.969C37.4465 37.0054 37.2313 37.0469 37.0361 36.9136C37.73 35.9309 37.6565 35.0289 37.3227 34.1545C37.1314 33.6526 36.891 33.1801 36.6362 32.7136C35.1804 30.0497 33.7275 27.3839 32.2738 24.7185C31.4002 23.1166 30.5261 21.5141 29.6539 19.9112C29.5743 19.7655 29.4984 19.6174 29.4288 19.4665C29.1523 18.8687 29.2659 18.5023 29.8967 17.9478C30.4818 17.4325 30.7642 17.3953 31.2397 17.8014C31.4175 17.9526 31.5688 18.1331 31.7075 18.318C32.8034 19.7747 33.9139 21.2198 35.0788 22.6255C36.0214 23.7639 37.0155 24.858 38.0961 25.8811C38.3391 26.1107 38.5859 26.3411 38.973 26.3961C39.2236 26.4318 39.3194 26.3571 39.2835 26.1379C39.2296 25.803 39.1942 25.467 38.9205 25.2233C38.7388 25.0617 38.6627 24.8023 38.5407 24.586C37.4875 22.7243 36.3956 20.8868 35.2815 19.0628C34.5307 17.8333 33.8864 16.5367 33.1937 15.2708C32.8581 14.6572 32.8242 14.2532 34.0019 13.6606C34.422 13.4487 34.7596 13.4352 35.0943 13.6255C35.4592 13.8326 35.7627 14.0892 35.9981 14.4142C37.1444 15.9969 38.2601 17.6024 39.4455 19.1566C40.5507 20.6051 41.6957 22.0262 43.0435 23.2845C43.2262 23.4551 43.3827 23.6591 43.7321 23.5964C43.8418 23.4453 43.7227 23.368 43.6764 23.2736C43.4214 22.7511 43.1732 22.2237 42.8943 21.7145C42.5826 21.1458 42.1378 20.6683 41.7301 20.1681C40.4728 18.6233 39.3151 17.0082 38.2008 15.362C38.0158 15.0877 37.7955 14.8362 37.6194 14.5566C37.3527 14.1325 37.4755 13.8419 38.0148 13.4949C38.4907 13.1895 38.9149 13.1228 39.3283 13.3631C39.6307 13.539 39.8694 13.7643 40.0894 14.0151C41.686 15.8406 43.2865 17.663 44.8848 19.487C45.0817 19.7121 45.2818 19.9196 45.623 20.001C45.9269 20.0726 46.1306 20.2883 46.3391 20.4816C46.7864 20.895 47.2246 21.3177 47.7263 21.7939C47.7381 21.4909 47.6454 21.3161 47.5814 21.1355C46.9731 19.4299 46.3598 17.7271 45.7459 16.0243C45.4613 15.2357 45.1825 14.4454 45.0899 13.5785C45.0504 13.2058 45.374 12.7247 45.7695 12.5782C45.9119 12.5253 46.0009 12.574 46.0721 12.6435C46.2733 12.8427 46.4788 13.0397 46.6575 13.2569C47.0577 13.7435 47.4417 14.242 47.8353 14.7342C47.9618 14.8923 48.0221 15.0853 48.0886 15.275C48.8398 17.4125 49.7546 19.4661 50.7053 21.5019C50.839 21.7881 50.9685 22.0777 51.0728 22.3784C51.2295 22.8272 51.4739 23.2168 51.791 23.5629C52.6514 24.5012 53.2805 25.5889 53.798 26.7497C53.8515 26.8717 53.8855 27.0097 53.9684 27.1093C54.8716 28.1953 55.3139 29.5435 55.86 30.8312C56.4909 32.3215 57.0895 33.8261 57.3968 35.4649C57.6665 36.8994 57.801 38.3679 57.6046 39.9042C57.4741 40.9203 56.944 41.8757 56.0503 42.6923C55.7722 42.9457 55.4831 43.1891 55.1343 43.4938ZM45.8682 18.712C45.5207 17.9571 45.1762 17.2002 44.8251 16.4471C44.4727 15.6911 44.2374 14.8832 43.9937 14.0756C43.6856 13.0538 44.9216 11.9111 45.8118 11.6979C46.466 11.5409 46.9596 11.8012 47.3186 12.2107C47.8037 12.763 48.1478 13.4092 48.4815 14.0583C49.7121 16.4518 50.7696 18.9395 51.9047 21.3848C52.2657 22.1629 52.722 22.8461 53.267 23.5003C54.952 25.5215 56.3012 27.7615 57.2912 30.2242C57.8392 31.5881 58.4271 32.9296 58.7559 34.3983C59.0812 35.8521 59.1739 37.3602 59.0696 38.9193C59.0453 39.2881 59.0781 39.5132 59.4981 39.6289C60.2517 39.8364 60.7738 40.2905 60.9716 41.0328C61.1913 41.8605 61.6672 42.5411 62.206 43.178C62.5705 43.6087 62.9445 44.0319 63.3129 44.4596C63.4552 44.6258 63.6072 44.6807 63.9002 44.5393C64.8606 44.0763 65.568 44.2373 66.1282 44.8629C67.007 45.8437 67.7621 46.9105 68.5084 47.986C70.2381 50.4787 72.0998 52.8712 74.2469 55.048C74.581 55.3869 74.7502 55.8218 74.8754 56.281C74.8889 56.3292 74.8681 56.3954 74.8925 56.4341C75.2326 56.9815 74.7949 57.4142 74.3537 57.8856C72.1742 60.213 69.7706 62.34 67.3642 64.4685C66.3744 65.3435 65.4416 66.2737 64.4826 67.1792C64.4384 67.2207 64.3874 67.2589 64.4048 67.3523C64.5744 67.3282 64.7238 67.2118 64.8753 67.1245C66.8834 65.9658 68.8866 64.7959 70.842 63.5449C72.0154 62.7943 73.1377 61.9666 74.2453 61.1224C74.4114 60.9963 74.5656 60.8528 74.7763 60.7925C74.9568 60.7405 75.0841 60.7577 75.1596 60.8952C75.2294 61.0221 75.2477 61.1535 75.0978 61.2912C74.8966 61.4749 74.6978 61.6626 74.4821 61.8293C74.0149 62.1898 73.5562 62.5695 73.0603 62.8854C71.4039 63.9397 70.0097 65.2691 68.5868 66.5705C68.3547 66.7825 68.13 67.0014 67.9054 67.2202C67.8851 67.2401 67.8943 67.284 67.8873 67.3308C67.9442 67.3111 68.0015 67.3021 68.0481 67.2736C69.6145 66.3185 71.1819 65.3641 72.7443 64.4008C72.92 64.2923 73.2293 64.2281 73.1009 63.9268C73.0728 63.8604 73.256 63.7505 73.3591 63.6815C73.9386 63.296 74.5211 62.9135 75.1029 62.5316C75.173 62.4857 75.2474 62.4442 75.3229 62.4095C75.4446 62.3541 75.565 62.3377 75.6377 62.4279C75.7067 62.5139 75.6789 62.6236 75.6086 62.7321C75.4425 62.9884 75.2349 63.2167 74.9945 63.4256C74.1476 64.1612 73.1964 64.7515 72.2519 65.3497C70.6117 66.3877 68.9232 67.3456 67.3258 68.4548C66.0213 69.3612 64.8199 70.3809 63.6589 71.4435C63.3768 71.7022 63.0768 71.9284 62.7372 72.0915C62.4225 72.243 62.342 72.1749 62.2705 71.9076C62.1677 71.5227 62.3688 71.2043 62.6945 70.9074C64.043 69.6793 65.2254 68.3112 66.6257 67.1267C66.6837 67.0769 66.772 67.0306 66.7438 66.9412C66.668 66.9116 66.6015 66.969 66.5389 67.0099C64.9473 68.0504 63.2828 68.9597 61.6642 69.9523C61.1988 70.2375 60.7523 70.5553 60.2985 70.8607C60.1739 70.9443 60.0464 71.0047 59.9047 71.0455C59.6927 71.1062 59.5941 71.0817 59.5576 70.8708C59.4961 70.5094 59.6379 70.211 59.9411 69.9086C60.7103 69.1421 61.5019 68.3968 62.3493 67.7015C62.8633 67.2801 63.3604 66.8419 63.8011 66.3486C63.539 66.423 63.3317 66.5904 63.1148 66.7384C62.174 67.3811 61.2613 68.0646 60.2916 68.6665C59.3935 69.225 58.4708 69.7269 57.509 70.1424C56.6918 70.4951 56.1356 70.4764 55.6751 69.8504C54.1059 67.714 52.563 65.5589 50.9427 63.4589C49.8993 62.1068 48.8421 60.7662 47.6758 59.5097C47.3241 59.1311 47.0411 58.7004 46.7084 58.3091C46.2267 57.742 46.3211 57.1987 46.9288 56.3799C47.2923 55.8892 47.3037 55.8948 46.9554 55.5249C46.1797 54.701 45.3996 53.8811 44.6311 53.0518C44.2787 52.6731 43.95 52.2788 43.9255 51.7041C43.9155 51.4722 43.9757 51.2376 44.0039 51.0044C44.0231 50.8459 44.0065 50.7431 43.8359 50.6882C42.2356 50.1732 40.9841 49.2014 39.5666 48.4474C37.7494 47.4807 35.914 46.5396 34.0487 45.6376C32.7795 45.0241 31.5435 44.364 30.2498 43.7856C29.4871 43.4442 28.8654 42.9783 28.278 42.4491C27.2269 41.5021 25.9002 40.868 24.6254 40.1757C23.4794 39.5528 22.2172 39.1278 20.8961 38.7889C20.7042 38.7397 20.5171 38.6721 20.3519 38.5819C19.9044 38.3378 19.6932 37.9631 19.6847 37.4229C19.658 35.8138 21.2572 34.6041 22.4671 34.3455C24.2808 33.9569 25.9839 33.9815 27.5909 34.4289C28.9231 34.7996 30.1159 35.3617 31.2769 35.9799C32.2038 36.4734 33.2252 36.7691 34.4195 36.7572C35.0684 36.7506 35.6706 36.5053 36.2901 36.2941C36.4649 36.2348 36.4897 36.1002 36.5015 35.9711C36.5283 35.6819 36.5161 35.4012 36.4132 35.1504C36.2486 34.749 36.0924 34.3421 35.8983 33.9569C34.9862 32.1462 33.9605 30.4027 32.9884 28.6271C31.5057 25.9198 30.0426 23.2016 28.5714 20.4881C28.5161 20.3861 28.4618 20.2831 28.4111 20.1782C27.8038 18.9293 28.6233 17.3951 30.2478 16.748C30.4984 16.6485 30.7536 16.5505 31.0081 16.4883C31.5466 16.3559 31.9839 16.5588 32.1575 16.9897C32.1818 17.0501 32.1984 17.1194 32.2419 17.1649C33.0178 17.9715 33.5778 18.9369 34.278 19.7988C34.3081 19.8358 34.3508 19.8623 34.4512 19.8562C34.2465 19.4917 34.0428 19.1273 33.8366 18.7638C33.33 17.8689 32.8212 16.9756 32.3159 16.0803C32.234 15.9361 32.1691 15.7817 32.0886 15.637C31.6377 14.8247 32.1592 13.8136 33.1009 13.2353C33.5161 12.9805 33.9586 12.778 34.4147 12.6546C35.3114 12.4112 35.9508 12.7073 36.4991 13.1634C36.6131 13.2587 36.669 13.4089 36.8235 13.475C37.0056 13.4433 37.0807 13.2794 37.2012 13.1742C38.0134 12.4683 38.9481 12.2425 39.8052 12.5421C40.3532 12.7332 40.8004 13.0248 41.1499 13.4417C42.2498 14.7501 43.361 16.0494 44.4761 17.3458C44.8947 17.8331 45.335 18.3034 45.7649 18.7817C45.7991 18.7585 45.8341 18.735 45.8682 18.712Z" fill="white"/>
<path fill-rule="evenodd" clip-rule="evenodd" d="M48.2953 24.1912C48.6753 25.2053 48.5226 26.3355 48.5616 27.4164C48.6117 28.8165 48.6672 30.216 48.7541 31.6072C48.7961 32.2854 48.9231 32.9415 49.1668 33.5501C49.1915 33.6112 49.2243 33.6826 49.1419 33.7468C49.0519 33.8164 48.9532 33.8259 48.8689 33.7787C48.713 33.69 48.6432 33.5363 48.5645 33.3913C48.2605 32.8339 48.087 32.2175 47.9639 31.5785C47.6204 29.7993 47.3668 27.9963 47.4754 26.0938C47.5096 25.4844 47.8051 24.7765 48.2953 24.1912Z" fill="white"/>
<path d="M57.1046 13.778C56.392 9.57645 49.0252 8.87218 48.8199 7.73375C48.7427 7.29966 48.7324 6.91667 48.8826 6.49505L55.3878 9.20796C57.7685 11.3768 57.6063 9.65726 58.3398 13.9813C58.607 14.4904 58.6062 21.1491 57.416 21.1652C56.5401 21.1727 57.8605 15.7535 57.2828 14.8284C57.2828 14.8284 57.8173 17.9796 57.1046 13.778Z" fill="white"/>
<path d="M61.0589 10.8283C60.5325 7.72517 55.0918 7.20502 54.9402 6.36424C54.8831 6.04363 54.8755 5.76077 54.9865 5.44938L59.7909 7.45302C61.5492 9.05479 61.4294 7.78484 61.9711 10.9784C62.1684 11.3544 62.1679 16.2722 61.2888 16.2841C60.642 16.2896 61.6171 12.2873 61.1905 11.604C61.1905 11.604 61.5852 13.9313 61.0589 10.8283Z" fill="white"/>
<path d="M12.8988 41.3704C13.6114 45.572 20.9782 46.2763 21.1835 47.4147C21.2607 47.8488 21.271 48.2318 21.1208 48.6534L14.6156 45.9405C12.2349 43.7717 12.3971 45.4912 11.6637 41.1672C11.3964 40.658 11.3972 33.9994 12.5874 33.9832C13.4633 33.9758 12.143 39.3949 12.7206 40.32C12.7206 40.32 12.1861 37.1688 12.8988 41.3704Z" fill="white"/>
<path d="M8.94454 44.3202C9.47088 47.4233 14.9116 47.9434 15.0632 48.7842C15.1203 49.1048 15.1279 49.3877 15.017 49.6991L10.2125 47.6954C8.45425 46.0937 8.57403 47.3636 8.03235 44.1701C7.83499 43.794 7.83554 38.8763 8.7146 38.8643C9.36146 38.8588 8.38633 42.8612 8.81295 43.5444C8.81295 43.5444 8.4182 41.2171 8.94454 44.3202Z" fill="white"/>
</svg>
