<svg width="36" height="36" viewBox="0 0 36 36" fill="none" xmlns="http://www.w3.org/2000/svg">
<rect width="36" height="36" rx="5" fill="#EA4335" fill-opacity="0.08"/>
<g clip-path="url(#clip0_276_8321)">
<path d="M25.9846 14.704C25.9471 13.8539 25.8096 13.2694 25.6127 12.763C25.4095 12.2254 25.0969 11.7441 24.6874 11.344C24.2873 10.9377 23.8029 10.6219 23.2715 10.422C22.7621 10.225 22.1807 10.0875 21.3306 10.0501C20.4741 10.0094 20.2022 10 18.0299 10C15.8576 10 15.5857 10.0094 14.7324 10.0469C13.8822 10.0844 13.2978 10.222 12.7914 10.4188C12.2537 10.6219 11.7724 10.9345 11.3723 11.344C10.966 11.7441 10.6504 12.2286 10.4503 12.7599C10.2533 13.2694 10.1159 13.8507 10.0784 14.7009C10.0377 15.5574 10.0283 15.8293 10.0283 18.0016C10.0283 20.1739 10.0377 20.4458 10.0752 21.2991C10.1127 22.1492 10.2503 22.7337 10.4472 23.2401C10.6504 23.7777 10.966 24.259 11.3723 24.6591C11.7724 25.0654 12.2569 25.3812 12.7883 25.5812C13.2978 25.7781 13.879 25.9156 14.7293 25.9531C15.5825 25.9907 15.8545 26 18.0268 26C20.1991 26 20.471 25.9907 21.3244 25.9531C22.1745 25.9156 22.759 25.7781 23.2653 25.5812C24.3406 25.1654 25.1907 24.3153 25.6064 23.2401C25.8033 22.7306 25.9409 22.1492 25.9783 21.2991C26.0158 20.4458 26.0252 20.1739 26.0252 18.0016C26.0252 15.8293 26.022 15.5574 25.9846 14.704ZM24.5437 21.2366C24.5093 22.018 24.378 22.4399 24.2687 22.7212C23.9998 23.4183 23.4466 23.9715 22.7496 24.2403C22.4683 24.3497 22.0432 24.481 21.2649 24.5153C20.421 24.5529 20.1679 24.5622 18.0331 24.5622C15.8982 24.5622 15.642 24.5529 14.8011 24.5153C14.0197 24.481 13.5977 24.3497 13.3164 24.2403C12.9696 24.1121 12.6538 23.909 12.3976 23.6433C12.1319 23.3838 11.9287 23.0713 11.8005 22.7244C11.6911 22.4431 11.5599 22.018 11.5256 21.2397C11.488 20.3958 11.4787 20.1426 11.4787 18.0078C11.4787 15.873 11.488 15.6167 11.5256 14.776C11.5599 13.9946 11.6911 13.5726 11.8005 13.2913C11.9287 12.9443 12.1319 12.6287 12.4007 12.3723C12.6601 12.1066 12.9726 11.9034 13.3196 11.7754C13.6009 11.666 14.026 11.5347 14.8043 11.5003C15.6482 11.4628 15.9014 11.4534 18.0361 11.4534C20.1741 11.4534 20.4272 11.4628 21.2681 11.5003C22.0495 11.5347 22.4714 11.666 22.7527 11.7754C23.0996 11.9034 23.4153 12.1066 23.6716 12.3723C23.9373 12.6317 24.1405 12.9443 24.2687 13.2913C24.378 13.5726 24.5093 13.9976 24.5437 14.776C24.5812 15.6199 24.5906 15.873 24.5906 18.0078C24.5906 20.1426 24.5812 20.3927 24.5437 21.2366Z" fill="#EA4335"/>
<path d="M18.0291 13.8916C15.76 13.8916 13.9189 15.7325 13.9189 18.0018C13.9189 20.271 15.76 22.112 18.0291 22.112C20.2984 22.112 22.1393 20.271 22.1393 18.0018C22.1393 15.7325 20.2984 13.8916 18.0291 13.8916ZM18.0291 20.6679C16.557 20.6679 15.363 19.474 15.363 18.0018C15.363 16.5296 16.557 15.3356 18.0291 15.3356C19.5013 15.3356 20.6953 16.5296 20.6953 18.0018C20.6953 19.474 19.5013 20.6679 18.0291 20.6679Z" fill="#EA4335"/>
<path d="M23.261 13.7291C23.261 14.259 22.8313 14.6886 22.3013 14.6886C21.7714 14.6886 21.3418 14.259 21.3418 13.7291C21.3418 13.1991 21.7714 12.7695 22.3013 12.7695C22.8313 12.7695 23.261 13.1991 23.261 13.7291Z" fill="#EA4335"/>
</g>
<defs>
<clipPath id="clip0_276_8321">
<rect width="16" height="16" fill="white" transform="translate(10 10)"/>
</clipPath>
</defs>
</svg>
