<svg width="294" height="161" viewBox="0 0 294 161" fill="none" xmlns="http://www.w3.org/2000/svg">
<g filter="url(#filter0_dd_270_19513)">
<g clip-path="url(#clip0_270_19513)">
<rect x="16" y="8" width="301" height="215" rx="12" fill="white" fill-opacity="0.01"/>
<g clip-path="url(#clip1_270_19513)">
<g clip-path="url(#clip2_270_19513)">
<mask id="mask0_270_19513" style="mask-type:luminance" maskUnits="userSpaceOnUse" x="16" y="8" width="301" height="214">
<path d="M16 8H317V222H16V8Z" fill="white"/>
</mask>
<g mask="url(#mask0_270_19513)">
<path d="M16 8H317V222H16V8Z" fill="white"/>
<path d="M44.1186 48V37.8182H50.4325V39.1406H45.6548V42.2429H49.9801V43.5604H45.6548V48H44.1186ZM56.5613 44.8331V40.3636H58.0527V48H56.5911V46.6776H56.5115C56.3359 47.0852 56.0542 47.425 55.6664 47.6967C55.2819 47.9652 54.803 48.0994 54.2296 48.0994C53.7391 48.0994 53.3049 47.9917 52.927 47.7763C52.5525 47.5575 52.2575 47.2344 52.0421 46.8068C51.83 46.3793 51.7239 45.8506 51.7239 45.2209V40.3636H53.2104V45.0419C53.2104 45.5623 53.3546 45.9766 53.6429 46.2848C53.9313 46.593 54.3058 46.7472 54.7665 46.7472C55.0449 46.7472 55.3217 46.6776 55.5968 46.5384C55.8752 46.3991 56.1055 46.1887 56.2878 45.907C56.4734 45.6252 56.5646 45.2673 56.5613 44.8331ZM61.5366 37.8182V48H60.0501V37.8182H61.5366ZM65.0229 37.8182V48H63.5364V37.8182H65.0229ZM79.0652 37.8182V48H77.6532L72.4778 40.5327H72.3833V48H70.8471V37.8182H72.269L77.4494 45.2955H77.5439V37.8182H79.0652ZM83.4091 48.169C82.9252 48.169 82.4877 48.0795 82.0966 47.9006C81.7055 47.7183 81.3956 47.4548 81.1669 47.1101C80.9415 46.7654 80.8288 46.3428 80.8288 45.8423C80.8288 45.4115 80.9117 45.0568 81.0774 44.7784C81.2431 44.5 81.4669 44.2796 81.7486 44.1172C82.0303 43.9548 82.3452 43.8321 82.6932 43.7493C83.0412 43.6664 83.3958 43.6035 83.7571 43.5604C84.2145 43.5073 84.5857 43.4643 84.8707 43.4311C85.1558 43.3946 85.3629 43.3366 85.4922 43.2571C85.6214 43.1776 85.6861 43.0483 85.6861 42.8693V42.8345C85.6861 42.4003 85.5634 42.0639 85.3182 41.8253C85.0762 41.5866 84.715 41.4673 84.2344 41.4673C83.7339 41.4673 83.3395 41.5784 83.0511 41.8004C82.7661 42.0192 82.5689 42.2628 82.4595 42.5312L81.0625 42.2131C81.2282 41.7491 81.4702 41.3745 81.7884 41.0895C82.1098 40.8011 82.4794 40.5923 82.897 40.4631C83.3146 40.3305 83.7538 40.2642 84.2145 40.2642C84.5194 40.2642 84.8426 40.3007 85.1839 40.3736C85.5286 40.4432 85.8501 40.5724 86.1484 40.7614C86.45 40.9503 86.697 41.2204 86.8892 41.5717C87.0814 41.9197 87.1776 42.3722 87.1776 42.929V48H85.7259V46.956H85.6662C85.5701 47.1482 85.4259 47.3371 85.2337 47.5227C85.0414 47.7083 84.7945 47.8625 84.4929 47.9851C84.1913 48.1077 83.83 48.169 83.4091 48.169ZM83.7322 46.9759C84.1432 46.9759 84.4946 46.8946 84.7862 46.7322C85.0812 46.5698 85.3049 46.3577 85.4574 46.0959C85.6132 45.8307 85.6911 45.5473 85.6911 45.2457V44.2614C85.638 44.3144 85.5353 44.3641 85.3828 44.4105C85.2337 44.4536 85.063 44.4917 84.8707 44.5249C84.6785 44.5547 84.4912 44.5829 84.3089 44.6094C84.1267 44.6326 83.9742 44.6525 83.8516 44.669C83.5632 44.7055 83.2997 44.7668 83.0611 44.853C82.8258 44.9392 82.6368 45.0634 82.4943 45.2259C82.3551 45.3849 82.2855 45.5971 82.2855 45.8622C82.2855 46.2301 82.4214 46.5085 82.6932 46.6974C82.965 46.883 83.3113 46.9759 83.7322 46.9759ZM89.1575 48V40.3636H90.5843V41.6065H90.6788C90.8379 41.1856 91.0981 40.8575 91.4593 40.6222C91.8206 40.3835 92.2531 40.2642 92.7569 40.2642C93.2673 40.2642 93.6949 40.3835 94.0396 40.6222C94.3876 40.8608 94.6445 41.1889 94.8102 41.6065H94.8897C95.072 41.1989 95.362 40.8741 95.7598 40.6321C96.1575 40.3868 96.6315 40.2642 97.1816 40.2642C97.8743 40.2642 98.4395 40.4813 98.877 40.9155C99.3178 41.3497 99.5382 42.0043 99.5382 42.8793V48H98.0517V43.0185C98.0517 42.5014 97.9108 42.1269 97.6291 41.8949C97.3474 41.6629 97.0109 41.5469 96.6199 41.5469C96.1359 41.5469 95.7598 41.696 95.4913 41.9943C95.2228 42.2893 95.0886 42.6688 95.0886 43.1328V48H93.6071V42.924C93.6071 42.5097 93.4778 42.1766 93.2193 41.9247C92.9608 41.6728 92.6243 41.5469 92.21 41.5469C91.9283 41.5469 91.6681 41.6214 91.4295 41.7706C91.1942 41.9164 91.0036 42.1203 90.8578 42.3821C90.7153 42.6439 90.644 42.9472 90.644 43.2919V48H89.1575ZM104.822 48.1541C104.069 48.1541 103.421 47.9934 102.878 47.6719C102.338 47.3471 101.92 46.8913 101.625 46.3047C101.333 45.7147 101.188 45.0237 101.188 44.2315C101.188 43.4493 101.333 42.7599 101.625 42.1634C101.92 41.5668 102.331 41.1011 102.858 40.7663C103.388 40.4316 104.008 40.2642 104.717 40.2642C105.148 40.2642 105.566 40.3355 105.97 40.478C106.375 40.6205 106.737 40.8442 107.059 41.1491C107.38 41.4541 107.634 41.8501 107.82 42.3374C108.005 42.8213 108.098 43.4096 108.098 44.1023V44.6293H102.028V43.5156H106.641C106.641 43.1245 106.562 42.7782 106.403 42.4766C106.244 42.1716 106.02 41.9313 105.732 41.7557C105.446 41.58 105.112 41.4922 104.727 41.4922C104.31 41.4922 103.945 41.5949 103.634 41.8004C103.325 42.0026 103.087 42.2678 102.918 42.5959C102.752 42.9207 102.669 43.2737 102.669 43.6548V44.5249C102.669 45.0353 102.759 45.4695 102.938 45.8274C103.12 46.1854 103.373 46.4588 103.698 46.6477C104.023 46.8333 104.402 46.9261 104.837 46.9261C105.118 46.9261 105.375 46.8864 105.607 46.8068C105.839 46.724 106.04 46.6013 106.209 46.4389C106.378 46.2765 106.507 46.076 106.597 45.8374L108.004 46.0909C107.891 46.5052 107.689 46.8681 107.397 47.1797C107.109 47.4879 106.746 47.7282 106.308 47.9006C105.874 48.0696 105.379 48.1541 104.822 48.1541Z" fill="black"/>
<path d="M272.018 58.7798H60.9718C51.6568 58.7798 44.1055 66.6964 44.1055 76.462C44.1055 86.2276 51.6568 94.1442 60.9718 94.1442H272.018C281.333 94.1442 288.884 86.2276 288.884 76.462C288.884 66.6964 281.333 58.7798 272.018 58.7798Z" fill="white"/>
<path d="M58.3828 82.4694C58.3828 81.2669 58.8385 80.1137 59.6495 79.2634C60.4605 78.4131 61.5605 77.9355 62.7075 77.9355C63.8545 77.9355 64.9545 78.4131 65.7656 79.2634C66.5766 80.1137 67.0322 81.2669 67.0322 82.4694H65.9511C65.9511 81.5675 65.6093 80.7026 65.001 80.0649C64.3928 79.4272 63.5678 79.0689 62.7075 79.0689C61.8473 79.0689 61.0223 79.4272 60.414 80.0649C59.8057 80.7026 59.464 81.5675 59.464 82.4694H58.3828ZM62.7075 77.3687C62.2815 77.3688 61.8597 77.281 61.4661 77.1101C61.0726 76.9393 60.715 76.6888 60.4137 76.373C60.1125 76.0572 59.8736 75.6823 59.7107 75.2697C59.5477 74.8571 59.4639 74.4149 59.464 73.9683C59.4639 73.5217 59.5477 73.0795 59.7107 72.6669C59.8736 72.2543 60.1125 71.8793 60.4137 71.5636C60.715 71.2478 61.0726 70.9973 61.4661 70.8265C61.8597 70.6556 62.2815 70.5678 62.7075 70.5679C63.1335 70.5678 63.5553 70.6556 63.9489 70.8265C64.3425 70.9973 64.7001 71.2478 65.0013 71.5636C65.3025 71.8793 65.5414 72.2543 65.7044 72.6669C65.8674 73.0795 65.9512 73.5217 65.9511 73.9683C65.9512 74.4149 65.8674 74.8571 65.7044 75.2697C65.5414 75.6823 65.3025 76.0572 65.0013 76.373C64.7001 76.6888 64.3425 76.9393 63.9489 77.1101C63.5553 77.281 63.1335 77.3688 62.7075 77.3687ZM62.7075 76.2352C63.281 76.2352 63.831 75.9964 64.2365 75.5713C64.6421 75.1461 64.8699 74.5695 64.8699 73.9683C64.8699 73.3671 64.6421 72.7905 64.2365 72.3653C63.831 71.9402 63.281 71.7013 62.7075 71.7013C62.134 71.7013 61.584 71.9402 61.1785 72.3653C60.773 72.7905 60.5452 73.3671 60.5452 73.9683C60.5452 74.5695 60.773 75.1461 61.1785 75.5713C61.584 75.9964 62.134 76.2352 62.7075 76.2352ZM80.9838 72.103H82.0511V78.7035C82.0511 79.2929 81.9473 79.7925 81.7414 80.2042C81.5476 80.6023 81.243 80.9293 80.8679 81.1418C80.4925 81.3558 80.0496 81.4619 79.5393 81.4619C79.0575 81.4619 78.6294 81.3712 78.254 81.1872C77.8939 81.0146 77.587 80.7398 77.3683 80.3937C77.1529 80.051 77.0457 79.6438 77.0457 79.1723H78.0949C78.0949 79.4335 78.1563 79.662 78.2799 79.8569C78.4054 80.0492 78.5775 80.1997 78.7955 80.3085C79.0134 80.4164 79.2617 80.4699 79.5393 80.4699C79.8464 80.4699 80.1076 80.4028 80.3221 80.2677C80.5374 80.1317 80.7009 79.934 80.8125 79.6719C80.9267 79.4081 80.9846 79.0843 80.9846 78.7035L80.9838 72.103ZM86.7339 81.4801C86.1371 81.4801 85.6138 81.3313 85.164 81.0339C84.7101 80.7284 84.3467 80.2959 84.1149 79.7853C83.8658 79.2503 83.7403 78.6246 83.7403 77.9101C83.7403 77.1883 83.8658 76.559 84.1149 76.0203C84.3457 75.5078 84.7093 75.0736 85.164 74.7672C85.6138 74.4697 86.1371 74.321 86.7339 74.321C87.3307 74.321 87.8514 74.4697 88.2994 74.7672C88.7492 75.0655 89.0987 75.4835 89.3478 76.0203C89.6003 76.559 89.7266 77.1883 89.7266 77.9101C89.7266 78.6246 89.6003 79.2503 89.3478 79.7853C89.1178 80.2972 88.7539 80.7301 88.2986 81.0339C87.8514 81.3313 87.3307 81.4801 86.7339 81.4801ZM86.7339 80.5243C87.1863 80.5243 87.5591 80.4028 87.8514 80.1589C88.1488 79.9087 88.3738 79.5764 88.501 79.1995C88.6411 78.8023 88.712 78.3725 88.712 77.9101C88.712 77.4476 88.6411 77.016 88.501 76.6161C88.3743 76.2361 88.1498 75.9003 87.8523 75.6458C87.5591 75.401 87.1863 75.2768 86.7339 75.2768C86.2807 75.2768 85.9079 75.4001 85.6155 75.6467C85.3181 75.9009 85.0936 76.2364 84.9668 76.6161C84.8258 77.0151 84.7558 77.4467 84.7558 77.9101C84.7558 78.3725 84.8258 78.8023 84.966 79.1995C85.1069 79.5958 85.3232 79.9159 85.6155 80.1589C85.9079 80.4028 86.2807 80.5243 86.7339 80.5243ZM92.2903 77.1701V81.3359H91.2766V72.103H92.2912V75.4935H92.3777C92.5325 75.1353 92.7643 74.8515 93.0739 74.6411C93.3862 74.428 93.8022 74.321 94.3212 74.321C94.771 74.321 95.1654 74.4162 95.5036 74.6049C95.8417 74.7917 96.1038 75.0782 96.2907 75.4663C96.4801 75.8508 96.5744 76.3413 96.5744 76.9353V81.3359H95.558V77.0078C95.558 76.4583 95.4214 76.033 95.1489 75.732C94.8799 75.4291 94.5054 75.2768 94.0271 75.2768C93.6941 75.2768 93.3957 75.3502 93.1327 75.498C92.8715 75.6449 92.6657 75.8607 92.5134 76.1418C92.3638 76.4248 92.2894 76.7675 92.2894 77.1701H92.2903ZM99.4451 77.1701V81.3359H98.4297V74.4117H99.4105V75.4935H99.497C99.651 75.1417 99.8862 74.8588 100.202 74.6457C100.517 74.4289 100.924 74.321 101.423 74.321C101.87 74.321 102.262 74.4172 102.597 74.6094C102.933 74.7998 103.193 75.0873 103.38 75.4754C103.566 75.8598 103.659 76.3468 103.659 76.9353V81.3359H102.645V77.0078C102.645 76.4637 102.51 76.0403 102.24 75.7365C101.971 75.43 101.601 75.2768 101.131 75.2768C100.807 75.2768 100.517 75.3502 100.262 75.498C100.01 75.6449 99.8101 75.8607 99.6648 76.1418C99.5177 76.4248 99.4451 76.7675 99.4451 77.1701ZM113.873 74.4117C113.853 74.1957 113.786 73.9874 113.677 73.8028C113.569 73.6182 113.421 73.4624 113.245 73.3472C112.879 73.0951 112.428 72.969 111.895 72.969C111.505 72.969 111.164 73.0352 110.871 73.1676C110.603 73.283 110.368 73.4711 110.192 73.7126C110.032 73.9412 109.948 74.2181 109.952 74.5015C109.952 74.7481 110.007 74.9603 110.118 75.1371C110.234 75.3112 110.38 75.4572 110.558 75.5742C110.735 75.6885 110.921 75.7828 111.117 75.8589C111.311 75.9315 111.49 75.9895 111.654 76.0339L112.548 76.2869C112.778 76.3504 113.033 76.4365 113.314 76.5481C113.597 76.6596 113.869 76.811 114.127 77.0033C114.388 77.1937 114.602 77.4367 114.772 77.7342C114.941 78.0316 115.025 78.3961 115.025 78.8295C115.025 79.3283 114.901 79.7789 114.652 80.1815C114.404 80.5842 114.044 80.9043 113.568 81.1427C113.095 81.3794 112.52 81.4982 111.843 81.4982C111.213 81.4982 110.667 81.3912 110.205 81.1781C109.747 80.965 109.385 80.6676 109.121 80.2858C108.857 79.8949 108.704 79.4339 108.678 78.9556H109.779C109.808 79.3047 109.92 79.5931 110.114 79.8207C110.312 80.0473 110.562 80.2151 110.863 80.3257C111.179 80.4363 111.51 80.4914 111.843 80.4889C112.251 80.4889 112.616 80.4191 112.94 80.2804C113.24 80.1573 113.505 79.9556 113.71 79.6946C113.898 79.4425 113.993 79.1478 113.993 78.8114C113.993 78.5049 113.911 78.2555 113.748 78.0633C113.569 77.859 113.349 77.6989 113.103 77.5945C112.822 77.4691 112.533 77.3637 112.238 77.2789L111.156 76.9543C110.467 76.7458 109.922 76.4502 109.521 76.0657C109.119 75.6812 108.919 75.177 108.919 74.5559C108.919 74.039 109.052 73.5884 109.319 73.203C109.598 72.8073 109.972 72.4963 110.403 72.3016C110.884 72.0799 111.404 71.9692 111.929 71.977C112.497 71.977 113.001 72.084 113.442 72.2971C113.884 72.5075 114.234 72.7958 114.493 73.1631C114.753 73.5294 114.89 73.9456 114.905 74.4117H113.873ZM116.641 81.3359V74.4117H117.622V75.4935H117.707C117.834 75.1378 118.068 74.8353 118.374 74.6321C118.681 74.4253 119.049 74.321 119.479 74.321C119.915 74.321 120.277 74.4253 120.567 74.6321C120.859 74.837 121.088 75.1235 121.251 75.4935H121.319C121.489 75.1353 121.742 74.8515 122.081 74.6411C122.419 74.428 122.824 74.321 123.298 74.321C123.888 74.321 124.371 74.5151 124.747 74.9032C125.123 75.2877 125.31 75.887 125.31 76.7013V81.3359H124.296V76.7022C124.296 76.1908 124.162 75.8254 123.895 75.6059C123.627 75.3858 123.294 75.2695 122.953 75.2768C122.489 75.2768 122.13 75.4246 121.875 75.7184C121.62 76.0104 121.492 76.3803 121.492 76.8274V81.3359H120.46V76.5934C120.46 76.1999 120.338 75.8825 120.094 75.6413C119.851 75.3983 119.537 75.2768 119.153 75.2768C118.889 75.2768 118.642 75.3502 118.412 75.498C118.182 75.6498 117.993 75.8608 117.862 76.111C117.721 76.3865 117.649 76.6958 117.656 77.0087V81.3359H116.641ZM127.166 81.3359V74.4117H128.18V81.3359H127.166ZM127.682 73.2565C127.491 73.2596 127.307 73.1837 127.17 73.0452C127.103 72.9806 127.049 72.902 127.013 72.8144C126.977 72.7267 126.958 72.6321 126.959 72.5365C126.958 72.4408 126.976 72.3459 127.013 72.2581C127.049 72.1702 127.103 72.0915 127.17 72.0269C127.307 71.888 127.491 71.8118 127.682 71.8147C127.879 71.8147 128.049 71.8854 128.189 72.0269C128.257 72.0908 128.312 72.1693 128.349 72.2572C128.386 72.3451 128.405 72.4404 128.404 72.5365C128.405 72.6325 128.386 72.7275 128.349 72.8152C128.312 72.903 128.257 72.9814 128.189 73.0452C128.122 73.1141 128.043 73.1683 127.956 73.2047C127.869 73.2412 127.776 73.2591 127.682 73.2574V73.2565ZM132.911 74.4117V75.3131H129.489V74.4117H132.911ZM130.486 72.7523H131.502V79.3518C131.502 79.6529 131.543 79.8778 131.626 80.0283C131.699 80.1641 131.815 80.2691 131.953 80.3257C132.087 80.3738 132.23 80.3983 132.379 80.3983C132.49 80.3983 132.582 80.3919 132.654 80.3801L132.826 80.3439L133.033 81.2996C132.963 81.3268 132.867 81.354 132.744 81.3812C132.621 81.4111 132.464 81.4266 132.276 81.4266C131.985 81.4254 131.697 81.3592 131.432 81.2325C131.16 81.1029 130.925 80.8987 130.753 80.6413C130.575 80.3774 130.486 80.0428 130.486 79.6411V72.7523ZM135.595 77.1701V81.3359H134.58V72.103H135.595V75.4935H135.681C135.836 75.1353 136.068 74.8515 136.377 74.6411C136.69 74.428 137.106 74.321 137.625 74.321C138.075 74.321 138.469 74.4162 138.807 74.6049C139.15 74.7962 139.426 75.0982 139.594 75.4663C139.783 75.8508 139.878 76.3413 139.878 76.9353V81.3359H138.863V77.0078C138.863 76.4583 138.727 76.033 138.455 75.732C138.185 75.4291 137.811 75.2768 137.332 75.2768C137.021 75.2713 136.714 75.3474 136.438 75.498C136.177 75.6449 135.971 75.8607 135.819 76.1418C135.67 76.4248 135.595 76.7675 135.595 77.1701Z" fill="#6D7079"/>
<path d="M289.809 59H62.1908C52.1443 59 44 67.0589 44 77C44 86.9411 52.1443 95 62.1908 95H289.809C299.856 95 308 86.9411 308 77C308 67.0589 299.856 59 289.809 59Z" stroke="#E8EAED"/>
<g filter="url(#filter1_i_270_19513)">
<path d="M62.9437 126.5H294.056C304.267 126.5 312.5 134.359 312.5 144C312.5 153.641 304.267 161.5 294.056 161.5H62.9437C52.7331 161.5 44.5 153.641 44.5 144C44.5 134.359 52.7331 126.5 62.9437 126.5Z" fill="white" stroke="black"/>
<mask id="path-11-inside-1_270_19513" fill="white">
<path d="M80 140.843H81.3034L84.3693 148.167H84.4756L87.5414 140.843H88.8457V149.666H87.8241V142.962H87.7355L84.916 149.666H83.9298L81.1103 142.962H81.0216V149.666H80V140.843ZM93.7325 149.803C93.0803 149.803 92.5185 149.663 92.0454 149.381C91.5738 149.095 91.1961 148.682 90.9573 148.192C90.7047 147.681 90.578 147.087 90.578 146.408C90.578 145.731 90.7038 145.134 90.9564 144.617C91.2124 144.097 91.5678 143.692 92.0232 143.402C92.4813 143.109 93.0156 142.962 93.627 142.962C93.9788 142.962 94.327 143.02 94.6708 143.135C95.0137 143.25 95.3265 143.436 95.6083 143.695C95.8909 143.95 96.1151 144.289 96.2826 144.712C96.4509 145.134 96.5342 145.654 96.5342 146.271V146.702H91.3179V145.823H95.4771C95.4771 145.449 95.4009 145.116 95.2485 144.824C95.1054 144.538 94.8823 144.297 94.6052 144.13C94.3288 143.961 94.0027 143.876 93.627 143.876C93.2132 143.876 92.8552 143.976 92.5522 144.177C92.2561 144.372 92.0177 144.639 91.8611 144.953C91.6994 145.271 91.6163 145.622 91.6183 145.978V146.563C91.6183 147.063 91.7069 147.487 91.8832 147.835C92.0622 148.179 92.3103 148.442 92.6275 148.623C92.9447 148.801 93.3133 148.89 93.7333 148.89C94.0063 148.89 94.2526 148.853 94.4732 148.778C94.6886 148.705 94.8854 148.588 95.0501 148.433C95.2166 148.27 95.3446 148.073 95.4249 147.856L96.4288 148.132C96.3248 148.462 96.1423 148.763 95.8963 149.01C95.6464 149.261 95.338 149.456 94.9712 149.596C94.6035 149.735 94.1906 149.803 93.7325 149.803ZM98.115 149.666V143.049H99.1198V144.048H99.1907C99.3139 143.721 99.5363 143.455 99.8597 143.251C100.185 143.046 100.565 142.94 100.952 142.945C101.028 142.945 101.124 142.947 101.238 142.949C101.354 142.953 101.44 142.957 101.499 142.962V143.996C101.419 143.98 101.338 143.968 101.256 143.958C101.127 143.937 100.996 143.927 100.865 143.928C100.535 143.928 100.242 143.995 99.9829 144.13C99.7295 144.257 99.5174 144.45 99.371 144.688C99.2245 144.927 99.1494 145.201 99.1544 145.479V149.666H98.115ZM105.275 149.803C104.639 149.803 104.093 149.657 103.635 149.364C103.173 149.066 102.807 148.647 102.578 148.154C102.331 147.64 102.208 147.052 102.208 146.392C102.208 145.72 102.334 145.127 102.586 144.612C102.82 144.12 103.19 143.701 103.653 143.402C104.111 143.109 104.645 142.962 105.257 142.962C105.732 142.962 106.161 143.049 106.542 143.221C106.924 143.393 107.237 143.635 107.481 143.945C107.727 144.261 107.884 144.636 107.935 145.031H106.895C106.807 144.717 106.623 144.437 106.366 144.229C106.096 143.993 105.732 143.876 105.274 143.876C104.894 143.868 104.521 143.977 104.208 144.186C103.906 144.389 103.669 144.679 103.499 145.051C103.33 145.422 103.247 145.857 103.247 146.357C103.247 146.869 103.33 147.314 103.494 147.693C103.662 148.072 103.897 148.366 104.199 148.575C104.505 148.785 104.863 148.89 105.274 148.89C105.544 148.89 105.789 148.844 106.009 148.752C106.23 148.66 106.417 148.529 106.569 148.356C106.721 148.184 106.83 147.977 106.895 147.736H107.935C107.88 148.117 107.73 148.48 107.499 148.791C107.261 149.108 106.948 149.362 106.587 149.532C106.211 149.713 105.774 149.803 105.275 149.803ZM113.719 146.96V143.049H114.758V149.666H113.719V148.545H113.648C113.482 148.89 113.227 149.185 112.908 149.403C112.573 149.635 112.15 149.751 111.639 149.751C111.217 149.751 110.841 149.661 110.511 149.48C110.183 149.296 109.925 149.021 109.736 148.653C109.548 148.283 109.454 147.816 109.454 147.253V143.049H110.494V147.184C110.494 147.667 110.632 148.051 110.908 148.339C111.187 148.626 111.543 148.77 111.974 148.77C112.249 148.766 112.519 148.699 112.763 148.575C113.033 148.446 113.259 148.248 113.442 147.981C113.626 147.714 113.719 147.374 113.719 146.96ZM116.662 149.666V143.049H117.667V144.048H117.737C117.86 143.721 118.084 143.455 118.407 143.251C118.733 143.046 119.113 142.94 119.5 142.945C119.576 142.945 119.672 142.947 119.786 142.949C119.9 142.953 119.987 142.957 120.045 142.962V143.996C119.965 143.98 119.885 143.968 119.804 143.958C119.674 143.937 119.543 143.927 119.411 143.928C119.082 143.928 118.789 143.995 118.53 144.13C118.277 144.257 118.065 144.45 117.918 144.688C117.772 144.927 117.697 145.201 117.702 145.479V149.666H116.662ZM126.283 138V152.508H125.401V138H126.283Z"/>
</mask>
<path d="M80 140.843H81.3034L84.3693 148.167H84.4756L87.5414 140.843H88.8457V149.666H87.8241V142.962H87.7355L84.916 149.666H83.9298L81.1103 142.962H81.0216V149.666H80V140.843ZM93.7325 149.803C93.0803 149.803 92.5185 149.663 92.0454 149.381C91.5738 149.095 91.1961 148.682 90.9573 148.192C90.7047 147.681 90.578 147.087 90.578 146.408C90.578 145.731 90.7038 145.134 90.9564 144.617C91.2124 144.097 91.5678 143.692 92.0232 143.402C92.4813 143.109 93.0156 142.962 93.627 142.962C93.9788 142.962 94.327 143.02 94.6708 143.135C95.0137 143.25 95.3265 143.436 95.6083 143.695C95.8909 143.95 96.1151 144.289 96.2826 144.712C96.4509 145.134 96.5342 145.654 96.5342 146.271V146.702H91.3179V145.823H95.4771C95.4771 145.449 95.4009 145.116 95.2485 144.824C95.1054 144.538 94.8823 144.297 94.6052 144.13C94.3288 143.961 94.0027 143.876 93.627 143.876C93.2132 143.876 92.8552 143.976 92.5522 144.177C92.2561 144.372 92.0177 144.639 91.8611 144.953C91.6994 145.271 91.6163 145.622 91.6183 145.978V146.563C91.6183 147.063 91.7069 147.487 91.8832 147.835C92.0622 148.179 92.3103 148.442 92.6275 148.623C92.9447 148.801 93.3133 148.89 93.7333 148.89C94.0063 148.89 94.2526 148.853 94.4732 148.778C94.6886 148.705 94.8854 148.588 95.0501 148.433C95.2166 148.27 95.3446 148.073 95.4249 147.856L96.4288 148.132C96.3248 148.462 96.1423 148.763 95.8963 149.01C95.6464 149.261 95.338 149.456 94.9712 149.596C94.6035 149.735 94.1906 149.803 93.7325 149.803ZM98.115 149.666V143.049H99.1198V144.048H99.1907C99.3139 143.721 99.5363 143.455 99.8597 143.251C100.185 143.046 100.565 142.94 100.952 142.945C101.028 142.945 101.124 142.947 101.238 142.949C101.354 142.953 101.44 142.957 101.499 142.962V143.996C101.419 143.98 101.338 143.968 101.256 143.958C101.127 143.937 100.996 143.927 100.865 143.928C100.535 143.928 100.242 143.995 99.9829 144.13C99.7295 144.257 99.5174 144.45 99.371 144.688C99.2245 144.927 99.1494 145.201 99.1544 145.479V149.666H98.115ZM105.275 149.803C104.639 149.803 104.093 149.657 103.635 149.364C103.173 149.066 102.807 148.647 102.578 148.154C102.331 147.64 102.208 147.052 102.208 146.392C102.208 145.72 102.334 145.127 102.586 144.612C102.82 144.12 103.19 143.701 103.653 143.402C104.111 143.109 104.645 142.962 105.257 142.962C105.732 142.962 106.161 143.049 106.542 143.221C106.924 143.393 107.237 143.635 107.481 143.945C107.727 144.261 107.884 144.636 107.935 145.031H106.895C106.807 144.717 106.623 144.437 106.366 144.229C106.096 143.993 105.732 143.876 105.274 143.876C104.894 143.868 104.521 143.977 104.208 144.186C103.906 144.389 103.669 144.679 103.499 145.051C103.33 145.422 103.247 145.857 103.247 146.357C103.247 146.869 103.33 147.314 103.494 147.693C103.662 148.072 103.897 148.366 104.199 148.575C104.505 148.785 104.863 148.89 105.274 148.89C105.544 148.89 105.789 148.844 106.009 148.752C106.23 148.66 106.417 148.529 106.569 148.356C106.721 148.184 106.83 147.977 106.895 147.736H107.935C107.88 148.117 107.73 148.48 107.499 148.791C107.261 149.108 106.948 149.362 106.587 149.532C106.211 149.713 105.774 149.803 105.275 149.803ZM113.719 146.96V143.049H114.758V149.666H113.719V148.545H113.648C113.482 148.89 113.227 149.185 112.908 149.403C112.573 149.635 112.15 149.751 111.639 149.751C111.217 149.751 110.841 149.661 110.511 149.48C110.183 149.296 109.925 149.021 109.736 148.653C109.548 148.283 109.454 147.816 109.454 147.253V143.049H110.494V147.184C110.494 147.667 110.632 148.051 110.908 148.339C111.187 148.626 111.543 148.77 111.974 148.77C112.249 148.766 112.519 148.699 112.763 148.575C113.033 148.446 113.259 148.248 113.442 147.981C113.626 147.714 113.719 147.374 113.719 146.96ZM116.662 149.666V143.049H117.667V144.048H117.737C117.86 143.721 118.084 143.455 118.407 143.251C118.733 143.046 119.113 142.94 119.5 142.945C119.576 142.945 119.672 142.947 119.786 142.949C119.9 142.953 119.987 142.957 120.045 142.962V143.996C119.965 143.98 119.885 143.968 119.804 143.958C119.674 143.937 119.543 143.927 119.411 143.928C119.082 143.928 118.789 143.995 118.53 144.13C118.277 144.257 118.065 144.45 117.918 144.688C117.772 144.927 117.697 145.201 117.702 145.479V149.666H116.662ZM126.283 138V152.508H125.401V138H126.283Z" fill="#0E0E11" stroke="black" stroke-width="2" mask="url(#path-11-inside-1_270_19513)"/>
<path d="M292.602 127H62.3975C52.2369 127 44 134.835 44 144.5C44 154.165 52.2369 162 62.3975 162H292.602C302.763 162 311 154.165 311 144.5C311 134.835 302.763 127 292.602 127Z" stroke="black"/>
<path d="M66.6311 149.511C66.761 149.71 66.7053 149.976 66.5066 150.106C65.6132 150.69 64.5744 150.999 63.5026 151C63.5018 151 63.5008 151 63.5 151C62.037 151 60.6619 150.436 59.6274 149.413C58.5922 148.388 58.0144 147.018 58.0003 145.554C57.9861 144.081 58.5469 142.692 59.5794 141.643C60.6121 140.593 61.9914 140.01 63.4632 140C63.4753 140 63.4877 140 63.4998 140C64.6485 140 65.7517 140.355 66.6926 141.029C67.6224 141.695 68.3151 142.612 68.6958 143.68C68.7754 143.904 68.6588 144.149 68.4353 144.229C68.2117 144.309 67.966 144.192 67.8863 143.968C67.2224 142.106 65.4619 140.859 63.4993 140.859C63.489 140.859 63.4791 140.859 63.4689 140.859C62.2271 140.868 61.0634 141.36 60.192 142.245C59.3209 143.131 58.8477 144.303 58.8596 145.546C58.884 148.08 60.9655 150.141 63.5001 150.141H63.5022C64.4066 150.14 65.283 149.88 66.0363 149.387C66.2349 149.257 66.5012 149.313 66.6311 149.511ZM69 145.951C69 147.029 68.123 147.906 67.0449 147.906C66.3561 147.906 65.7493 147.548 65.401 147.008C64.9558 147.568 64.2692 147.928 63.5 147.928C62.1613 147.928 61.0723 146.839 61.0723 145.5C61.0723 144.161 62.1613 143.072 63.5 143.072C64.1075 143.072 64.6636 143.297 65.0898 143.667V143.591C65.0898 143.353 65.2822 143.161 65.5195 143.161C65.7569 143.161 65.9492 143.353 65.9492 143.591V145.951C65.9492 146.555 66.4408 147.047 67.0449 147.047C67.6491 147.047 68.1406 146.555 68.1406 145.951C68.1406 145.714 68.333 145.521 68.5703 145.521C68.8076 145.521 69 145.714 69 145.951ZM65.0684 145.5C65.0684 144.635 64.3648 143.932 63.5 143.932C62.6353 143.932 61.9316 144.635 61.9316 145.5C61.9316 146.365 62.6353 147.068 63.5 147.068C64.3648 147.068 65.0684 146.365 65.0684 145.5Z" fill="black"/>
</g>
</g>
<path d="M45.1186 116V105.818H51.5021V107.141H46.6548V110.243H51.169V111.56H46.6548V114.678H51.5618V116H45.1186ZM57.9341 110.263V111.555H53.4199V110.263H57.9341ZM60.0346 105.818H61.899L65.1404 113.733H65.2598L68.5012 105.818H70.3656V116H68.9039V108.632H68.8095L65.8066 115.985H64.5936L61.5907 108.627H61.4963V116H60.0346V105.818ZM74.7021 116.169C74.2182 116.169 73.7807 116.08 73.3896 115.901C72.9985 115.718 72.6886 115.455 72.4599 115.11C72.2345 114.765 72.1218 114.343 72.1218 113.842C72.1218 113.411 72.2047 113.057 72.3704 112.778C72.5361 112.5 72.7598 112.28 73.0415 112.117C73.3233 111.955 73.6381 111.832 73.9862 111.749C74.3342 111.666 74.6888 111.603 75.0501 111.56C75.5075 111.507 75.8787 111.464 76.1637 111.431C76.4487 111.395 76.6559 111.337 76.7852 111.257C76.9144 111.178 76.979 111.048 76.979 110.869V110.835C76.979 110.4 76.8564 110.064 76.6112 109.825C76.3692 109.587 76.0079 109.467 75.5273 109.467C75.0269 109.467 74.6325 109.578 74.3441 109.8C74.0591 110.019 73.8619 110.263 73.7525 110.531L72.3555 110.213C72.5212 109.749 72.7631 109.375 73.0813 109.089C73.4028 108.801 73.7724 108.592 74.19 108.463C74.6076 108.33 75.0468 108.264 75.5075 108.264C75.8124 108.264 76.1355 108.301 76.4769 108.374C76.8216 108.443 77.1431 108.572 77.4414 108.761C77.743 108.95 77.9899 109.22 78.1822 109.572C78.3744 109.92 78.4705 110.372 78.4705 110.929V116H77.0188V114.956H76.9592C76.863 115.148 76.7189 115.337 76.5266 115.523C76.3344 115.708 76.0875 115.862 75.7859 115.985C75.4843 116.108 75.123 116.169 74.7021 116.169ZM75.0252 114.976C75.4362 114.976 75.7875 114.895 76.0792 114.732C76.3742 114.57 76.5979 114.358 76.7504 114.096C76.9061 113.831 76.984 113.547 76.984 113.246V112.261C76.931 112.314 76.8282 112.364 76.6758 112.411C76.5266 112.454 76.3559 112.492 76.1637 112.525C75.9715 112.555 75.7842 112.583 75.6019 112.609C75.4196 112.633 75.2672 112.652 75.1445 112.669C74.8562 112.705 74.5927 112.767 74.354 112.853C74.1187 112.939 73.9298 113.063 73.7873 113.226C73.6481 113.385 73.5785 113.597 73.5785 113.862C73.5785 114.23 73.7144 114.509 73.9862 114.697C74.2579 114.883 74.6043 114.976 75.0252 114.976ZM80.4505 116V108.364H81.937V116H80.4505ZM81.2012 107.185C80.9426 107.185 80.7206 107.099 80.535 106.927C80.3527 106.751 80.2615 106.542 80.2615 106.3C80.2615 106.055 80.3527 105.846 80.535 105.674C80.7206 105.498 80.9426 105.411 81.2012 105.411C81.4597 105.411 81.6801 105.498 81.8624 105.674C82.048 105.846 82.1408 106.055 82.1408 106.3C82.1408 106.542 82.048 106.751 81.8624 106.927C81.6801 107.099 81.4597 107.185 81.2012 107.185ZM85.4233 105.818V116H83.9368V105.818H85.4233Z" fill="black"/>
</g>
</g>
</g>
<rect x="16.5" y="8.5" width="300" height="214" rx="11.5" stroke="#E4E4E7"/>
</g>
<defs>
<filter id="filter0_dd_270_19513" x="0" y="0" width="333" height="247" filterUnits="userSpaceOnUse" color-interpolation-filters="sRGB">
<feFlood flood-opacity="0" result="BackgroundImageFix"/>
<feColorMatrix in="SourceAlpha" type="matrix" values="0 0 0 0 0 0 0 0 0 0 0 0 0 0 0 0 0 0 127 0" result="hardAlpha"/>
<feOffset dy="8"/>
<feGaussianBlur stdDeviation="8"/>
<feColorMatrix type="matrix" values="0 0 0 0 0 0 0 0 0 0 0 0 0 0 0 0 0 0 0.08 0"/>
<feBlend mode="normal" in2="BackgroundImageFix" result="effect1_dropShadow_270_19513"/>
<feColorMatrix in="SourceAlpha" type="matrix" values="0 0 0 0 0 0 0 0 0 0 0 0 0 0 0 0 0 0 127 0" result="hardAlpha"/>
<feOffset/>
<feGaussianBlur stdDeviation="2"/>
<feColorMatrix type="matrix" values="0 0 0 0 0 0 0 0 0 0 0 0 0 0 0 0 0 0 0.04 0"/>
<feBlend mode="normal" in2="effect1_dropShadow_270_19513" result="effect2_dropShadow_270_19513"/>
<feBlend mode="normal" in="SourceGraphic" in2="effect2_dropShadow_270_19513" result="shape"/>
</filter>
<filter id="filter1_i_270_19513" x="43.5" y="126" width="269.5" height="36.5" filterUnits="userSpaceOnUse" color-interpolation-filters="sRGB">
<feFlood flood-opacity="0" result="BackgroundImageFix"/>
<feBlend mode="normal" in="SourceGraphic" in2="BackgroundImageFix" result="shape"/>
<feColorMatrix in="SourceAlpha" type="matrix" values="0 0 0 0 0 0 0 0 0 0 0 0 0 0 0 0 0 0 127 0" result="hardAlpha"/>
<feOffset/>
<feGaussianBlur stdDeviation="2"/>
<feComposite in2="hardAlpha" operator="arithmetic" k2="-1" k3="1"/>
<feColorMatrix type="matrix" values="0 0 0 0 0.9424 0 0 0 0 0.94608 0 0 0 0 0.9976 0 0 0 1 0"/>
<feBlend mode="normal" in2="shape" result="effect1_innerShadow_270_19513"/>
</filter>
<clipPath id="clip0_270_19513">
<rect x="16" y="8" width="301" height="215" rx="12" fill="white"/>
</clipPath>
<clipPath id="clip1_270_19513">
<rect x="16" y="8" width="301" height="215" rx="6" fill="white"/>
</clipPath>
<clipPath id="clip2_270_19513">
<rect width="301" height="214" fill="white" transform="translate(16 8)"/>
</clipPath>
</defs>
</svg>
