<svg width="32" height="32" viewBox="0 0 32 32" fill="none" xmlns="http://www.w3.org/2000/svg">
<g clip-path="url(#clip0_79_4227)">
<rect width="32" height="32" rx="8" fill="#18181B"/>
<g filter="url(#filter0_ii_79_4227)">
<g filter="url(#filter1_ii_79_4227)">
<path fill-rule="evenodd" clip-rule="evenodd" d="M22.9765 21.5629C22.972 22.4836 22.4466 22.9859 21.5065 22.9949C20.7849 23.0019 20.0638 23.0002 19.3426 22.9985C19.0269 22.9978 18.7113 22.9971 18.3956 22.9971C18.3956 22.989 18.1716 22.9894 17.8251 22.9901C17.0157 22.9915 15.5376 22.9941 14.6821 22.8931C11.5544 22.5239 9.27956 20.0537 9.03699 16.9C8.87043 14.7364 9.23373 12.7238 10.7976 11.0792C11.8998 9.918 13.2468 9.22662 14.8352 9.07C16.5735 8.89771 18.2838 8.99057 19.8242 9.95715C21.8273 11.2124 22.8926 13.0426 22.9653 15.392C23.0148 16.9885 23.0009 18.5871 22.987 20.1856C22.983 20.6447 22.979 21.1038 22.9765 21.5629ZM12.3836 16.8264C12.4075 18.7566 14.2745 20.5176 16.2554 20.4793V20.4804C18.3024 20.4409 20.1227 18.5378 19.9906 16.5953C19.9371 15.8128 19.5589 15.4092 18.8207 15.8027C17.0836 16.7272 15.3977 16.7362 13.6207 15.9008C12.7675 15.4994 12.3722 15.8624 12.3836 16.8264Z" fill="white"/>
</g>
</g>
</g>
<defs>
<filter id="filter0_ii_79_4227" x="9" y="9" width="14" height="20" filterUnits="userSpaceOnUse" color-interpolation-filters="sRGB">
<feFlood flood-opacity="0" result="BackgroundImageFix"/>
<feBlend mode="normal" in="SourceGraphic" in2="BackgroundImageFix" result="shape"/>
<feColorMatrix in="SourceAlpha" type="matrix" values="0 0 0 0 0 0 0 0 0 0 0 0 0 0 0 0 0 0 127 0" result="hardAlpha"/>
<feOffset dy="1"/>
<feGaussianBlur stdDeviation="0.5"/>
<feComposite in2="hardAlpha" operator="arithmetic" k2="-1" k3="1"/>
<feColorMatrix type="matrix" values="0 0 0 0 1 0 0 0 0 1 0 0 0 0 1 0 0 0 0.32 0"/>
<feBlend mode="normal" in2="shape" result="effect1_innerShadow_79_4227"/>
<feColorMatrix in="SourceAlpha" type="matrix" values="0 0 0 0 0 0 0 0 0 0 0 0 0 0 0 0 0 0 127 0" result="hardAlpha"/>
<feOffset dy="6"/>
<feGaussianBlur stdDeviation="6"/>
<feComposite in2="hardAlpha" operator="arithmetic" k2="-1" k3="1"/>
<feColorMatrix type="matrix" values="0 0 0 0 1 0 0 0 0 1 0 0 0 0 1 0 0 0 0.2 0"/>
<feBlend mode="normal" in2="effect1_innerShadow_79_4227" result="effect2_innerShadow_79_4227"/>
</filter>
<filter id="filter1_ii_79_4227" x="9" y="9" width="14" height="20" filterUnits="userSpaceOnUse" color-interpolation-filters="sRGB">
<feFlood flood-opacity="0" result="BackgroundImageFix"/>
<feBlend mode="normal" in="SourceGraphic" in2="BackgroundImageFix" result="shape"/>
<feColorMatrix in="SourceAlpha" type="matrix" values="0 0 0 0 0 0 0 0 0 0 0 0 0 0 0 0 0 0 127 0" result="hardAlpha"/>
<feOffset dy="1"/>
<feGaussianBlur stdDeviation="0.5"/>
<feComposite in2="hardAlpha" operator="arithmetic" k2="-1" k3="1"/>
<feColorMatrix type="matrix" values="0 0 0 0 1 0 0 0 0 1 0 0 0 0 1 0 0 0 0.32 0"/>
<feBlend mode="normal" in2="shape" result="effect1_innerShadow_79_4227"/>
<feColorMatrix in="SourceAlpha" type="matrix" values="0 0 0 0 0 0 0 0 0 0 0 0 0 0 0 0 0 0 127 0" result="hardAlpha"/>
<feOffset dy="6"/>
<feGaussianBlur stdDeviation="6"/>
<feComposite in2="hardAlpha" operator="arithmetic" k2="-1" k3="1"/>
<feColorMatrix type="matrix" values="0 0 0 0 1 0 0 0 0 1 0 0 0 0 1 0 0 0 0.2 0"/>
<feBlend mode="normal" in2="effect1_innerShadow_79_4227" result="effect2_innerShadow_79_4227"/>
</filter>
<clipPath id="clip0_79_4227">
<rect width="32" height="32" rx="6" fill="white"/>
</clipPath>
</defs>
</svg>
