<svg width="15" height="17" viewBox="0 0 15 17" fill="none" xmlns="http://www.w3.org/2000/svg">
<path d="M2.58659 3.30514C3.07295 3.70943 3.2554 3.67858 4.16865 3.61624L12.7786 3.08724C12.9611 3.08724 12.8092 2.90084 12.7484 2.86986L11.3184 1.81213C11.0445 1.59448 10.6794 1.34521 9.97986 1.40757L1.64291 2.02976C1.33888 2.06061 1.27814 2.21616 1.39924 2.34085L2.58659 3.30514ZM3.10352 5.35827V14.6279C3.10352 15.126 3.34681 15.3124 3.89442 15.2816L13.3566 14.7214C13.9045 14.6905 13.9655 14.3478 13.9655 13.9432V4.73581C13.9655 4.33177 13.8137 4.11387 13.4783 4.14497L3.59013 4.73581C3.22523 4.76718 3.10352 4.95395 3.10352 5.35827ZM12.4446 5.85551C12.5053 6.13576 12.4446 6.41574 12.1702 6.44724L11.7143 6.54018V13.3835C11.3184 13.6012 10.9535 13.7257 10.6493 13.7257C10.1623 13.7257 10.0403 13.5701 9.67557 13.1037L6.6934 8.3133V12.9482L7.63706 13.166C7.63706 13.166 7.63706 13.7257 6.87573 13.7257L4.77686 13.8503C4.71589 13.7257 4.77686 13.4149 4.98975 13.3526L5.53746 13.1973V7.06918L4.77699 7.00683C4.716 6.72658 4.8679 6.32254 5.29415 6.29117L7.54578 6.13588L10.6493 10.9886V6.69572L9.85802 6.60279C9.79728 6.2602 10.0403 6.01143 10.3446 5.98058L12.4446 5.85551ZM0.942925 1.18992L9.6147 0.536488C10.6797 0.443031 10.9536 0.505633 11.6229 1.00313L14.391 2.99391C14.8478 3.33625 15 3.42945 15 3.80264V14.7214C15 15.4056 14.7564 15.8103 13.9046 15.8722L3.83418 16.4945C3.1948 16.5257 2.8905 16.4324 2.55567 15.9966L0.517168 13.2904C0.151896 12.7922 0 12.4195 0 11.9835V2.27826C0 1.71866 0.243677 1.25189 0.942925 1.18992Z" fill="#0F172A"/>
</svg>
