<svg width="36" height="36" viewBox="0 0 36 36" fill="none" xmlns="http://www.w3.org/2000/svg">
<rect width="36" height="36" rx="5" fill="#171717"/>
<path d="M11.9315 12.1558C12.4827 12.6106 12.6895 12.5759 13.7245 12.5058L23.4824 11.9106C23.6892 11.9106 23.5171 11.7009 23.4482 11.6661L21.8276 10.4761C21.5171 10.2313 21.1033 9.95086 20.3105 10.021L10.862 10.721C10.5174 10.7557 10.4486 10.9307 10.5858 11.071L11.9315 12.1558ZM12.5173 14.4655V24.8938C12.5173 25.4542 12.7931 25.664 13.4137 25.6293L24.1375 24.999C24.7584 24.9644 24.8276 24.5788 24.8276 24.1236V13.7653C24.8276 13.3107 24.6555 13.0656 24.2754 13.1006L13.0688 13.7653C12.6553 13.8006 12.5173 14.0107 12.5173 14.4655ZM23.1039 15.0249C23.1727 15.3402 23.1039 15.6552 22.7929 15.6906L22.2762 15.7952V23.494C21.8276 23.7389 21.4139 23.8789 21.0692 23.8789C20.5173 23.8789 20.3791 23.7038 19.9656 23.1792L16.5859 17.79V23.0042L17.6553 23.2493C17.6553 23.2493 17.6553 23.8789 16.7925 23.8789L14.4138 24.019C14.3447 23.8789 14.4138 23.5293 14.655 23.4592L15.2758 23.2845V16.3903L14.4139 16.3202C14.3448 16.0049 14.517 15.5504 15 15.5151L17.5519 15.3404L21.0692 20.7997V15.9702L20.1724 15.8656C20.1036 15.4802 20.3791 15.2004 20.7239 15.1657L23.1039 15.0249ZM10.0686 9.77616L19.8967 9.04105C21.1036 8.93591 21.4141 9.00634 22.1727 9.56603L25.3098 11.8056C25.8275 12.1908 26 12.2956 26 12.7155V24.999C26 25.7688 25.7239 26.2241 24.7586 26.2937L13.3454 26.9938C12.6208 27.0289 12.2759 26.924 11.8964 26.4337L9.58612 23.3892C9.17215 22.8288 9 22.4094 9 21.9189V11.0005C9 10.371 9.27617 9.84588 10.0686 9.77616Z" fill="white"/>
</svg>
