<svg width="28" height="27" viewBox="0 0 28 27" fill="none" xmlns="http://www.w3.org/2000/svg">
<g clip-path="url(#clip0_791_9584)">
<path d="M7.75066 21.2115C7.5842 21.3366 7.4108 21.4478 7.23047 21.5486L7.25821 26.5136L8.30206 26.5066L8.27431 21.5416C8.09398 21.4443 7.91712 21.3332 7.75066 21.2115Z" fill="black"/>
<path d="M12.5158 12.7826C12.3528 11.6881 11.8222 10.684 11.0003 9.93004C10.0917 9.09269 8.91263 8.63754 7.67805 8.64449C6.44347 8.65144 5.27131 9.12396 4.37312 9.96826C3.56163 10.7361 3.04144 11.7437 2.89232 12.8382C1.13755 13.6199 -0.0103336 15.3815 7.01353e-05 17.3237C0.0174097 20.0094 2.20914 22.181 4.88984 22.1671C5.71521 22.1636 6.51976 21.9482 7.23069 21.5486L7.21681 19.4188L4.86556 18.1992L5.34761 17.2716L7.20988 18.2375L7.1856 13.8562L8.22945 13.8492L8.23985 15.9096L10.0917 14.9194L10.5842 15.8436L8.24679 17.0909L8.27106 21.5417C8.98546 21.9308 9.79348 22.1358 10.6188 22.1323C13.2996 22.115 15.467 19.9191 15.4531 17.2333C15.4427 15.2911 14.2706 13.5435 12.5089 12.786L12.5158 12.7826Z" fill="black"/>
<path d="M20.6447 3.99915H8.16016V26.5831H20.6447V3.99915Z" fill="white"/>
<path d="M24.5509 21.1316C27.6825 21.3783 29.6384 22.8029 26.1323 24.7729C25.5948 25.0752 20.4727 27.0035 20.1536 27.0035L7.99161 26.6908V6.53545L6.47266 3.31463C6.82985 2.78304 9.37877 0 9.60766 0H23.6701L24.5475 0.879037V21.1282L24.5509 21.1316ZM19.2797 4.11028H8.14766C7.99161 4.54111 8.73374 4.81212 8.73374 4.98932V25.8256C10.107 25.9055 9.77065 26.0272 9.9059 24.957C10.0411 23.8869 9.5279 18.2895 10.2423 18.1853L12.8363 18.1923L12.8294 25.8291H18.6901V4.98932C18.6901 4.86424 19.571 4.32222 19.2762 4.11028H19.2797Z" fill="black"/>
<path d="M16.3141 5.85791H14.4727V7.47006H16.3141V5.85791Z" fill="black"/>
<path d="M16.6618 9.42969H14.8203V11.0418H16.6618V9.42969Z" fill="black"/>
<path d="M16.7477 12.4663H14.9062V14.0785H16.7477V12.4663Z" fill="black"/>
<path d="M11.8063 5.85791H9.96484V7.47006H11.8063V5.85791Z" fill="black"/>
<path d="M12.154 9.42969H10.3125V11.0418H12.154V9.42969Z" fill="black"/>
<path d="M12.2399 12.4663H10.3984V14.0785H12.2399V12.4663Z" fill="black"/>
<path d="M12.2399 15.5934H10.3984V17.2055H12.2399V15.5934Z" fill="black"/>
<path d="M16.7477 15.5934H14.9062V17.2055H16.7477V15.5934Z" fill="black"/>
<path d="M15.8168 18.7133L15.5847 18.7254C15.141 18.7486 14.8 19.1277 14.8231 19.5723C14.8462 20.0169 15.2246 20.3585 15.6684 20.3354L15.9004 20.3233C16.3442 20.3002 16.6852 19.921 16.6621 19.4764C16.639 19.0318 16.2605 18.6902 15.8168 18.7133Z" fill="black"/>
<path d="M16.7882 21.7962L14.9492 21.8921L15.0329 23.5021L16.8718 23.4061L16.7882 21.7962Z" fill="black"/>
</g>
<defs>
<clipPath id="clip0_791_9584">
<rect width="28" height="27" fill="white"/>
</clipPath>
</defs>
</svg>
