<svg width="18" height="19" viewBox="0 0 18 19" fill="none" xmlns="http://www.w3.org/2000/svg">
<path d="M11.9474 12.8677H17M14.4737 10.3413V15.394M16.1579 7.81495V6.13074C16.1576 5.83539 16.0796 5.54531 15.9318 5.28961C15.784 5.03391 15.5716 4.82157 15.3158 4.6739L9.42105 1.30548C9.16502 1.15765 8.87459 1.07983 8.57895 1.07983C8.28331 1.07983 7.99287 1.15765 7.73684 1.30548L1.84211 4.6739C1.58633 4.82157 1.37388 5.03391 1.22607 5.28961C1.07827 5.54531 1.0003 5.83539 1 6.13074V12.8676C1.0003 13.1629 1.07827 13.453 1.22607 13.7087C1.37388 13.9644 1.58633 14.1767 1.84211 14.3244L7.73684 17.6928C7.99287 17.8407 8.28331 17.9185 8.57895 17.9185C8.87459 17.9185 9.16502 17.8407 9.42105 17.6928L11.1053 16.7328M4.78947 2.98978L12.3684 7.32663M1.24424 5.28872L8.57898 9.49924M8.57898 9.49924L15.9137 5.28872M8.57898 9.49924L8.57895 17.9203" stroke="#020617" stroke-width="1.33" stroke-linecap="round" stroke-linejoin="round"/>
</svg>
