<svg width="50" height="46" viewBox="0 0 50 46" fill="none" xmlns="http://www.w3.org/2000/svg">
<g clip-path="url(#clip0_275_9021)">
<path d="M19.711 34.2196C19.6812 34.1897 19.3941 33.6516 19.3712 33.5827C18.719 31.5339 20.687 30.3106 20.6043 28.4503C20.4528 25.0702 14.9942 25.33 15.4443 29.0114C15.6073 30.3428 17.6511 34.1276 15.0378 34.3714C12.7827 34.5806 10.2084 34.2081 7.9166 34.3645C7.55607 34.2955 7.43206 33.946 7.39532 33.6218C7.09219 30.9889 7.65022 27.7835 7.4022 25.107C7.36317 24.6839 7.28738 24.2309 6.85106 24.0515C5.58803 23.5273 4.40997 24.946 3.09182 24.9483C-1.23005 24.9575 -0.961365 18.5168 3.54192 19.0848C4.63042 19.2228 6.25859 20.8117 7.03707 19.6895C7.76274 18.641 7.26442 14.0261 7.39532 12.4601C7.45962 11.6714 7.58822 11.5473 8.3713 11.4829C10.3347 11.3219 14.0044 11.3104 15.9587 11.4829C18.4664 11.7036 16.3468 14.2836 16.1562 15.5989C15.8301 17.8454 17.0311 19.3653 19.3712 18.933C20.749 18.6778 21.4104 16.8934 21.1233 15.6242C20.9419 14.8286 18.2758 11.9175 20.5423 11.7105L36.2246 11.6622C39.0262 10.4964 35.7837 5.86079 38.7782 4.90653C40.7233 4.28799 42.5145 5.15947 42.3032 7.40371C42.1815 8.69828 40.62 11.5979 43.1621 11.8347C45.0406 12.0095 47.2957 11.6117 49.1397 11.8278C49.6954 11.8922 50.01 12.2256 50.0031 12.8028L49.9733 33.7091C49.8768 34.0563 49.6036 34.307 49.2453 34.3599L42.0759 34.422C41.3824 34.8358 42.5329 36.8317 42.6201 37.4434C42.9853 39.959 41.7245 41.4858 39.1502 41.2627C37.3453 41.1064 36.2682 39.5428 36.4795 37.786C36.5828 36.9283 37.7517 34.7002 36.367 34.3898L20.3104 34.3714C20.1244 34.3576 19.8488 34.3553 19.7133 34.2219L19.711 34.2196ZM49.3073 12.5199H43.0496C43.0082 12.5199 42.3721 12.3061 42.2757 12.2601C41.0769 11.7105 40.946 10.1653 41.1619 9.0202C41.3525 8.01535 42.1172 7.24275 41.5224 6.11603C40.9989 5.12498 38.8976 5.12268 38.2799 5.93667C37.5634 6.87944 38.172 8.2499 38.1743 9.25015C38.1743 10.4688 37.5496 12.1244 36.1626 12.2946C34.0568 12.5498 31.347 12.0118 29.2664 12.2877C28.8898 12.3383 28.8003 12.4234 28.7497 12.8051C28.6005 13.9387 28.8209 15.454 28.8738 16.5991C28.9564 18.3375 28.5132 20.5219 31.1059 20.338C32.3138 20.2529 33.2278 19.8436 34.523 20.1402C37.258 20.768 37.3866 24.3965 34.7457 25.3622C32.7203 26.1026 31.804 24.9759 30.1873 25.1668C29.8888 25.2013 29.3284 25.4956 29.3284 25.8014V33.6769H36.2751C36.5874 33.6769 37.2855 34.1368 37.4624 34.4426C38.2891 35.8568 36.4979 37.5745 37.3774 39.4715C38.1582 41.1524 41.1918 41.1156 41.8669 39.3933C42.611 37.4963 41.0792 36.3075 41.2652 34.6519C41.3273 34.1092 41.8462 33.6769 42.3583 33.6769H49.2476L49.4198 33.5045V12.8074C49.4198 12.7683 49.2683 12.6326 49.305 12.5199H49.3073Z" fill="black"/>
<path d="M25.2909 0.0091977C25.9156 1.15891 26.8732 3.41465 26.2646 4.67473C26.1176 4.98055 25.7433 4.94836 25.6721 4.62184C25.6377 4.46548 25.7893 3.72277 25.7732 3.37556C25.7594 3.09503 25.6859 2.65584 25.6239 2.37761C25.5275 1.95911 24.5905 0.15866 24.8615 0L25.2932 0.0091977H25.2909Z" fill="black"/>
<path d="M27.7196 41.32C27.8068 41.0096 28.2753 40.9452 28.3809 41.3338C28.0066 42.9043 28.6496 44.3277 29.3294 45.6935C29.3432 45.9626 28.9596 46.0637 28.7713 45.9557C28.629 45.8752 27.7196 43.6264 27.7196 43.3895C27.7196 42.925 27.6254 41.6534 27.7196 41.32Z" fill="black"/>
<path d="M28.2132 4.6218C28.3165 4.49763 28.6289 4.33667 28.8103 4.12973C29.3867 3.47439 30.11 2.68569 30.5004 1.91078C30.6474 1.62105 30.4729 1.17956 31.0516 1.30373C31.6624 1.74982 30.172 3.52268 29.8437 3.89978C29.6783 4.09064 28.5554 5.23115 28.4451 5.26104C28.0203 5.37602 27.9813 4.90463 28.2132 4.6218Z" fill="black"/>
<path d="M25.8344 41.3394C25.7379 41.4957 25.3774 41.6889 25.2442 41.8384C24.6884 42.4638 24.1235 43.1168 23.678 43.832C23.4484 44.2022 23.2601 45.2714 22.8008 44.3355C22.8559 43.6917 25.0742 40.8542 25.6139 40.7093C26.0801 40.5829 26.025 41.0336 25.8344 41.3417V41.3394Z" fill="black"/>
<path d="M22.9645 2.17977C23.1482 2.12458 23.3664 2.16597 23.4606 2.35683C23.596 3.19382 24.4962 4.08599 24.6845 4.81491C24.742 5.04255 24.7787 5.12073 24.5605 5.2771C24.3676 5.31389 24.2827 5.22881 24.1564 5.10924C23.9658 4.92528 22.8796 2.80981 22.829 2.52238C22.8015 2.36602 22.7785 2.23726 22.9645 2.17977Z" fill="black"/>
<path d="M31.1639 43.7924L30.6472 43.6774C30.4566 42.8289 29.6184 41.9115 29.3796 41.1503C29.2877 40.8583 29.3635 40.6491 29.7125 40.7112C29.9835 40.7594 31.4532 43.505 31.1639 43.7947V43.7924Z" fill="black"/>
</g>
<defs>
<clipPath id="clip0_275_9021">
<rect width="50" height="46" fill="white"/>
</clipPath>
</defs>
</svg>
