<svg width="278" height="153" viewBox="0 0 278 153" fill="none" xmlns="http://www.w3.org/2000/svg">
<g filter="url(#filter0_dd_270_19496)">
<rect x="3" y="2" width="400" height="205" rx="12" fill="white"/>
<rect x="3.5" y="2.5" width="399" height="204" rx="11.5" stroke="#E4E4E7"/>
<path d="M27 67.98H41V53.98H27V67.98ZM55.0047 58.5418V67H53.4725V60.0327H53.423L51.4447 61.2965V59.8923L53.5469 58.5418H55.0047ZM56.9995 65.4306V64.2123L60.5885 58.5418H61.6044V60.2764H60.9849L58.5689 64.1049V64.171H63.5786V65.4306H56.9995ZM61.0345 67V65.0589L61.051 64.5138V58.5418H62.4965V67H61.0345ZM68.7885 67H67.7147L70.8205 58.5418H71.8777L74.9835 67H73.9097L71.3821 59.8799H71.3161L68.7885 67ZM69.185 63.696H73.5132V64.6046H69.185V63.696ZM78.7459 67.1322C78.1512 67.1322 77.639 66.9917 77.2095 66.7109C76.78 66.4301 76.4496 66.0432 76.2183 65.5504C75.9871 65.0575 75.8714 64.4945 75.8714 63.8612C75.8714 63.2169 75.9898 62.6484 76.2266 62.1555C76.4661 61.6599 76.7993 61.2731 77.226 60.995C77.6556 60.7142 78.1567 60.5738 78.7294 60.5738C79.1754 60.5738 79.5774 60.6564 79.9353 60.8216C80.2932 60.9868 80.5865 61.218 80.815 61.5154C81.0435 61.8128 81.1853 62.1597 81.2404 62.5562H80.2657C80.1914 62.2671 80.0262 62.011 79.7701 61.788C79.5168 61.5622 79.1754 61.4493 78.7459 61.4493C78.3659 61.4493 78.0328 61.5484 77.7464 61.7467C77.4628 61.9422 77.2412 62.2189 77.0815 62.5768C76.9246 62.932 76.8461 63.3491 76.8461 63.8282C76.8461 64.3183 76.9232 64.745 77.0774 65.1085C77.2343 65.4719 77.4546 65.7541 77.7382 65.9551C78.0245 66.1561 78.3604 66.2566 78.7459 66.2566C78.9992 66.2566 79.2291 66.2126 79.4356 66.1244C79.6421 66.0363 79.8169 65.9097 79.9601 65.7445C80.1033 65.5793 80.2051 65.3811 80.2657 65.1498H81.2404C81.1853 65.5242 81.049 65.8615 80.8315 66.1616C80.6168 66.459 80.3318 66.6958 79.9766 66.872C79.6242 67.0454 79.2139 67.1322 78.7459 67.1322ZM85.424 60.6564V61.4824H82.1366V60.6564H85.424ZM83.0947 59.1365H84.0694V65.1828C84.0694 65.4581 84.1093 65.6646 84.1892 65.8023C84.2718 65.9372 84.3764 66.0281 84.5031 66.0749C84.6325 66.1189 84.7688 66.141 84.9119 66.141C85.0193 66.141 85.1074 66.1355 85.1762 66.1244C85.2451 66.1107 85.3001 66.0997 85.3414 66.0914L85.5397 66.967C85.4736 66.9917 85.3814 67.0165 85.263 67.0413C85.1446 67.0688 84.9945 67.0826 84.8128 67.0826C84.5375 67.0826 84.2676 67.0234 84.0033 66.905C83.7418 66.7866 83.5243 66.6063 83.3508 66.364C83.1801 66.1217 83.0947 65.8161 83.0947 65.4471V59.1365ZM86.8902 67V60.6564H87.8649V67H86.8902ZM87.3858 59.5991C87.1958 59.5991 87.032 59.5344 86.8943 59.405C86.7594 59.2756 86.6919 59.12 86.6919 58.9383C86.6919 58.7566 86.7594 58.601 86.8943 58.4716C87.032 58.3422 87.1958 58.2775 87.3858 58.2775C87.5758 58.2775 87.7382 58.3422 87.8731 58.4716C88.0108 58.601 88.0796 58.7566 88.0796 58.9383C88.0796 59.12 88.0108 59.2756 87.8731 59.405C87.7382 59.5344 87.5758 59.5991 87.3858 59.5991ZM94.8373 60.6564L92.4915 67H91.5003L89.1544 60.6564H90.2117L91.9628 65.7114H92.0289L93.78 60.6564H94.8373ZM98.5563 67.1322C97.9451 67.1322 97.4178 66.9972 96.9745 66.7274C96.534 66.4548 96.194 66.0749 95.9544 65.5875C95.7176 65.0975 95.5993 64.5275 95.5993 63.8777C95.5993 63.228 95.7176 62.6553 95.9544 62.1597C96.194 61.6613 96.5271 61.2731 96.9539 60.995C97.3834 60.7142 97.8845 60.5738 98.4572 60.5738C98.7876 60.5738 99.1139 60.6288 99.436 60.739C99.7581 60.8491 100.051 61.0281 100.316 61.2759C100.58 61.5209 100.791 61.8458 100.948 62.2505C101.105 62.6553 101.183 63.1536 101.183 63.7456V64.1586H96.2931V63.3161H100.192C100.192 62.9581 100.12 62.6387 99.977 62.3579C99.8366 62.0771 99.6356 61.8554 99.374 61.693C99.1152 61.5305 98.8096 61.4493 98.4572 61.4493C98.069 61.4493 97.7331 61.5457 97.4495 61.7384C97.1686 61.9284 96.9525 62.1762 96.8011 62.4818C96.6496 62.7874 96.5739 63.1151 96.5739 63.4647V64.0264C96.5739 64.5055 96.6565 64.9116 96.8217 65.2448C96.9897 65.5752 97.2223 65.8271 97.5197 66.0005C97.8171 66.1713 98.1626 66.2566 98.5563 66.2566C98.8124 66.2566 99.0437 66.2208 99.2502 66.1492C99.4594 66.0749 99.6397 65.9648 99.7912 65.8188C99.9426 65.6701 100.06 65.4857 100.142 65.2654L101.084 65.5297C100.985 65.8491 100.818 66.13 100.584 66.3722C100.35 66.6118 100.061 66.799 99.7168 66.9339C99.3727 67.0661 98.9858 67.1322 98.5563 67.1322ZM111.124 60.6564L108.778 67H107.787L105.441 60.6564H106.498L108.249 65.7114H108.315L110.067 60.6564H111.124ZM112.41 67V60.6564H113.385V67H112.41ZM112.906 59.5991C112.716 59.5991 112.552 59.5344 112.414 59.405C112.28 59.2756 112.212 59.12 112.212 58.9383C112.212 58.7566 112.28 58.601 112.414 58.4716C112.552 58.3422 112.716 58.2775 112.906 58.2775C113.096 58.2775 113.258 58.3422 113.393 58.4716C113.531 58.601 113.6 58.7566 113.6 58.9383C113.6 59.12 113.531 59.2756 113.393 59.405C113.258 59.5344 113.096 59.5991 112.906 59.5991ZM119.664 62.0771L118.788 62.3249C118.733 62.1789 118.652 62.0372 118.544 61.8995C118.44 61.7591 118.297 61.6434 118.115 61.5526C117.933 61.4617 117.7 61.4163 117.417 61.4163C117.029 61.4163 116.705 61.5058 116.446 61.6847C116.19 61.8609 116.062 62.0853 116.062 62.3579C116.062 62.6002 116.15 62.7916 116.327 62.932C116.503 63.0724 116.778 63.1894 117.153 63.283L118.094 63.5143C118.661 63.652 119.084 63.8626 119.362 64.1462C119.64 64.427 119.779 64.7891 119.779 65.2324C119.779 65.5958 119.675 65.9207 119.465 66.207C119.259 66.4934 118.97 66.7192 118.598 66.8844C118.226 67.0496 117.794 67.1322 117.301 67.1322C116.654 67.1322 116.119 66.9917 115.695 66.7109C115.271 66.4301 115.002 66.0198 114.889 65.4802L115.814 65.2489C115.903 65.5903 116.069 65.8464 116.314 66.0171C116.562 66.1878 116.885 66.2731 117.285 66.2731C117.739 66.2731 118.1 66.1768 118.367 65.984C118.637 65.7885 118.771 65.5545 118.771 65.2819C118.771 65.0617 118.694 64.8772 118.54 64.7285C118.386 64.5771 118.149 64.4642 117.83 64.3899L116.773 64.1421C116.192 64.0044 115.765 63.791 115.492 63.5019C115.222 63.2101 115.088 62.8452 115.088 62.4075C115.088 62.0495 115.188 61.7329 115.389 61.4576C115.593 61.1822 115.869 60.9661 116.219 60.8092C116.572 60.6522 116.971 60.5738 117.417 60.5738C118.045 60.5738 118.537 60.7114 118.895 60.9868C119.256 61.2621 119.512 61.6255 119.664 62.0771ZM121.246 67V60.6564H122.221V67H121.246ZM121.742 59.5991C121.552 59.5991 121.388 59.5344 121.251 59.405C121.116 59.2756 121.048 59.12 121.048 58.9383C121.048 58.7566 121.116 58.601 121.251 58.4716C121.388 58.3422 121.552 58.2775 121.742 58.2775C121.932 58.2775 122.094 58.3422 122.229 58.4716C122.367 58.601 122.436 58.7566 122.436 58.9383C122.436 59.12 122.367 59.2756 122.229 59.405C122.094 59.5344 121.932 59.5991 121.742 59.5991ZM126.765 60.6564V61.4824H123.478V60.6564H126.765ZM124.436 59.1365H125.41V65.1828C125.41 65.4581 125.45 65.6646 125.53 65.8023C125.613 65.9372 125.717 66.0281 125.844 66.0749C125.973 66.1189 126.11 66.141 126.253 66.141C126.36 66.141 126.448 66.1355 126.517 66.1244C126.586 66.1107 126.641 66.0997 126.682 66.0914L126.881 66.967C126.815 66.9917 126.722 67.0165 126.604 67.0413C126.486 67.0688 126.336 67.0826 126.154 67.0826C125.878 67.0826 125.609 67.0234 125.344 66.905C125.083 66.7866 124.865 66.6063 124.692 66.364C124.521 66.1217 124.436 65.8161 124.436 65.4471V59.1365ZM130.74 67.1322C130.167 67.1322 129.665 66.9959 129.233 66.7233C128.803 66.4507 128.467 66.0694 128.225 65.5793C127.985 65.0892 127.866 64.5165 127.866 63.8612C127.866 63.2004 127.985 62.6236 128.225 62.1308C128.467 61.6379 128.803 61.2552 129.233 60.9826C129.665 60.7101 130.167 60.5738 130.74 60.5738C131.313 60.5738 131.814 60.7101 132.243 60.9826C132.676 61.2552 133.012 61.6379 133.251 62.1308C133.493 62.6236 133.615 63.2004 133.615 63.8612C133.615 64.5165 133.493 65.0892 133.251 65.5793C133.012 66.0694 132.676 66.4507 132.243 66.7233C131.814 66.9959 131.313 67.1322 130.74 67.1322ZM130.74 66.2566C131.175 66.2566 131.533 66.1451 131.814 65.9221C132.095 65.6991 132.303 65.4058 132.438 65.0424C132.572 64.679 132.64 64.2852 132.64 63.8612C132.64 63.4372 132.572 63.0421 132.438 62.6759C132.303 62.3097 132.095 62.0137 131.814 61.788C131.533 61.5622 131.175 61.4493 130.74 61.4493C130.305 61.4493 129.947 61.5622 129.666 61.788C129.386 62.0137 129.178 62.3097 129.043 62.6759C128.908 63.0421 128.84 63.4372 128.84 63.8612C128.84 64.2852 128.908 64.679 129.043 65.0424C129.178 65.4058 129.386 65.6991 129.666 65.9221C129.947 66.1451 130.305 66.2566 130.74 66.2566ZM135.102 67V60.6564H136.044V61.6145H136.11C136.226 61.3006 136.435 61.046 136.738 60.8505C137.041 60.655 137.382 60.5572 137.762 60.5572C137.834 60.5572 137.923 60.5586 138.031 60.5614C138.138 60.5641 138.219 60.5683 138.274 60.5738V61.565C138.241 61.5567 138.166 61.5443 138.047 61.5278C137.931 61.5085 137.809 61.4989 137.68 61.4989C137.371 61.4989 137.096 61.5636 136.854 61.693C136.614 61.8196 136.424 61.9959 136.284 62.2216C136.146 62.4446 136.077 62.6993 136.077 62.9857V67H135.102ZM143.923 62.0771L143.047 62.3249C142.992 62.1789 142.911 62.0372 142.804 61.8995C142.699 61.7591 142.556 61.6434 142.374 61.5526C142.193 61.4617 141.96 61.4163 141.676 61.4163C141.288 61.4163 140.965 61.5058 140.706 61.6847C140.45 61.8609 140.322 62.0853 140.322 62.3579C140.322 62.6002 140.41 62.7916 140.586 62.932C140.762 63.0724 141.038 63.1894 141.412 63.283L142.354 63.5143C142.921 63.652 143.343 63.8626 143.622 64.1462C143.9 64.427 144.039 64.7891 144.039 65.2324C144.039 65.5958 143.934 65.9207 143.725 66.207C143.518 66.4934 143.229 66.7192 142.857 66.8844C142.486 67.0496 142.054 67.1322 141.561 67.1322C140.914 67.1322 140.378 66.9917 139.954 66.7109C139.53 66.4301 139.262 66.0198 139.149 65.4802L140.074 65.2489C140.162 65.5903 140.329 65.8464 140.574 66.0171C140.821 66.1878 141.145 66.2731 141.544 66.2731C141.998 66.2731 142.359 66.1768 142.626 65.984C142.896 65.7885 143.031 65.5545 143.031 65.2819C143.031 65.0617 142.954 64.8772 142.8 64.7285C142.645 64.5771 142.409 64.4642 142.089 64.3899L141.032 64.1421C140.451 64.0044 140.024 63.791 139.752 63.5019C139.482 63.2101 139.347 62.8452 139.347 62.4075C139.347 62.0495 139.448 61.7329 139.648 61.4576C139.852 61.1822 140.129 60.9661 140.479 60.8092C140.831 60.6522 141.23 60.5738 141.676 60.5738C142.304 60.5738 142.797 60.7114 143.155 60.9868C143.516 61.2621 143.772 61.6255 143.923 62.0771ZM148.777 67V60.6564H149.751V67H148.777ZM149.272 59.5991C149.082 59.5991 148.919 59.5344 148.781 59.405C148.646 59.2756 148.579 59.12 148.579 58.9383C148.579 58.7566 148.646 58.601 148.781 58.4716C148.919 58.3422 149.082 58.2775 149.272 58.2775C149.462 58.2775 149.625 58.3422 149.76 58.4716C149.897 58.601 149.966 58.7566 149.966 58.9383C149.966 59.12 149.897 59.2756 149.76 59.405C149.625 59.5344 149.462 59.5991 149.272 59.5991ZM152.511 63.1839V67H151.537V60.6564H152.478V61.6476H152.561C152.71 61.3254 152.935 61.0666 153.238 60.8711C153.541 60.6729 153.932 60.5738 154.411 60.5738C154.841 60.5738 155.216 60.6619 155.539 60.8381C155.861 61.0115 156.111 61.2759 156.29 61.631C156.469 61.9835 156.559 62.4295 156.559 62.9691V67H155.584V63.0352C155.584 62.5369 155.455 62.1487 155.196 61.8706C154.937 61.5897 154.582 61.4493 154.13 61.4493C153.819 61.4493 153.541 61.5168 153.296 61.6517C153.054 61.7866 152.862 61.9835 152.722 62.2423C152.582 62.5011 152.511 62.815 152.511 63.1839ZM167.525 61.185C167.434 60.9069 167.314 60.6577 167.165 60.4375C167.02 60.2145 166.845 60.0245 166.641 59.8675C166.44 59.7106 166.211 59.5908 165.955 59.5082C165.699 59.4256 165.418 59.3843 165.113 59.3843C164.612 59.3843 164.156 59.5137 163.746 59.7725C163.336 60.0314 163.009 60.4127 162.767 60.9166C162.525 61.4204 162.404 62.0385 162.404 62.7709C162.404 63.5033 162.526 64.1214 162.771 64.6253C163.016 65.1291 163.348 65.5105 163.767 65.7693C164.185 66.0281 164.656 66.1575 165.179 66.1575C165.664 66.1575 166.09 66.0542 166.459 65.8477C166.831 65.6385 167.12 65.3439 167.327 64.9639C167.536 64.5812 167.64 64.131 167.64 63.6134L167.954 63.6795H165.41V62.7709H168.632V63.6795C168.632 64.3761 168.483 64.9818 168.186 65.4967C167.891 66.0116 167.483 66.4108 166.963 66.6944C166.445 66.9752 165.851 67.1156 165.179 67.1156C164.43 67.1156 163.772 66.9394 163.205 66.587C162.64 66.2346 162.2 65.7335 161.883 65.0837C161.569 64.4339 161.412 63.663 161.412 62.7709C161.412 62.1019 161.502 61.5003 161.681 60.9661C161.863 60.4292 162.119 59.9722 162.449 59.595C162.779 59.2178 163.17 58.9287 163.622 58.7277C164.073 58.5267 164.57 58.4262 165.113 58.4262C165.559 58.4262 165.975 58.4936 166.36 58.6285C166.748 58.7607 167.094 58.9493 167.397 59.1944C167.702 59.4366 167.957 59.7271 168.161 60.0658C168.365 60.4017 168.505 60.7748 168.582 61.185H167.525ZM172.913 67.1322C172.302 67.1322 171.775 66.9972 171.332 66.7274C170.891 66.4548 170.551 66.0749 170.311 65.5875C170.075 65.0975 169.956 64.5275 169.956 63.8777C169.956 63.228 170.075 62.6553 170.311 62.1597C170.551 61.6613 170.884 61.2731 171.311 60.995C171.74 60.7142 172.242 60.5738 172.814 60.5738C173.145 60.5738 173.471 60.6288 173.793 60.739C174.115 60.8491 174.408 61.0281 174.673 61.2759C174.937 61.5209 175.148 61.8458 175.305 62.2505C175.462 62.6553 175.54 63.1536 175.54 63.7456V64.1586H170.65V63.3161H174.549C174.549 62.9581 174.477 62.6387 174.334 62.3579C174.194 62.0771 173.993 61.8554 173.731 61.693C173.472 61.5305 173.167 61.4493 172.814 61.4493C172.426 61.4493 172.09 61.5457 171.807 61.7384C171.526 61.9284 171.31 62.1762 171.158 62.4818C171.007 62.7874 170.931 63.1151 170.931 63.4647V64.0264C170.931 64.5055 171.014 64.9116 171.179 65.2448C171.347 65.5752 171.579 65.8271 171.877 66.0005C172.174 66.1713 172.52 66.2566 172.913 66.2566C173.169 66.2566 173.401 66.2208 173.607 66.1492C173.816 66.0749 173.997 65.9648 174.148 65.8188C174.3 65.6701 174.417 65.4857 174.499 65.2654L175.441 65.5297C175.342 65.8491 175.175 66.13 174.941 66.3722C174.707 66.6118 174.418 66.799 174.074 66.9339C173.73 67.0661 173.343 67.1322 172.913 67.1322ZM177.023 67V60.6564H177.964V61.6145H178.03C178.146 61.3006 178.355 61.046 178.658 60.8505C178.961 60.655 179.302 60.5572 179.682 60.5572C179.754 60.5572 179.843 60.5586 179.951 60.5614C180.058 60.5641 180.139 60.5683 180.194 60.5738V61.565C180.161 61.5567 180.086 61.5443 179.967 61.5278C179.852 61.5085 179.729 61.4989 179.6 61.4989C179.291 61.4989 179.016 61.5636 178.774 61.693C178.534 61.8196 178.344 61.9959 178.204 62.2216C178.066 62.4446 177.997 62.6993 177.997 62.9857V67H177.023ZM181.35 67V60.6564H182.291V61.6476H182.374C182.506 61.3089 182.72 61.046 183.014 60.8587C183.309 60.6688 183.663 60.5738 184.076 60.5738C184.494 60.5738 184.842 60.6688 185.121 60.8587C185.401 61.046 185.62 61.3089 185.777 61.6476H185.843C186.006 61.3199 186.249 61.0597 186.574 60.867C186.899 60.6715 187.289 60.5738 187.743 60.5738C188.31 60.5738 188.774 60.7514 189.135 61.1065C189.496 61.459 189.676 62.0082 189.676 62.7544V67H188.701V62.7544C188.701 62.2863 188.573 61.9518 188.317 61.7508C188.061 61.5498 187.76 61.4493 187.413 61.4493C186.967 61.4493 186.621 61.5842 186.376 61.8541C186.131 62.1211 186.008 62.4598 186.008 62.87V67H185.017V62.6553C185.017 62.2946 184.9 62.0041 184.666 61.7838C184.432 61.5608 184.131 61.4493 183.762 61.4493C183.508 61.4493 183.272 61.5168 183.051 61.6517C182.834 61.7866 182.658 61.9738 182.523 62.2134C182.391 62.4501 182.325 62.7241 182.325 63.0352V67H181.35ZM193.325 67.1487C192.923 67.1487 192.558 67.073 192.23 66.9215C191.903 66.7673 191.642 66.5457 191.45 66.2566C191.257 65.9648 191.161 65.6123 191.161 65.1993C191.161 64.8359 191.232 64.5413 191.375 64.3155C191.519 64.087 191.71 63.908 191.949 63.7786C192.189 63.6492 192.453 63.5529 192.742 63.4895C193.034 63.4234 193.327 63.3711 193.622 63.3326C194.008 63.283 194.32 63.2459 194.56 63.2211C194.802 63.1935 194.978 63.1481 195.088 63.0848C195.201 63.0215 195.258 62.9113 195.258 62.7544V62.7213C195.258 62.3139 195.146 61.9972 194.923 61.7715C194.703 61.5457 194.368 61.4328 193.919 61.4328C193.454 61.4328 193.089 61.5347 192.825 61.7384C192.561 61.9422 192.375 62.1597 192.267 62.391L191.342 62.0606C191.508 61.6751 191.728 61.375 192.003 61.1602C192.281 60.9427 192.584 60.7913 192.912 60.7059C193.242 60.6178 193.567 60.5738 193.886 60.5738C194.09 60.5738 194.324 60.5985 194.588 60.6481C194.856 60.6949 195.113 60.7927 195.361 60.9413C195.611 61.09 195.819 61.3144 195.984 61.6145C196.15 61.9146 196.232 62.3166 196.232 62.8205V67H195.258V66.141H195.208C195.142 66.2786 195.032 66.4259 194.878 66.5829C194.723 66.7398 194.518 66.8733 194.262 66.9835C194.006 67.0936 193.694 67.1487 193.325 67.1487ZM193.473 66.2731C193.859 66.2731 194.184 66.1974 194.448 66.046C194.715 65.8945 194.916 65.6991 195.051 65.4595C195.189 65.22 195.258 64.9681 195.258 64.7037V63.8117C195.216 63.8612 195.125 63.9067 194.985 63.948C194.847 63.9865 194.688 64.0209 194.506 64.0512C194.327 64.0787 194.152 64.1035 193.981 64.1255C193.813 64.1448 193.677 64.1613 193.573 64.1751C193.319 64.2081 193.082 64.2618 192.862 64.3362C192.645 64.4078 192.468 64.5165 192.334 64.6624C192.201 64.8056 192.135 65.0011 192.135 65.2489C192.135 65.5875 192.261 65.8436 192.511 66.0171C192.764 66.1878 193.085 66.2731 193.473 66.2731ZM198.986 63.1839V67H198.011V60.6564H198.953V61.6476H199.035C199.184 61.3254 199.41 61.0666 199.713 60.8711C200.016 60.6729 200.407 60.5738 200.886 60.5738C201.315 60.5738 201.691 60.6619 202.013 60.8381C202.335 61.0115 202.586 61.2759 202.765 61.631C202.944 61.9835 203.033 62.4295 203.033 62.9691V67H202.059V63.0352C202.059 62.5369 201.929 62.1487 201.67 61.8706C201.412 61.5897 201.056 61.4493 200.605 61.4493C200.294 61.4493 200.016 61.5168 199.771 61.6517C199.528 61.7866 199.337 61.9835 199.197 62.2423C199.056 62.5011 198.986 62.815 198.986 63.1839ZM205.215 69.3789C205.05 69.3789 204.902 69.3651 204.773 69.3376C204.644 69.3128 204.554 69.288 204.505 69.2632L204.752 68.4042C204.989 68.4648 205.198 68.4868 205.38 68.4703C205.562 68.4538 205.723 68.3725 205.863 68.2266C206.006 68.0834 206.137 67.8508 206.256 67.5286L206.437 67.033L204.092 60.6564H205.149L206.9 65.7114H206.966L208.717 60.6564H209.774L207.082 67.9251C206.96 68.2528 206.81 68.524 206.631 68.7387C206.453 68.9562 206.245 69.1173 206.008 69.2219C205.774 69.3266 205.51 69.3789 205.215 69.3789Z" fill="#616161"/>
<path d="M27 99.98H41V85.98H27V99.98ZM54.6619 99.1156C54.2572 99.1129 53.8621 99.0427 53.4766 98.905C53.0912 98.7646 52.7443 98.5374 52.4359 98.2236C52.1275 97.9069 51.8825 97.4871 51.7008 96.9639C51.519 96.438 51.4296 95.7869 51.4323 95.0104C51.4323 94.2863 51.5094 93.6407 51.6636 93.0735C51.8178 92.5063 52.0394 92.0272 52.3285 91.6363C52.6176 91.2425 52.9659 90.9424 53.3734 90.7359C53.7836 90.5294 54.2421 90.4262 54.7487 90.4262C55.2801 90.4262 55.7509 90.5308 56.1611 90.7401C56.5741 90.9493 56.9073 91.2357 57.1606 91.5991C57.4139 91.9598 57.5708 92.3673 57.6314 92.8216H56.124C56.0469 92.4967 55.8885 92.2379 55.649 92.0451C55.4122 91.8496 55.1121 91.7519 54.7487 91.7519C54.1622 91.7519 53.7107 92.0066 53.394 92.5159C53.0802 93.0253 52.9219 93.7246 52.9191 94.614H52.9769C53.1118 94.3717 53.2867 94.1638 53.5014 93.9903C53.7162 93.8169 53.9585 93.6833 54.2283 93.5897C54.5009 93.4934 54.7886 93.4452 55.0915 93.4452C55.5871 93.4452 56.0317 93.5636 56.4254 93.8004C56.8219 94.0372 57.1358 94.3634 57.3671 94.7792C57.5984 95.1922 57.7126 95.6657 57.7099 96.1999C57.7126 96.756 57.586 97.2558 57.3299 97.6991C57.0738 98.1396 56.7173 98.4865 56.2602 98.7398C55.8032 98.9931 55.2704 99.1184 54.6619 99.1156ZM54.6537 97.8766C54.9538 97.8766 55.2222 97.8037 55.459 97.6578C55.6958 97.5118 55.883 97.315 56.0207 97.0672C56.1584 96.8194 56.2258 96.5413 56.2231 96.2329C56.2258 95.9301 56.1597 95.6561 56.0248 95.4111C55.8927 95.166 55.7096 94.9719 55.4756 94.8287C55.2415 94.6856 54.9744 94.614 54.6743 94.614C54.4513 94.614 54.2434 94.6566 54.0507 94.742C53.858 94.8274 53.69 94.9457 53.5469 95.0972C53.4037 95.2459 53.2908 95.4193 53.2082 95.6176C53.1284 95.813 53.0871 96.0223 53.0843 96.2453C53.0871 96.5399 53.1559 96.8111 53.2908 97.0589C53.4257 97.3067 53.6116 97.505 53.8483 97.6536C54.0851 97.8023 54.3536 97.8766 54.6537 97.8766ZM62.0463 99.1156C61.4957 99.1156 61.0028 99.0124 60.5678 98.8059C60.1328 98.5966 59.7872 98.3103 59.5312 97.9469C59.2779 97.5834 59.143 97.1677 59.1264 96.6996H60.6132C60.6408 97.0465 60.7908 97.3301 61.0634 97.5504C61.336 97.7679 61.6636 97.8766 62.0463 97.8766C62.3464 97.8766 62.6135 97.8078 62.8476 97.6701C63.0816 97.5325 63.2661 97.3411 63.401 97.0961C63.5359 96.851 63.602 96.5716 63.5992 96.2577C63.602 95.9383 63.5345 95.6547 63.3968 95.4069C63.2592 95.1591 63.0706 94.965 62.831 94.8246C62.5915 94.6814 62.3162 94.6098 62.005 94.6098C61.7517 94.6071 61.5026 94.6539 61.2575 94.7503C61.0125 94.8466 60.8184 94.9733 60.6752 95.1302L59.2916 94.9031L59.7336 90.5418H64.64V91.8221H61.0015L60.7578 94.0647H60.8073C60.9643 93.8802 61.1859 93.7274 61.4723 93.6063C61.7586 93.4824 62.0725 93.4204 62.4139 93.4204C62.926 93.4204 63.3831 93.5416 63.7851 93.7838C64.187 94.0234 64.5037 94.3538 64.7349 94.775C64.9662 95.1963 65.0819 95.6781 65.0819 96.2205C65.0819 96.7795 64.9525 97.2778 64.6936 97.7156C64.4376 98.1506 64.081 98.4934 63.624 98.7439C63.1697 98.9917 62.6438 99.1156 62.0463 99.1156ZM69.9057 90.5418V99H68.3735V92.0327H68.3239L66.3456 93.2965V91.8923L68.4478 90.5418H69.9057ZM75.9437 99H74.8699L77.9756 90.5418H79.0329L82.1386 99H81.0649L78.5373 91.8799H78.4712L75.9437 99ZM76.3402 95.696H80.6684V96.6046H76.3402V95.696ZM85.9011 99.1322C85.3063 99.1322 84.7942 98.9917 84.3647 98.7109C83.9352 98.4301 83.6048 98.0432 83.3735 97.5504C83.1422 97.0575 83.0266 96.4945 83.0266 95.8612C83.0266 95.2169 83.145 94.6484 83.3818 94.1555C83.6213 93.6599 83.9545 93.2731 84.3812 92.995C84.8107 92.7142 85.3118 92.5738 85.8845 92.5738C86.3306 92.5738 86.7326 92.6564 87.0905 92.8216C87.4484 92.9868 87.7416 93.218 87.9702 93.5154C88.1987 93.8128 88.3405 94.1597 88.3956 94.5562H87.4209C87.3465 94.2671 87.1813 94.011 86.9253 93.788C86.672 93.5622 86.3306 93.4493 85.9011 93.4493C85.5211 93.4493 85.1879 93.5484 84.9016 93.7467C84.618 93.9422 84.3964 94.2189 84.2367 94.5768C84.0797 94.932 84.0013 95.3491 84.0013 95.8282C84.0013 96.3183 84.0784 96.745 84.2325 97.1085C84.3895 97.4719 84.6097 97.7541 84.8933 97.9551C85.1797 98.1561 85.5156 98.2566 85.9011 98.2566C86.1544 98.2566 86.3843 98.2126 86.5908 98.1244C86.7973 98.0363 86.9721 97.9097 87.1153 97.7445C87.2584 97.5793 87.3603 97.3811 87.4209 97.1498H88.3956C88.3405 97.5242 88.2042 97.8615 87.9867 98.1616C87.7719 98.459 87.487 98.6958 87.1318 98.872C86.7794 99.0454 86.3691 99.1322 85.9011 99.1322ZM92.5792 92.6564V93.4824H89.2918V92.6564H92.5792ZM90.2499 91.1365H91.2246V97.1828C91.2246 97.4581 91.2645 97.6646 91.3444 97.8023C91.427 97.9372 91.5316 98.0281 91.6582 98.0749C91.7876 98.1189 91.9239 98.141 92.0671 98.141C92.1745 98.141 92.2626 98.1355 92.3314 98.1244C92.4003 98.1107 92.4553 98.0997 92.4966 98.0914L92.6949 98.967C92.6288 98.9917 92.5365 99.0165 92.4181 99.0413C92.2998 99.0688 92.1497 99.0826 91.968 99.0826C91.6926 99.0826 91.4228 99.0234 91.1585 98.905C90.8969 98.7866 90.6794 98.6063 90.506 98.364C90.3353 98.1217 90.2499 97.8161 90.2499 97.4471V91.1365ZM94.0454 99V92.6564H95.02V99H94.0454ZM94.541 91.5991C94.351 91.5991 94.1872 91.5344 94.0495 91.405C93.9146 91.2756 93.8471 91.12 93.8471 90.9383C93.8471 90.7566 93.9146 90.601 94.0495 90.4716C94.1872 90.3422 94.351 90.2775 94.541 90.2775C94.7309 90.2775 94.8934 90.3422 95.0283 90.4716C95.166 90.601 95.2348 90.7566 95.2348 90.9383C95.2348 91.12 95.166 91.2756 95.0283 91.405C94.8934 91.5344 94.7309 91.5991 94.541 91.5991ZM101.992 92.6564L99.6466 99H98.6554L96.3096 92.6564H97.3669L99.118 97.7114H99.1841L100.935 92.6564H101.992ZM105.711 99.1322C105.1 99.1322 104.573 98.9972 104.13 98.7274C103.689 98.4548 103.349 98.0749 103.11 97.5875C102.873 97.0975 102.754 96.5275 102.754 95.8777C102.754 95.228 102.873 94.6553 103.11 94.1597C103.349 93.6613 103.682 93.2731 104.109 92.995C104.539 92.7142 105.04 92.5738 105.612 92.5738C105.943 92.5738 106.269 92.6288 106.591 92.739C106.913 92.8491 107.207 93.0281 107.471 93.2759C107.735 93.5209 107.946 93.8458 108.103 94.2505C108.26 94.6553 108.338 95.1536 108.338 95.7456V96.1586H103.448V95.3161H107.347C107.347 94.9581 107.275 94.6387 107.132 94.3579C106.992 94.0771 106.791 93.8554 106.529 93.693C106.27 93.5305 105.965 93.4493 105.612 93.4493C105.224 93.4493 104.888 93.5457 104.605 93.7384C104.324 93.9284 104.108 94.1762 103.956 94.4818C103.805 94.7874 103.729 95.1151 103.729 95.4647V96.0264C103.729 96.5055 103.812 96.9116 103.977 97.2448C104.145 97.5752 104.378 97.8271 104.675 98.0005C104.972 98.1713 105.318 98.2566 105.711 98.2566C105.968 98.2566 106.199 98.2208 106.405 98.1492C106.615 98.0749 106.795 97.9648 106.946 97.8188C107.098 97.6701 107.215 97.4857 107.297 97.2654L108.239 97.5297C108.14 97.8491 107.973 98.13 107.739 98.3722C107.505 98.6118 107.216 98.799 106.872 98.9339C106.528 99.0661 106.141 99.1322 105.711 99.1322ZM118.279 92.6564L115.933 99H114.942L112.596 92.6564H113.653L115.405 97.7114H115.471L117.222 92.6564H118.279ZM119.565 99V92.6564H120.54V99H119.565ZM120.061 91.5991C119.871 91.5991 119.707 91.5344 119.57 91.405C119.435 91.2756 119.367 91.12 119.367 90.9383C119.367 90.7566 119.435 90.601 119.57 90.4716C119.707 90.3422 119.871 90.2775 120.061 90.2775C120.251 90.2775 120.414 90.3422 120.548 90.4716C120.686 90.601 120.755 90.7566 120.755 90.9383C120.755 91.12 120.686 91.2756 120.548 91.405C120.414 91.5344 120.251 91.5991 120.061 91.5991ZM126.819 94.0771L125.943 94.3249C125.888 94.1789 125.807 94.0372 125.7 93.8995C125.595 93.7591 125.452 93.6434 125.27 93.5526C125.088 93.4617 124.856 93.4163 124.572 93.4163C124.184 93.4163 123.86 93.5058 123.601 93.6847C123.345 93.8609 123.217 94.0853 123.217 94.3579C123.217 94.6002 123.306 94.7916 123.482 94.932C123.658 95.0724 123.933 95.1894 124.308 95.283L125.249 95.5143C125.817 95.652 126.239 95.8626 126.517 96.1462C126.795 96.427 126.934 96.7891 126.934 97.2324C126.934 97.5958 126.83 97.9207 126.621 98.207C126.414 98.4934 126.125 98.7192 125.753 98.8844C125.382 99.0496 124.949 99.1322 124.456 99.1322C123.809 99.1322 123.274 98.9917 122.85 98.7109C122.426 98.4301 122.157 98.0198 122.044 97.4802L122.97 97.2489C123.058 97.5903 123.224 97.8464 123.469 98.0171C123.717 98.1878 124.041 98.2731 124.44 98.2731C124.894 98.2731 125.255 98.1768 125.522 97.984C125.792 97.7885 125.927 97.5545 125.927 97.2819C125.927 97.0617 125.85 96.8772 125.695 96.7285C125.541 96.5771 125.304 96.4642 124.985 96.3899L123.928 96.1421C123.347 96.0044 122.92 95.791 122.647 95.5019C122.378 95.2101 122.243 94.8452 122.243 94.4075C122.243 94.0495 122.343 93.7329 122.544 93.4576C122.748 93.1822 123.025 92.9661 123.374 92.8092C123.727 92.6522 124.126 92.5738 124.572 92.5738C125.2 92.5738 125.693 92.7114 126.051 92.9868C126.411 93.2621 126.667 93.6255 126.819 94.0771ZM128.402 99V92.6564H129.376V99H128.402ZM128.897 91.5991C128.707 91.5991 128.543 91.5344 128.406 91.405C128.271 91.2756 128.203 91.12 128.203 90.9383C128.203 90.7566 128.271 90.601 128.406 90.4716C128.543 90.3422 128.707 90.2775 128.897 90.2775C129.087 90.2775 129.25 90.3422 129.384 90.4716C129.522 90.601 129.591 90.7566 129.591 90.9383C129.591 91.12 129.522 91.2756 129.384 91.405C129.25 91.5344 129.087 91.5991 128.897 91.5991ZM133.92 92.6564V93.4824H130.633V92.6564H133.92ZM131.591 91.1365H132.566V97.1828C132.566 97.4581 132.606 97.6646 132.685 97.8023C132.768 97.9372 132.873 98.0281 132.999 98.0749C133.129 98.1189 133.265 98.141 133.408 98.141C133.515 98.141 133.604 98.1355 133.672 98.1244C133.741 98.1107 133.796 98.0997 133.838 98.0914L134.036 98.967C133.97 98.9917 133.878 99.0165 133.759 99.0413C133.641 99.0688 133.491 99.0826 133.309 99.0826C133.034 99.0826 132.764 99.0234 132.5 98.905C132.238 98.7866 132.02 98.6063 131.847 98.364C131.676 98.1217 131.591 97.8161 131.591 97.4471V91.1365ZM137.895 99.1322C137.323 99.1322 136.82 98.9959 136.388 98.7233C135.958 98.4507 135.622 98.0694 135.38 97.5793C135.141 97.0892 135.021 96.5165 135.021 95.8612C135.021 95.2004 135.141 94.6236 135.38 94.1308C135.622 93.6379 135.958 93.2552 136.388 92.9826C136.82 92.7101 137.323 92.5738 137.895 92.5738C138.468 92.5738 138.969 92.7101 139.399 92.9826C139.831 93.2552 140.167 93.6379 140.406 94.1308C140.649 94.6236 140.77 95.2004 140.77 95.8612C140.77 96.5165 140.649 97.0892 140.406 97.5793C140.167 98.0694 139.831 98.4507 139.399 98.7233C138.969 98.9959 138.468 99.1322 137.895 99.1322ZM137.895 98.2566C138.33 98.2566 138.688 98.1451 138.969 97.9221C139.25 97.6991 139.458 97.4058 139.593 97.0424C139.728 96.679 139.795 96.2852 139.795 95.8612C139.795 95.4372 139.728 95.0421 139.593 94.6759C139.458 94.3097 139.25 94.0137 138.969 93.788C138.688 93.5622 138.33 93.4493 137.895 93.4493C137.46 93.4493 137.102 93.5622 136.822 93.788C136.541 94.0137 136.333 94.3097 136.198 94.6759C136.063 95.0421 135.996 95.4372 135.996 95.8612C135.996 96.2852 136.063 96.679 136.198 97.0424C136.333 97.4058 136.541 97.6991 136.822 97.9221C137.102 98.1451 137.46 98.2566 137.895 98.2566ZM142.258 99V92.6564H143.199V93.6145H143.265C143.381 93.3006 143.59 93.046 143.893 92.8505C144.196 92.655 144.537 92.5572 144.917 92.5572C144.989 92.5572 145.078 92.5586 145.186 92.5614C145.293 92.5641 145.374 92.5683 145.429 92.5738V93.565C145.396 93.5567 145.321 93.5443 145.202 93.5278C145.087 93.5085 144.964 93.4989 144.835 93.4989C144.526 93.4989 144.251 93.5636 144.009 93.693C143.769 93.8196 143.579 93.9959 143.439 94.2216C143.301 94.4446 143.232 94.6993 143.232 94.9857V99H142.258ZM151.078 94.0771L150.203 94.3249C150.148 94.1789 150.066 94.0372 149.959 93.8995C149.854 93.7591 149.711 93.6434 149.529 93.5526C149.348 93.4617 149.115 93.4163 148.831 93.4163C148.443 93.4163 148.12 93.5058 147.861 93.6847C147.605 93.8609 147.477 94.0853 147.477 94.3579C147.477 94.6002 147.565 94.7916 147.741 94.932C147.917 95.0724 148.193 95.1894 148.567 95.283L149.509 95.5143C150.076 95.652 150.499 95.8626 150.777 96.1462C151.055 96.427 151.194 96.7891 151.194 97.2324C151.194 97.5958 151.089 97.9207 150.88 98.207C150.673 98.4934 150.384 98.7192 150.013 98.8844C149.641 99.0496 149.209 99.1322 148.716 99.1322C148.069 99.1322 147.533 98.9917 147.109 98.7109C146.685 98.4301 146.417 98.0198 146.304 97.4802L147.229 97.2489C147.317 97.5903 147.484 97.8464 147.729 98.0171C147.977 98.1878 148.3 98.2731 148.699 98.2731C149.154 98.2731 149.514 98.1768 149.781 97.984C150.051 97.7885 150.186 97.5545 150.186 97.2819C150.186 97.0617 150.109 96.8772 149.955 96.7285C149.801 96.5771 149.564 96.4642 149.244 96.3899L148.187 96.1421C147.606 96.0044 147.18 95.791 146.907 95.5019C146.637 95.2101 146.502 94.8452 146.502 94.4075C146.502 94.0495 146.603 93.7329 146.804 93.4576C147.007 93.1822 147.284 92.9661 147.634 92.8092C147.986 92.6522 148.385 92.5738 148.831 92.5738C149.459 92.5738 149.952 92.7114 150.31 92.9868C150.671 93.2621 150.927 93.6255 151.078 94.0771ZM155.932 99V92.6564H156.907V99H155.932ZM156.428 91.5991C156.238 91.5991 156.074 91.5344 155.936 91.405C155.801 91.2756 155.734 91.12 155.734 90.9383C155.734 90.7566 155.801 90.601 155.936 90.4716C156.074 90.3422 156.238 90.2775 156.428 90.2775C156.618 90.2775 156.78 90.3422 156.915 90.4716C157.053 90.601 157.121 90.7566 157.121 90.9383C157.121 91.12 157.053 91.2756 156.915 91.405C156.78 91.5344 156.618 91.5991 156.428 91.5991ZM159.666 95.1839V99H158.692V92.6564H159.633V93.6476H159.716C159.865 93.3254 160.09 93.0666 160.393 92.8711C160.696 92.6729 161.087 92.5738 161.566 92.5738C161.996 92.5738 162.372 92.6619 162.694 92.8381C163.016 93.0115 163.266 93.2759 163.445 93.631C163.624 93.9835 163.714 94.4295 163.714 94.9691V99H162.739V95.0352C162.739 94.5369 162.61 94.1487 162.351 93.8706C162.092 93.5897 161.737 93.4493 161.285 93.4493C160.974 93.4493 160.696 93.5168 160.451 93.6517C160.209 93.7866 160.018 93.9835 159.877 94.2423C159.737 94.5011 159.666 94.815 159.666 95.1839ZM169.922 90.5418V99H168.898V90.5418H169.922ZM174.603 92.6564V93.4824H171.315V92.6564H174.603ZM172.273 91.1365H173.248V97.1828C173.248 97.4581 173.288 97.6646 173.368 97.8023C173.45 97.9372 173.555 98.0281 173.682 98.0749C173.811 98.1189 173.947 98.141 174.09 98.141C174.198 98.141 174.286 98.1355 174.355 98.1244C174.424 98.1107 174.479 98.0997 174.52 98.0914L174.718 98.967C174.652 98.9917 174.56 99.0165 174.441 99.0413C174.323 99.0688 174.173 99.0826 173.991 99.0826C173.716 99.0826 173.446 99.0234 173.182 98.905C172.92 98.7866 172.703 98.6063 172.529 98.364C172.359 98.1217 172.273 97.8161 172.273 97.4471V91.1365ZM177.935 99.1487C177.533 99.1487 177.169 99.073 176.841 98.9215C176.513 98.7673 176.253 98.5457 176.06 98.2566C175.868 97.9648 175.771 97.6123 175.771 97.1993C175.771 96.8359 175.843 96.5413 175.986 96.3155C176.129 96.087 176.321 95.908 176.56 95.7786C176.8 95.6492 177.064 95.5529 177.353 95.4895C177.645 95.4234 177.938 95.3711 178.233 95.3326C178.618 95.283 178.931 95.2459 179.17 95.2211C179.413 95.1935 179.589 95.1481 179.699 95.0848C179.812 95.0215 179.868 94.9113 179.868 94.7544V94.7213C179.868 94.3139 179.757 93.9972 179.534 93.7715C179.313 93.5457 178.979 93.4328 178.53 93.4328C178.065 93.4328 177.7 93.5347 177.436 93.7384C177.171 93.9422 176.986 94.1597 176.878 94.391L175.953 94.0606C176.118 93.6751 176.338 93.375 176.614 93.1602C176.892 92.9427 177.195 92.7913 177.522 92.7059C177.853 92.6178 178.178 92.5738 178.497 92.5738C178.701 92.5738 178.935 92.5985 179.199 92.6481C179.466 92.6949 179.724 92.7927 179.971 92.9413C180.222 93.09 180.43 93.3144 180.595 93.6145C180.76 93.9146 180.843 94.3166 180.843 94.8205V99H179.868V98.141H179.819C179.753 98.2786 179.642 98.4259 179.488 98.5829C179.334 98.7398 179.129 98.8733 178.873 98.9835C178.617 99.0936 178.304 99.1487 177.935 99.1487ZM178.084 98.2731C178.47 98.2731 178.794 98.1974 179.059 98.046C179.326 97.8945 179.527 97.6991 179.662 97.4595C179.799 97.22 179.868 96.9681 179.868 96.7037V95.8117C179.827 95.8612 179.736 95.9067 179.596 95.948C179.458 95.9865 179.298 96.0209 179.117 96.0512C178.938 96.0787 178.763 96.1035 178.592 96.1255C178.424 96.1448 178.288 96.1613 178.183 96.1751C177.93 96.2081 177.693 96.2618 177.473 96.3362C177.255 96.4078 177.079 96.5165 176.944 96.6624C176.812 96.8056 176.746 97.0011 176.746 97.2489C176.746 97.5875 176.871 97.8436 177.122 98.0171C177.375 98.1878 177.696 98.2731 178.084 98.2731ZM183.597 90.5418V99H182.622V90.5418H183.597ZM186.009 101.379C185.844 101.379 185.697 101.365 185.568 101.338C185.438 101.313 185.349 101.288 185.299 101.263L185.547 100.404C185.784 100.465 185.993 100.487 186.175 100.47C186.356 100.454 186.517 100.373 186.658 100.227C186.801 100.083 186.932 99.8508 187.05 99.5286L187.232 99.033L184.886 92.6564H185.943L187.695 97.7114H187.761L189.512 92.6564H190.569L187.876 99.9251C187.755 100.253 187.605 100.524 187.426 100.739C187.247 100.956 187.039 101.117 186.802 101.222C186.568 101.327 186.304 101.379 186.009 101.379Z" fill="#616161"/>
<path d="M27 132.98H41V118.98H27V132.98ZM55.2376 132.116C54.6237 132.116 54.0785 132.012 53.6022 131.806C53.1286 131.599 52.7569 131.317 52.4871 130.959C52.22 130.599 52.0879 130.19 52.0906 129.733C52.0879 129.377 52.1649 129.051 52.3219 128.754C52.4788 128.456 52.6908 128.209 52.9579 128.01C53.2277 127.809 53.5278 127.681 53.8582 127.626V127.569C53.4232 127.472 53.0708 127.251 52.801 126.904C52.5339 126.554 52.4017 126.151 52.4045 125.694C52.4017 125.259 52.5229 124.87 52.7679 124.529C53.013 124.187 53.3489 123.919 53.7756 123.724C54.2024 123.525 54.6897 123.426 55.2376 123.426C55.7801 123.426 56.2633 123.525 56.6873 123.724C57.114 123.919 57.4499 124.187 57.695 124.529C57.9428 124.87 58.0667 125.259 58.0667 125.694C58.0667 126.151 57.9304 126.554 57.6578 126.904C57.388 127.251 57.0397 127.472 56.6129 127.569V127.626C56.9433 127.681 57.2407 127.809 57.505 128.01C57.7721 128.209 57.9841 128.456 58.141 128.754C58.3007 129.051 58.3806 129.377 58.3806 129.733C58.3806 130.19 58.2456 130.599 57.9758 130.959C57.706 131.317 57.3343 131.599 56.8607 131.806C56.3899 132.012 55.8489 132.116 55.2376 132.116ZM55.2376 130.934C55.5543 130.934 55.8296 130.881 56.0636 130.773C56.2977 130.663 56.4794 130.509 56.6088 130.311C56.7382 130.113 56.8043 129.884 56.807 129.625C56.8043 129.355 56.7341 129.117 56.5964 128.911C56.4615 128.702 56.2756 128.538 56.0389 128.419C55.8048 128.301 55.5378 128.242 55.2376 128.242C54.9348 128.242 54.665 128.301 54.4282 128.419C54.1914 128.538 54.0042 128.702 53.8665 128.911C53.7316 129.117 53.6655 129.355 53.6683 129.625C53.6655 129.884 53.7288 130.113 53.8582 130.311C53.9876 130.506 54.1694 130.659 54.4034 130.769C54.6402 130.879 54.9183 130.934 55.2376 130.934ZM55.2376 127.081C55.4965 127.081 55.725 127.029 55.9232 126.924C56.1242 126.82 56.2825 126.674 56.3982 126.486C56.5138 126.299 56.573 126.083 56.5758 125.838C56.573 125.596 56.5152 125.384 56.4023 125.202C56.2894 125.018 56.1325 124.876 55.9315 124.777C55.7305 124.675 55.4992 124.624 55.2376 124.624C54.9706 124.624 54.7352 124.675 54.5314 124.777C54.3304 124.876 54.1735 125.018 54.0606 125.202C53.9505 125.384 53.8968 125.596 53.8995 125.838C53.8968 126.083 53.9519 126.299 54.0647 126.486C54.1804 126.671 54.3387 126.817 54.5397 126.924C54.7434 127.029 54.9761 127.081 55.2376 127.081ZM60.4259 132.091C60.1754 132.091 59.9606 132.003 59.7816 131.827C59.6027 131.65 59.5146 131.436 59.5173 131.182C59.5146 130.934 59.6027 130.722 59.7816 130.546C59.9606 130.37 60.1754 130.282 60.4259 130.282C60.6682 130.282 60.8788 130.37 61.0578 130.546C61.2395 130.722 61.3318 130.934 61.3345 131.182C61.3318 131.35 61.2877 131.503 61.2024 131.641C61.1198 131.778 61.0096 131.888 60.872 131.971C60.737 132.051 60.5884 132.091 60.4259 132.091ZM65.6586 132.161C64.9785 132.161 64.3948 131.989 63.9075 131.645C63.4229 131.298 63.0498 130.798 62.7883 130.146C62.5295 129.49 62.4001 128.702 62.4001 127.779C62.4028 126.857 62.5336 126.072 62.7924 125.425C63.054 124.775 63.427 124.28 63.9116 123.938C64.399 123.597 64.9813 123.426 65.6586 123.426C66.3359 123.426 66.9182 123.597 67.4056 123.938C67.8929 124.28 68.266 124.775 68.5248 125.425C68.7864 126.075 68.9171 126.86 68.9171 127.779C68.9171 128.704 68.7864 129.494 68.5248 130.15C68.266 130.802 67.8929 131.301 67.4056 131.645C66.921 131.989 66.3387 132.161 65.6586 132.161ZM65.6586 130.868C66.1872 130.868 66.6044 130.608 66.91 130.088C67.2184 129.565 67.3725 128.795 67.3725 127.779C67.3725 127.107 67.3023 126.543 67.1619 126.086C67.0215 125.629 66.8233 125.285 66.5672 125.053C66.3111 124.819 66.0083 124.702 65.6586 124.702C65.1327 124.702 64.717 124.964 64.4113 125.487C64.1057 126.007 63.9515 126.771 63.9488 127.779C63.946 128.454 64.0135 129.021 64.1512 129.481C64.2916 129.941 64.4898 130.287 64.7459 130.521C65.0019 130.753 65.3062 130.868 65.6586 130.868ZM73.2299 132.116C72.6792 132.116 72.1864 132.012 71.7513 131.806C71.3163 131.597 70.9708 131.31 70.7147 130.947C70.4614 130.583 70.3265 130.168 70.31 129.7H71.7968C71.8243 130.047 71.9744 130.33 72.2469 130.55C72.5195 130.768 72.8472 130.877 73.2299 130.877C73.53 130.877 73.7971 130.808 74.0311 130.67C74.2651 130.532 74.4496 130.341 74.5845 130.096C74.7194 129.851 74.7855 129.572 74.7827 129.258C74.7855 128.938 74.718 128.655 74.5804 128.407C74.4427 128.159 74.2541 127.965 74.0146 127.825C73.775 127.681 73.4997 127.61 73.1886 127.61C72.9353 127.607 72.6861 127.654 72.441 127.75C72.196 127.847 72.0019 127.973 71.8587 128.13L70.4752 127.903L70.9171 123.542H75.8235V124.822H72.185L71.9413 127.065H71.9909C72.1478 126.88 72.3695 126.727 72.6558 126.606C72.9422 126.482 73.256 126.42 73.5974 126.42C74.1096 126.42 74.5666 126.542 74.9686 126.784C75.3706 127.023 75.6872 127.354 75.9185 127.775C76.1498 128.196 76.2654 128.678 76.2654 129.221C76.2654 129.779 76.136 130.278 75.8772 130.716C75.6211 131.151 75.2646 131.493 74.8075 131.744C74.3532 131.992 73.8273 132.116 73.2299 132.116ZM81.0892 123.542V132H79.557V125.033H79.5074L77.5292 126.297V124.892L79.6313 123.542H81.0892ZM87.1272 132H86.0534L89.1592 123.542H90.2164L93.3222 132H92.2484L89.7208 124.88H89.6548L87.1272 132ZM87.5237 128.696H91.8519V129.605H87.5237V128.696ZM97.0846 132.132C96.4899 132.132 95.9778 131.992 95.5482 131.711C95.1187 131.43 94.7883 131.043 94.557 130.55C94.3258 130.058 94.2101 129.494 94.2101 128.861C94.2101 128.217 94.3285 127.648 94.5653 127.156C94.8048 126.66 95.138 126.273 95.5648 125.995C95.9943 125.714 96.4954 125.574 97.0681 125.574C97.5141 125.574 97.9161 125.656 98.274 125.822C98.6319 125.987 98.9252 126.218 99.1537 126.515C99.3822 126.813 99.524 127.16 99.5791 127.556H98.6044C98.5301 127.267 98.3649 127.011 98.1088 126.788C97.8555 126.562 97.5141 126.449 97.0846 126.449C96.7046 126.449 96.3715 126.548 96.0851 126.747C95.8015 126.942 95.5799 127.219 95.4202 127.577C95.2633 127.932 95.1848 128.349 95.1848 128.828C95.1848 129.318 95.2619 129.745 95.4161 130.108C95.573 130.472 95.7933 130.754 96.0769 130.955C96.3632 131.156 96.6991 131.257 97.0846 131.257C97.3379 131.257 97.5678 131.213 97.7743 131.124C97.9808 131.036 98.1556 130.91 98.2988 130.744C98.442 130.579 98.5438 130.381 98.6044 130.15H99.5791C99.524 130.524 99.3877 130.862 99.1702 131.162C98.9555 131.459 98.6705 131.696 98.3153 131.872C97.9629 132.045 97.5526 132.132 97.0846 132.132ZM103.763 125.656V126.482H100.475V125.656H103.763ZM101.433 124.137H102.408V130.183C102.408 130.458 102.448 130.665 102.528 130.802C102.61 130.937 102.715 131.028 102.842 131.075C102.971 131.119 103.107 131.141 103.251 131.141C103.358 131.141 103.446 131.135 103.515 131.124C103.584 131.111 103.639 131.1 103.68 131.091L103.878 131.967C103.812 131.992 103.72 132.017 103.602 132.041C103.483 132.069 103.333 132.083 103.152 132.083C102.876 132.083 102.606 132.023 102.342 131.905C102.08 131.787 101.863 131.606 101.69 131.364C101.519 131.122 101.433 130.816 101.433 130.447V124.137ZM105.229 132V125.656H106.204V132H105.229ZM105.724 124.599C105.535 124.599 105.371 124.534 105.233 124.405C105.098 124.276 105.031 124.12 105.031 123.938C105.031 123.757 105.098 123.601 105.233 123.472C105.371 123.342 105.535 123.277 105.724 123.277C105.914 123.277 106.077 123.342 106.212 123.472C106.349 123.601 106.418 123.757 106.418 123.938C106.418 124.12 106.349 124.276 106.212 124.405C106.077 124.534 105.914 124.599 105.724 124.599ZM113.176 125.656L110.83 132H109.839L107.493 125.656H108.55L110.302 130.711H110.368L112.119 125.656H113.176ZM116.895 132.132C116.284 132.132 115.757 131.997 115.313 131.727C114.873 131.455 114.533 131.075 114.293 130.588C114.056 130.097 113.938 129.528 113.938 128.878C113.938 128.228 114.056 127.655 114.293 127.16C114.533 126.661 114.866 126.273 115.293 125.995C115.722 125.714 116.223 125.574 116.796 125.574C117.126 125.574 117.453 125.629 117.775 125.739C118.097 125.849 118.39 126.028 118.654 126.276C118.919 126.521 119.129 126.846 119.286 127.251C119.443 127.655 119.522 128.154 119.522 128.746V129.159H114.632V128.316H118.53C118.53 127.958 118.459 127.639 118.316 127.358C118.175 127.077 117.974 126.855 117.713 126.693C117.454 126.531 117.148 126.449 116.796 126.449C116.408 126.449 116.072 126.546 115.788 126.738C115.507 126.928 115.291 127.176 115.14 127.482C114.988 127.787 114.913 128.115 114.913 128.465V129.026C114.913 129.505 114.995 129.912 115.16 130.245C115.328 130.575 115.561 130.827 115.858 131.001C116.156 131.171 116.501 131.257 116.895 131.257C117.151 131.257 117.382 131.221 117.589 131.149C117.798 131.075 117.978 130.965 118.13 130.819C118.281 130.67 118.398 130.486 118.481 130.265L119.423 130.53C119.323 130.849 119.157 131.13 118.923 131.372C118.689 131.612 118.4 131.799 118.056 131.934C117.711 132.066 117.325 132.132 116.895 132.132ZM129.463 125.656L127.117 132H126.126L123.78 125.656H124.837L126.588 130.711H126.654L128.405 125.656H129.463ZM130.749 132V125.656H131.724V132H130.749ZM131.245 124.599C131.055 124.599 130.891 124.534 130.753 124.405C130.618 124.276 130.551 124.12 130.551 123.938C130.551 123.757 130.618 123.601 130.753 123.472C130.891 123.342 131.055 123.277 131.245 123.277C131.435 123.277 131.597 123.342 131.732 123.472C131.87 123.601 131.938 123.757 131.938 123.938C131.938 124.12 131.87 124.276 131.732 124.405C131.597 124.534 131.435 124.599 131.245 124.599ZM138.002 127.077L137.127 127.325C137.072 127.179 136.99 127.037 136.883 126.899C136.778 126.759 136.635 126.643 136.454 126.553C136.272 126.462 136.039 126.416 135.756 126.416C135.367 126.416 135.044 126.506 134.785 126.685C134.529 126.861 134.401 127.085 134.401 127.358C134.401 127.6 134.489 127.792 134.665 127.932C134.841 128.072 135.117 128.189 135.491 128.283L136.433 128.514C137 128.652 137.423 128.863 137.701 129.146C137.979 129.427 138.118 129.789 138.118 130.232C138.118 130.596 138.013 130.921 137.804 131.207C137.598 131.493 137.308 131.719 136.937 131.884C136.565 132.05 136.133 132.132 135.64 132.132C134.993 132.132 134.457 131.992 134.033 131.711C133.609 131.43 133.341 131.02 133.228 130.48L134.153 130.249C134.241 130.59 134.408 130.846 134.653 131.017C134.901 131.188 135.224 131.273 135.623 131.273C136.078 131.273 136.438 131.177 136.705 130.984C136.975 130.789 137.11 130.555 137.11 130.282C137.11 130.062 137.033 129.877 136.879 129.729C136.725 129.577 136.488 129.464 136.169 129.39L135.111 129.142C134.53 129.004 134.104 128.791 133.831 128.502C133.561 128.21 133.426 127.845 133.426 127.407C133.426 127.05 133.527 126.733 133.728 126.458C133.932 126.182 134.208 125.966 134.558 125.809C134.91 125.652 135.31 125.574 135.756 125.574C136.383 125.574 136.876 125.711 137.234 125.987C137.595 126.262 137.851 126.626 138.002 127.077ZM139.585 132V125.656H140.56V132H139.585ZM140.081 124.599C139.891 124.599 139.727 124.534 139.589 124.405C139.454 124.276 139.387 124.12 139.387 123.938C139.387 123.757 139.454 123.601 139.589 123.472C139.727 123.342 139.891 123.277 140.081 123.277C140.271 123.277 140.433 123.342 140.568 123.472C140.706 123.601 140.775 123.757 140.775 123.938C140.775 124.12 140.706 124.276 140.568 124.405C140.433 124.534 140.271 124.599 140.081 124.599ZM145.104 125.656V126.482H141.816V125.656H145.104ZM142.774 124.137H143.749V130.183C143.749 130.458 143.789 130.665 143.869 130.802C143.952 130.937 144.056 131.028 144.183 131.075C144.312 131.119 144.448 131.141 144.592 131.141C144.699 131.141 144.787 131.135 144.856 131.124C144.925 131.111 144.98 131.1 145.021 131.091L145.219 131.967C145.153 131.992 145.061 132.017 144.943 132.041C144.824 132.069 144.674 132.083 144.493 132.083C144.217 132.083 143.947 132.023 143.683 131.905C143.421 131.787 143.204 131.606 143.031 131.364C142.86 131.122 142.774 130.816 142.774 130.447V124.137ZM149.079 132.132C148.506 132.132 148.004 131.996 147.571 131.723C147.142 131.451 146.806 131.069 146.564 130.579C146.324 130.089 146.204 129.517 146.204 128.861C146.204 128.2 146.324 127.624 146.564 127.131C146.806 126.638 147.142 126.255 147.571 125.983C148.004 125.71 148.506 125.574 149.079 125.574C149.652 125.574 150.153 125.71 150.582 125.983C151.014 126.255 151.35 126.638 151.59 127.131C151.832 127.624 151.953 128.2 151.953 128.861C151.953 129.517 151.832 130.089 151.59 130.579C151.35 131.069 151.014 131.451 150.582 131.723C150.153 131.996 149.652 132.132 149.079 132.132ZM149.079 131.257C149.514 131.257 149.872 131.145 150.153 130.922C150.433 130.699 150.641 130.406 150.776 130.042C150.911 129.679 150.979 129.285 150.979 128.861C150.979 128.437 150.911 128.042 150.776 127.676C150.641 127.31 150.433 127.014 150.153 126.788C149.872 126.562 149.514 126.449 149.079 126.449C148.644 126.449 148.286 126.562 148.005 126.788C147.724 127.014 147.516 127.31 147.381 127.676C147.247 128.042 147.179 128.437 147.179 128.861C147.179 129.285 147.247 129.679 147.381 130.042C147.516 130.406 147.724 130.699 148.005 130.922C148.286 131.145 148.644 131.257 149.079 131.257ZM153.441 132V125.656H154.383V126.615H154.449C154.564 126.301 154.774 126.046 155.077 125.85C155.379 125.655 155.721 125.557 156.101 125.557C156.172 125.557 156.262 125.559 156.369 125.561C156.477 125.564 156.558 125.568 156.613 125.574V126.565C156.58 126.557 156.504 126.544 156.386 126.528C156.27 126.509 156.148 126.499 156.018 126.499C155.71 126.499 155.435 126.564 155.192 126.693C154.953 126.82 154.763 126.996 154.622 127.222C154.485 127.445 154.416 127.699 154.416 127.986V132H153.441ZM162.262 127.077L161.386 127.325C161.331 127.179 161.25 127.037 161.143 126.899C161.038 126.759 160.895 126.643 160.713 126.553C160.531 126.462 160.299 126.416 160.015 126.416C159.627 126.416 159.303 126.506 159.044 126.685C158.788 126.861 158.66 127.085 158.66 127.358C158.66 127.6 158.749 127.792 158.925 127.932C159.101 128.072 159.376 128.189 159.751 128.283L160.692 128.514C161.26 128.652 161.682 128.863 161.96 129.146C162.238 129.427 162.377 129.789 162.377 130.232C162.377 130.596 162.273 130.921 162.063 131.207C161.857 131.493 161.568 131.719 161.196 131.884C160.825 132.05 160.392 132.132 159.899 132.132C159.252 132.132 158.717 131.992 158.293 131.711C157.869 131.43 157.6 131.02 157.487 130.48L158.413 130.249C158.501 130.59 158.667 130.846 158.912 131.017C159.16 131.188 159.484 131.273 159.883 131.273C160.337 131.273 160.698 131.177 160.965 130.984C161.235 130.789 161.37 130.555 161.37 130.282C161.37 130.062 161.293 129.877 161.138 129.729C160.984 129.577 160.747 129.464 160.428 129.39L159.371 129.142C158.79 129.004 158.363 128.791 158.09 128.502C157.821 128.21 157.686 127.845 157.686 127.407C157.686 127.05 157.786 126.733 157.987 126.458C158.191 126.182 158.468 125.966 158.817 125.809C159.17 125.652 159.569 125.574 160.015 125.574C160.643 125.574 161.136 125.711 161.494 125.987C161.854 126.262 162.11 126.626 162.262 127.077ZM167.115 132V125.656H168.09V132H167.115ZM167.611 124.599C167.421 124.599 167.257 124.534 167.12 124.405C166.985 124.276 166.917 124.12 166.917 123.938C166.917 123.757 166.985 123.601 167.12 123.472C167.257 123.342 167.421 123.277 167.611 123.277C167.801 123.277 167.963 123.342 168.098 123.472C168.236 123.601 168.305 123.757 168.305 123.938C168.305 124.12 168.236 124.276 168.098 124.405C167.963 124.534 167.801 124.599 167.611 124.599ZM170.85 128.184V132H169.875V125.656H170.817V126.648H170.9C171.048 126.325 171.274 126.067 171.577 125.871C171.88 125.673 172.271 125.574 172.75 125.574C173.179 125.574 173.555 125.662 173.877 125.838C174.199 126.012 174.45 126.276 174.629 126.631C174.808 126.983 174.897 127.429 174.897 127.969V132H173.923V128.035C173.923 127.537 173.793 127.149 173.534 126.871C173.276 126.59 172.921 126.449 172.469 126.449C172.158 126.449 171.88 126.517 171.635 126.652C171.392 126.787 171.201 126.983 171.061 127.242C170.92 127.501 170.85 127.815 170.85 128.184ZM180.082 132V123.542H182.939C183.603 123.542 184.145 123.662 184.567 123.901C184.991 124.138 185.305 124.459 185.508 124.863C185.712 125.268 185.814 125.72 185.814 126.218C185.814 126.716 185.712 127.169 185.508 127.577C185.307 127.984 184.996 128.309 184.575 128.551C184.154 128.791 183.614 128.911 182.956 128.911H180.908V128.002H182.923C183.377 128.002 183.742 127.924 184.017 127.767C184.293 127.61 184.492 127.398 184.616 127.131C184.743 126.861 184.806 126.557 184.806 126.218C184.806 125.879 184.743 125.577 184.616 125.309C184.492 125.042 184.291 124.833 184.013 124.682C183.735 124.528 183.366 124.45 182.906 124.45H181.106V132H180.082ZM189.198 132.149C188.796 132.149 188.432 132.073 188.104 131.922C187.776 131.767 187.516 131.546 187.323 131.257C187.131 130.965 187.034 130.612 187.034 130.199C187.034 129.836 187.106 129.541 187.249 129.316C187.392 129.087 187.584 128.908 187.823 128.779C188.063 128.649 188.327 128.553 188.616 128.49C188.908 128.423 189.201 128.371 189.496 128.333C189.881 128.283 190.194 128.246 190.433 128.221C190.676 128.194 190.852 128.148 190.962 128.085C191.075 128.021 191.131 127.911 191.131 127.754V127.721C191.131 127.314 191.02 126.997 190.797 126.771C190.576 126.546 190.242 126.433 189.793 126.433C189.328 126.433 188.963 126.535 188.699 126.738C188.434 126.942 188.249 127.16 188.141 127.391L187.216 127.061C187.381 126.675 187.602 126.375 187.877 126.16C188.155 125.943 188.458 125.791 188.785 125.706C189.116 125.618 189.441 125.574 189.76 125.574C189.964 125.574 190.198 125.599 190.462 125.648C190.729 125.695 190.987 125.793 191.235 125.941C191.485 126.09 191.693 126.314 191.858 126.615C192.023 126.915 192.106 127.317 192.106 127.82V132H191.131V131.141H191.082C191.016 131.279 190.905 131.426 190.751 131.583C190.597 131.74 190.392 131.873 190.136 131.983C189.88 132.094 189.567 132.149 189.198 132.149ZM189.347 131.273C189.733 131.273 190.057 131.197 190.322 131.046C190.589 130.895 190.79 130.699 190.925 130.46C191.062 130.22 191.131 129.968 191.131 129.704V128.812C191.09 128.861 190.999 128.907 190.859 128.948C190.721 128.986 190.561 129.021 190.38 129.051C190.201 129.079 190.026 129.104 189.855 129.126C189.687 129.145 189.551 129.161 189.446 129.175C189.193 129.208 188.956 129.262 188.736 129.336C188.518 129.408 188.342 129.517 188.207 129.662C188.075 129.806 188.009 130.001 188.009 130.249C188.009 130.588 188.134 130.844 188.385 131.017C188.638 131.188 188.959 131.273 189.347 131.273ZM194.794 129.687L194.777 128.481H194.975L197.751 125.656H198.957L195.999 128.646H195.917L194.794 129.687ZM193.885 132V123.542H194.86V132H193.885ZM197.916 132L195.438 128.861L196.132 128.184L199.155 132H197.916ZM204.704 127.077L203.829 127.325C203.774 127.179 203.693 127.037 203.585 126.899C203.481 126.759 203.337 126.643 203.156 126.553C202.974 126.462 202.741 126.416 202.458 126.416C202.07 126.416 201.746 126.506 201.487 126.685C201.231 126.861 201.103 127.085 201.103 127.358C201.103 127.6 201.191 127.792 201.367 127.932C201.544 128.072 201.819 128.189 202.193 128.283L203.135 128.514C203.702 128.652 204.125 128.863 204.403 129.146C204.681 129.427 204.82 129.789 204.82 130.232C204.82 130.596 204.715 130.921 204.506 131.207C204.3 131.493 204.011 131.719 203.639 131.884C203.267 132.05 202.835 132.132 202.342 132.132C201.695 132.132 201.16 131.992 200.736 131.711C200.312 131.43 200.043 131.02 199.93 130.48L200.855 130.249C200.943 130.59 201.11 130.846 201.355 131.017C201.603 131.188 201.926 131.273 202.326 131.273C202.78 131.273 203.141 131.177 203.408 130.984C203.677 130.789 203.812 130.555 203.812 130.282C203.812 130.062 203.735 129.877 203.581 129.729C203.427 129.577 203.19 129.464 202.871 129.39L201.813 129.142C201.232 129.004 200.806 128.791 200.533 128.502C200.263 128.21 200.128 127.845 200.128 127.407C200.128 127.05 200.229 126.733 200.43 126.458C200.634 126.182 200.91 125.966 201.26 125.809C201.612 125.652 202.012 125.574 202.458 125.574C203.085 125.574 203.578 125.711 203.936 125.987C204.297 126.262 204.553 126.626 204.704 127.077ZM209.046 125.656V126.482H205.759V125.656H209.046ZM206.717 124.137H207.691V130.183C207.691 130.458 207.731 130.665 207.811 130.802C207.894 130.937 207.998 131.028 208.125 131.075C208.254 131.119 208.391 131.141 208.534 131.141C208.641 131.141 208.729 131.135 208.798 131.124C208.867 131.111 208.922 131.1 208.963 131.091L209.162 131.967C209.096 131.992 209.003 132.017 208.885 132.041C208.767 132.069 208.617 132.083 208.435 132.083C208.159 132.083 207.89 132.023 207.625 131.905C207.364 131.787 207.146 131.606 206.973 131.364C206.802 131.122 206.717 130.816 206.717 130.447V124.137ZM210.512 132V125.656H211.487V132H210.512ZM211.008 124.599C210.818 124.599 210.654 124.534 210.516 124.405C210.381 124.276 210.314 124.12 210.314 123.938C210.314 123.757 210.381 123.601 210.516 123.472C210.654 123.342 210.818 123.277 211.008 123.277C211.198 123.277 211.36 123.342 211.495 123.472C211.633 123.601 211.702 123.757 211.702 123.938C211.702 124.12 211.633 124.276 211.495 124.405C211.36 124.534 211.198 124.599 211.008 124.599ZM215.139 132.149C214.737 132.149 214.372 132.073 214.044 131.922C213.717 131.767 213.457 131.546 213.264 131.257C213.071 130.965 212.975 130.612 212.975 130.199C212.975 129.836 213.046 129.541 213.189 129.316C213.333 129.087 213.524 128.908 213.764 128.779C214.003 128.649 214.267 128.553 214.556 128.49C214.848 128.423 215.142 128.371 215.436 128.333C215.822 128.283 216.134 128.246 216.374 128.221C216.616 128.194 216.792 128.148 216.902 128.085C217.015 128.021 217.072 127.911 217.072 127.754V127.721C217.072 127.314 216.96 126.997 216.737 126.771C216.517 126.546 216.182 126.433 215.734 126.433C215.268 126.433 214.903 126.535 214.639 126.738C214.375 126.942 214.189 127.16 214.082 127.391L213.156 127.061C213.322 126.675 213.542 126.375 213.817 126.16C214.095 125.943 214.398 125.791 214.726 125.706C215.056 125.618 215.381 125.574 215.7 125.574C215.904 125.574 216.138 125.599 216.403 125.648C216.67 125.695 216.927 125.793 217.175 125.941C217.425 126.09 217.633 126.314 217.798 126.615C217.964 126.915 218.046 127.317 218.046 127.82V132H217.072V131.141H217.022C216.956 131.279 216.846 131.426 216.692 131.583C216.537 131.74 216.332 131.873 216.076 131.983C215.82 132.094 215.508 132.149 215.139 132.149ZM215.287 131.273C215.673 131.273 215.998 131.197 216.262 131.046C216.529 130.895 216.73 130.699 216.865 130.46C217.003 130.22 217.072 129.968 217.072 129.704V128.812C217.03 128.861 216.939 128.907 216.799 128.948C216.661 128.986 216.502 129.021 216.32 129.051C216.141 129.079 215.966 129.104 215.795 129.126C215.628 129.145 215.491 129.161 215.387 129.175C215.133 129.208 214.897 129.262 214.676 129.336C214.459 129.408 214.283 129.517 214.148 129.662C214.015 129.806 213.949 130.001 213.949 130.249C213.949 130.588 214.075 130.844 214.325 131.017C214.578 131.188 214.899 131.273 215.287 131.273ZM220.8 128.184V132H219.825V125.656H220.767V126.648H220.85C220.998 126.325 221.224 126.067 221.527 125.871C221.83 125.673 222.221 125.574 222.7 125.574C223.129 125.574 223.505 125.662 223.827 125.838C224.149 126.012 224.4 126.276 224.579 126.631C224.758 126.983 224.847 127.429 224.847 127.969V132H223.873V128.035C223.873 127.537 223.743 127.149 223.484 126.871C223.226 126.59 222.87 126.449 222.419 126.449C222.108 126.449 221.83 126.517 221.585 126.652C221.342 126.787 221.151 126.983 221.011 127.242C220.87 127.501 220.8 127.815 220.8 128.184Z" fill="#616161"/>
<path d="M27 163.98H41V149.98H27V163.98ZM51.5645 163V161.893L54.5009 159.015C54.7817 158.731 55.0157 158.479 55.203 158.259C55.3902 158.039 55.5306 157.825 55.6242 157.619C55.7178 157.412 55.7646 157.192 55.7646 156.958C55.7646 156.691 55.7041 156.462 55.5829 156.272C55.4618 156.08 55.2952 155.931 55.0832 155.826C54.8712 155.722 54.6303 155.669 54.3605 155.669C54.0824 155.669 53.8387 155.727 53.6295 155.843C53.4202 155.956 53.2578 156.117 53.1421 156.326C53.0292 156.535 52.9728 156.784 52.9728 157.073H51.5149C51.5149 156.537 51.6374 156.07 51.8825 155.673C52.1275 155.277 52.4648 154.97 52.8943 154.752C53.3266 154.535 53.8222 154.426 54.3811 154.426C54.9483 154.426 55.4466 154.532 55.8762 154.744C56.3057 154.956 56.6388 155.247 56.8756 155.616C57.1151 155.985 57.2349 156.406 57.2349 156.879C57.2349 157.196 57.1743 157.507 57.0532 157.813C56.9321 158.118 56.7187 158.457 56.4131 158.829C56.1102 159.2 55.6848 159.651 55.1369 160.179L53.679 161.662V161.72H57.3629V163H51.5645ZM59.7253 163.091C59.4747 163.091 59.26 163.003 59.081 162.827C58.9021 162.65 58.8139 162.436 58.8167 162.182C58.8139 161.934 58.9021 161.722 59.081 161.546C59.26 161.37 59.4747 161.282 59.7253 161.282C59.9676 161.282 60.1782 161.37 60.3572 161.546C60.5389 161.722 60.6311 161.934 60.6339 162.182C60.6311 162.35 60.5871 162.503 60.5017 162.641C60.4191 162.778 60.309 162.888 60.1713 162.971C60.0364 163.051 59.8877 163.091 59.7253 163.091ZM64.958 163.161C64.2779 163.161 63.6942 162.989 63.2069 162.645C62.7223 162.298 62.3492 161.798 62.0876 161.146C61.8288 160.49 61.6994 159.702 61.6994 158.779C61.7022 157.857 61.833 157.072 62.0918 156.425C62.3533 155.775 62.7264 155.28 63.211 154.938C63.6983 154.597 64.2806 154.426 64.958 154.426C65.6353 154.426 66.2176 154.597 66.7049 154.938C67.1923 155.28 67.5654 155.775 67.8242 156.425C68.0857 157.075 68.2165 157.86 68.2165 158.779C68.2165 159.704 68.0857 160.494 67.8242 161.15C67.5654 161.802 67.1923 162.301 66.7049 162.645C66.2204 162.989 65.638 163.161 64.958 163.161ZM64.958 161.868C65.4866 161.868 65.9037 161.608 66.2093 161.088C66.5177 160.565 66.6719 159.795 66.6719 158.779C66.6719 158.107 66.6017 157.543 66.4613 157.086C66.3209 156.629 66.1226 156.285 65.8666 156.053C65.6105 155.819 65.3076 155.702 64.958 155.702C64.4321 155.702 64.0163 155.964 63.7107 156.487C63.4051 157.007 63.2509 157.771 63.2482 158.779C63.2454 159.454 63.3129 160.021 63.4505 160.481C63.5909 160.941 63.7892 161.287 64.0452 161.521C64.3013 161.753 64.6055 161.868 64.958 161.868ZM72.5292 163.116C71.9786 163.116 71.4857 163.012 71.0507 162.806C70.6157 162.597 70.2701 162.31 70.0141 161.947C69.7608 161.583 69.6259 161.168 69.6093 160.7H71.0961C71.1237 161.047 71.2737 161.33 71.5463 161.55C71.8189 161.768 72.1465 161.877 72.5292 161.877C72.8293 161.877 73.0964 161.808 73.3304 161.67C73.5645 161.532 73.749 161.341 73.8839 161.096C74.0188 160.851 74.0849 160.572 74.0821 160.258C74.0849 159.938 74.0174 159.655 73.8797 159.407C73.7421 159.159 73.5535 158.965 73.3139 158.825C73.0744 158.681 72.7991 158.61 72.4879 158.61C72.2346 158.607 71.9855 158.654 71.7404 158.75C71.4954 158.847 71.3013 158.973 71.1581 159.13L69.7745 158.903L70.2165 154.542H75.1229V155.822H71.4844L71.2407 158.065H71.2902C71.4472 157.88 71.6688 157.727 71.9552 157.606C72.2415 157.482 72.5554 157.42 72.8968 157.42C73.4089 157.42 73.866 157.542 74.268 157.784C74.6699 158.023 74.9866 158.354 75.2178 158.775C75.4491 159.196 75.5648 159.678 75.5648 160.221C75.5648 160.779 75.4354 161.278 75.1765 161.716C74.9205 162.151 74.5639 162.493 74.1069 162.744C73.6526 162.992 73.1267 163.116 72.5292 163.116ZM80.3886 154.542V163H78.8564V156.033H78.8068L76.8285 157.297V155.892L78.9307 154.542H80.3886ZM86.4266 163H85.3528L88.4585 154.542H89.5158L92.6215 163H91.5478L89.0202 155.88H88.9541L86.4266 163ZM86.8231 159.696H91.1513V160.605H86.8231V159.696ZM96.3839 163.132C95.7892 163.132 95.2771 162.992 94.8476 162.711C94.4181 162.43 94.0877 162.043 93.8564 161.55C93.6251 161.058 93.5095 160.494 93.5095 159.861C93.5095 159.217 93.6279 158.648 93.8647 158.156C94.1042 157.66 94.4374 157.273 94.8641 156.995C95.2936 156.714 95.7947 156.574 96.3674 156.574C96.8135 156.574 97.2154 156.656 97.5734 156.822C97.9313 156.987 98.2245 157.218 98.4531 157.515C98.6816 157.813 98.8234 158.16 98.8785 158.556H97.9038C97.8294 158.267 97.6642 158.011 97.4082 157.788C97.1549 157.562 96.8135 157.449 96.3839 157.449C96.004 157.449 95.6708 157.548 95.3845 157.747C95.1009 157.942 94.8793 158.219 94.7196 158.577C94.5626 158.932 94.4842 159.349 94.4842 159.828C94.4842 160.318 94.5613 160.745 94.7154 161.108C94.8724 161.472 95.0926 161.754 95.3762 161.955C95.6626 162.156 95.9985 162.257 96.3839 162.257C96.6373 162.257 96.8672 162.213 97.0737 162.124C97.2802 162.036 97.455 161.91 97.5982 161.744C97.7413 161.579 97.8432 161.381 97.9038 161.15H98.8785C98.8234 161.524 98.6871 161.862 98.4696 162.162C98.2548 162.459 97.9699 162.696 97.6147 162.872C97.2623 163.045 96.852 163.132 96.3839 163.132ZM103.062 156.656V157.482H99.7747V156.656H103.062ZM100.733 155.137H101.707V161.183C101.707 161.458 101.747 161.665 101.827 161.802C101.91 161.937 102.014 162.028 102.141 162.075C102.271 162.119 102.407 162.141 102.55 162.141C102.657 162.141 102.745 162.135 102.814 162.124C102.883 162.111 102.938 162.1 102.98 162.091L103.178 162.967C103.112 162.992 103.019 163.017 102.901 163.041C102.783 163.069 102.633 163.083 102.451 163.083C102.176 163.083 101.906 163.023 101.641 162.905C101.38 162.787 101.162 162.606 100.989 162.364C100.818 162.122 100.733 161.816 100.733 161.447V155.137ZM104.528 163V156.656H105.503V163H104.528ZM105.024 155.599C104.834 155.599 104.67 155.534 104.532 155.405C104.397 155.276 104.33 155.12 104.33 154.938C104.33 154.757 104.397 154.601 104.532 154.472C104.67 154.342 104.834 154.277 105.024 154.277C105.214 154.277 105.376 154.342 105.511 154.472C105.649 154.601 105.718 154.757 105.718 154.938C105.718 155.12 105.649 155.276 105.511 155.405C105.376 155.534 105.214 155.599 105.024 155.599ZM112.475 156.656L110.13 163H109.138L106.793 156.656H107.85L109.601 161.711H109.667L111.418 156.656H112.475ZM116.194 163.132C115.583 163.132 115.056 162.997 114.613 162.727C114.172 162.455 113.832 162.075 113.593 161.588C113.356 161.097 113.237 160.528 113.237 159.878C113.237 159.228 113.356 158.655 113.593 158.16C113.832 157.661 114.165 157.273 114.592 156.995C115.021 156.714 115.523 156.574 116.095 156.574C116.426 156.574 116.752 156.629 117.074 156.739C117.396 156.849 117.689 157.028 117.954 157.276C118.218 157.521 118.429 157.846 118.586 158.251C118.743 158.655 118.821 159.154 118.821 159.746V160.159H113.931V159.316H117.83C117.83 158.958 117.758 158.639 117.615 158.358C117.475 158.077 117.274 157.855 117.012 157.693C116.753 157.531 116.448 157.449 116.095 157.449C115.707 157.449 115.371 157.546 115.088 157.738C114.807 157.928 114.591 158.176 114.439 158.482C114.288 158.787 114.212 159.115 114.212 159.465V160.026C114.212 160.505 114.295 160.912 114.46 161.245C114.628 161.575 114.86 161.827 115.158 162.001C115.455 162.171 115.801 162.257 116.194 162.257C116.45 162.257 116.682 162.221 116.888 162.149C117.097 162.075 117.278 161.965 117.429 161.819C117.581 161.67 117.698 161.486 117.78 161.265L118.722 161.53C118.623 161.849 118.456 162.13 118.222 162.372C117.988 162.612 117.699 162.799 117.355 162.934C117.011 163.066 116.624 163.132 116.194 163.132ZM128.762 156.656L126.416 163H125.425L123.079 156.656H124.136L125.887 161.711H125.954L127.705 156.656H128.762ZM130.048 163V156.656H131.023V163H130.048ZM130.544 155.599C130.354 155.599 130.19 155.534 130.053 155.405C129.918 155.276 129.85 155.12 129.85 154.938C129.85 154.757 129.918 154.601 130.053 154.472C130.19 154.342 130.354 154.277 130.544 154.277C130.734 154.277 130.896 154.342 131.031 154.472C131.169 154.601 131.238 154.757 131.238 154.938C131.238 155.12 131.169 155.276 131.031 155.405C130.896 155.534 130.734 155.599 130.544 155.599ZM137.302 158.077L136.426 158.325C136.371 158.179 136.29 158.037 136.182 157.899C136.078 157.759 135.935 157.643 135.753 157.553C135.571 157.462 135.339 157.416 135.055 157.416C134.667 157.416 134.343 157.506 134.084 157.685C133.828 157.861 133.7 158.085 133.7 158.358C133.7 158.6 133.788 158.792 133.965 158.932C134.141 159.072 134.416 159.189 134.791 159.283L135.732 159.514C136.299 159.652 136.722 159.863 137 160.146C137.278 160.427 137.417 160.789 137.417 161.232C137.417 161.596 137.313 161.921 137.103 162.207C136.897 162.493 136.608 162.719 136.236 162.884C135.864 163.05 135.432 163.132 134.939 163.132C134.292 163.132 133.757 162.992 133.333 162.711C132.909 162.43 132.64 162.02 132.527 161.48L133.453 161.249C133.541 161.59 133.707 161.846 133.952 162.017C134.2 162.188 134.524 162.273 134.923 162.273C135.377 162.273 135.738 162.177 136.005 161.984C136.275 161.789 136.41 161.555 136.41 161.282C136.41 161.062 136.332 160.877 136.178 160.729C136.024 160.577 135.787 160.464 135.468 160.39L134.411 160.142C133.83 160.004 133.403 159.791 133.13 159.502C132.861 159.21 132.726 158.845 132.726 158.407C132.726 158.05 132.826 157.733 133.027 157.458C133.231 157.182 133.508 156.966 133.857 156.809C134.21 156.652 134.609 156.574 135.055 156.574C135.683 156.574 136.176 156.711 136.533 156.987C136.894 157.262 137.15 157.626 137.302 158.077ZM138.884 163V156.656H139.859V163H138.884ZM139.38 155.599C139.19 155.599 139.026 155.534 138.889 155.405C138.754 155.276 138.686 155.12 138.686 154.938C138.686 154.757 138.754 154.601 138.889 154.472C139.026 154.342 139.19 154.277 139.38 154.277C139.57 154.277 139.732 154.342 139.867 154.472C140.005 154.601 140.074 154.757 140.074 154.938C140.074 155.12 140.005 155.276 139.867 155.405C139.732 155.534 139.57 155.599 139.38 155.599ZM144.403 156.656V157.482H141.116V156.656H144.403ZM142.074 155.137H143.048V161.183C143.048 161.458 143.088 161.665 143.168 161.802C143.251 161.937 143.355 162.028 143.482 162.075C143.612 162.119 143.748 162.141 143.891 162.141C143.998 162.141 144.086 162.135 144.155 162.124C144.224 162.111 144.279 162.1 144.321 162.091L144.519 162.967C144.453 162.992 144.36 163.017 144.242 163.041C144.124 163.069 143.974 163.083 143.792 163.083C143.517 163.083 143.247 163.023 142.982 162.905C142.721 162.787 142.503 162.606 142.33 162.364C142.159 162.122 142.074 161.816 142.074 161.447V155.137ZM148.378 163.132C147.806 163.132 147.303 162.996 146.871 162.723C146.441 162.451 146.105 162.069 145.863 161.579C145.624 161.089 145.504 160.517 145.504 159.861C145.504 159.2 145.624 158.624 145.863 158.131C146.105 157.638 146.441 157.255 146.871 156.983C147.303 156.71 147.806 156.574 148.378 156.574C148.951 156.574 149.452 156.71 149.882 156.983C150.314 157.255 150.65 157.638 150.889 158.131C151.132 158.624 151.253 159.2 151.253 159.861C151.253 160.517 151.132 161.089 150.889 161.579C150.65 162.069 150.314 162.451 149.882 162.723C149.452 162.996 148.951 163.132 148.378 163.132ZM148.378 162.257C148.813 162.257 149.171 162.145 149.452 161.922C149.733 161.699 149.941 161.406 150.076 161.042C150.211 160.679 150.278 160.285 150.278 159.861C150.278 159.437 150.211 159.042 150.076 158.676C149.941 158.31 149.733 158.014 149.452 157.788C149.171 157.562 148.813 157.449 148.378 157.449C147.943 157.449 147.585 157.562 147.304 157.788C147.024 158.014 146.816 158.31 146.681 158.676C146.546 159.042 146.478 159.437 146.478 159.861C146.478 160.285 146.546 160.679 146.681 161.042C146.816 161.406 147.024 161.699 147.304 161.922C147.585 162.145 147.943 162.257 148.378 162.257ZM152.741 163V156.656H153.682V157.615H153.748C153.864 157.301 154.073 157.046 154.376 156.85C154.679 156.655 155.02 156.557 155.4 156.557C155.472 156.557 155.561 156.559 155.669 156.561C155.776 156.564 155.857 156.568 155.912 156.574V157.565C155.879 157.557 155.804 157.544 155.685 157.528C155.57 157.509 155.447 157.499 155.318 157.499C155.009 157.499 154.734 157.564 154.492 157.693C154.252 157.82 154.062 157.996 153.922 158.222C153.784 158.445 153.715 158.699 153.715 158.986V163H152.741ZM161.561 158.077L160.686 158.325C160.63 158.179 160.549 158.037 160.442 157.899C160.337 157.759 160.194 157.643 160.012 157.553C159.831 157.462 159.598 157.416 159.314 157.416C158.926 157.416 158.603 157.506 158.344 157.685C158.088 157.861 157.96 158.085 157.96 158.358C157.96 158.6 158.048 158.792 158.224 158.932C158.4 159.072 158.676 159.189 159.05 159.283L159.992 159.514C160.559 159.652 160.982 159.863 161.26 160.146C161.538 160.427 161.677 160.789 161.677 161.232C161.677 161.596 161.572 161.921 161.363 162.207C161.156 162.493 160.867 162.719 160.496 162.884C160.124 163.05 159.692 163.132 159.199 163.132C158.552 163.132 158.016 162.992 157.592 162.711C157.168 162.43 156.9 162.02 156.787 161.48L157.712 161.249C157.8 161.59 157.967 161.846 158.212 162.017C158.459 162.188 158.783 162.273 159.182 162.273C159.637 162.273 159.997 162.177 160.264 161.984C160.534 161.789 160.669 161.555 160.669 161.282C160.669 161.062 160.592 160.877 160.438 160.729C160.284 160.577 160.047 160.464 159.727 160.39L158.67 160.142C158.089 160.004 157.662 159.791 157.39 159.502C157.12 159.21 156.985 158.845 156.985 158.407C156.985 158.05 157.086 157.733 157.287 157.458C157.49 157.182 157.767 156.966 158.117 156.809C158.469 156.652 158.868 156.574 159.314 156.574C159.942 156.574 160.435 156.711 160.793 156.987C161.154 157.262 161.41 157.626 161.561 158.077ZM166.415 163V156.656H167.39V163H166.415ZM166.91 155.599C166.72 155.599 166.557 155.534 166.419 155.405C166.284 155.276 166.217 155.12 166.217 154.938C166.217 154.757 166.284 154.601 166.419 154.472C166.557 154.342 166.72 154.277 166.91 154.277C167.1 154.277 167.263 154.342 167.398 154.472C167.535 154.601 167.604 154.757 167.604 154.938C167.604 155.12 167.535 155.276 167.398 155.405C167.263 155.534 167.1 155.599 166.91 155.599ZM170.149 159.184V163H169.175V156.656H170.116V157.648H170.199C170.348 157.325 170.573 157.067 170.876 156.871C171.179 156.673 171.57 156.574 172.049 156.574C172.479 156.574 172.855 156.662 173.177 156.838C173.499 157.012 173.749 157.276 173.928 157.631C174.107 157.983 174.197 158.429 174.197 158.969V163H173.222V159.035C173.222 158.537 173.093 158.149 172.834 157.871C172.575 157.59 172.22 157.449 171.768 157.449C171.457 157.449 171.179 157.517 170.934 157.652C170.692 157.787 170.5 157.983 170.36 158.242C170.22 158.501 170.149 158.815 170.149 159.184ZM180.405 154.542V163H179.381V154.542H180.405ZM183.301 159.184V163H182.327V156.656H183.268V157.648H183.351C183.5 157.325 183.725 157.067 184.028 156.871C184.331 156.673 184.722 156.574 185.201 156.574C185.631 156.574 186.006 156.662 186.329 156.838C186.651 157.012 186.901 157.276 187.08 157.631C187.259 157.983 187.349 158.429 187.349 158.969V163H186.374V159.035C186.374 158.537 186.245 158.149 185.986 157.871C185.727 157.59 185.372 157.449 184.92 157.449C184.609 157.449 184.331 157.517 184.086 157.652C183.844 157.787 183.652 157.983 183.512 158.242C183.371 158.501 183.301 158.815 183.301 159.184ZM191.525 163.132C190.996 163.132 190.53 162.999 190.125 162.732C189.72 162.462 189.404 162.082 189.175 161.592C188.947 161.099 188.832 160.517 188.832 159.845C188.832 159.178 188.947 158.6 189.175 158.11C189.404 157.62 189.722 157.241 190.129 156.974C190.537 156.707 191.007 156.574 191.542 156.574C191.955 156.574 192.281 156.643 192.52 156.78C192.763 156.915 192.947 157.069 193.074 157.243C193.203 157.414 193.304 157.554 193.375 157.664H193.458V154.542H194.433V163H193.491V162.025H193.375C193.304 162.141 193.202 162.287 193.07 162.463C192.938 162.637 192.749 162.792 192.504 162.93C192.259 163.065 191.933 163.132 191.525 163.132ZM191.657 162.257C192.048 162.257 192.379 162.155 192.648 161.951C192.918 161.744 193.123 161.46 193.264 161.096C193.404 160.73 193.474 160.307 193.474 159.828C193.474 159.355 193.406 158.94 193.268 158.585C193.13 158.227 192.927 157.949 192.657 157.751C192.387 157.55 192.054 157.449 191.657 157.449C191.244 157.449 190.9 157.555 190.625 157.767C190.352 157.977 190.147 158.262 190.009 158.622C189.874 158.98 189.807 159.382 189.807 159.828C189.807 160.28 189.876 160.69 190.014 161.059C190.154 161.425 190.36 161.717 190.633 161.934C190.908 162.149 191.25 162.257 191.657 162.257ZM196.353 163V156.656H197.328V163H196.353ZM196.849 155.599C196.659 155.599 196.495 155.534 196.357 155.405C196.222 155.276 196.155 155.12 196.155 154.938C196.155 154.757 196.222 154.601 196.357 154.472C196.495 154.342 196.659 154.277 196.849 154.277C197.039 154.277 197.201 154.342 197.336 154.472C197.474 154.601 197.542 154.757 197.542 154.938C197.542 155.12 197.474 155.276 197.336 155.405C197.201 155.534 197.039 155.599 196.849 155.599ZM200.98 163.149C200.578 163.149 200.213 163.073 199.885 162.922C199.558 162.767 199.297 162.546 199.105 162.257C198.912 161.965 198.816 161.612 198.816 161.199C198.816 160.836 198.887 160.541 199.03 160.316C199.173 160.087 199.365 159.908 199.604 159.779C199.844 159.649 200.108 159.553 200.397 159.49C200.689 159.423 200.982 159.371 201.277 159.333C201.662 159.283 201.975 159.246 202.214 159.221C202.457 159.194 202.633 159.148 202.743 159.085C202.856 159.021 202.912 158.911 202.912 158.754V158.721C202.912 158.314 202.801 157.997 202.578 157.771C202.358 157.546 202.023 157.433 201.574 157.433C201.109 157.433 200.744 157.535 200.48 157.738C200.216 157.942 200.03 158.16 199.922 158.391L198.997 158.061C199.162 157.675 199.383 157.375 199.658 157.16C199.936 156.943 200.239 156.791 200.567 156.706C200.897 156.618 201.222 156.574 201.541 156.574C201.745 156.574 201.979 156.599 202.243 156.648C202.51 156.695 202.768 156.793 203.016 156.941C203.266 157.09 203.474 157.314 203.639 157.615C203.805 157.915 203.887 158.317 203.887 158.82V163H202.912V162.141H202.863C202.797 162.279 202.687 162.426 202.532 162.583C202.378 162.74 202.173 162.873 201.917 162.983C201.661 163.094 201.349 163.149 200.98 163.149ZM201.128 162.273C201.514 162.273 201.839 162.197 202.103 162.046C202.37 161.895 202.571 161.699 202.706 161.46C202.844 161.22 202.912 160.968 202.912 160.704V159.812C202.871 159.861 202.78 159.907 202.64 159.948C202.502 159.986 202.343 160.021 202.161 160.051C201.982 160.079 201.807 160.104 201.636 160.126C201.468 160.145 201.332 160.161 201.227 160.175C200.974 160.208 200.737 160.262 200.517 160.336C200.3 160.408 200.123 160.517 199.988 160.662C199.856 160.806 199.79 161.001 199.79 161.249C199.79 161.588 199.915 161.844 200.166 162.017C200.419 162.188 200.74 162.273 201.128 162.273Z" fill="#616161"/>
<path d="M29.311 27.0568L31.8988 34.8832H32.0007L34.5836 27.0568H36.5645L33.0591 37H30.8355L27.335 27.0568H29.311ZM37.4465 37V29.5426H39.204V37H37.4465ZM38.3301 28.4842C38.0517 28.4842 37.8122 28.392 37.6115 28.2075C37.4109 28.0197 37.3105 27.7948 37.3105 27.5326C37.3105 27.2672 37.4109 27.0423 37.6115 26.8578C37.8122 26.67 38.0517 26.5762 38.3301 26.5762C38.6117 26.5762 38.8512 26.67 39.0486 26.8578C39.2493 27.0423 39.3496 27.2672 39.3496 27.5326C39.3496 27.7948 39.2493 28.0197 39.0486 28.2075C38.8512 28.392 38.6117 28.4842 38.3301 28.4842ZM46.5553 31.5138L44.9532 31.6886C44.9079 31.5267 44.8286 31.3746 44.7153 31.2322C44.6052 31.0898 44.4563 30.9749 44.2686 30.8875C44.0809 30.8001 43.8511 30.7564 43.5792 30.7564C43.2134 30.7564 42.906 30.8357 42.6567 30.9943C42.4107 31.1529 42.2894 31.3584 42.2926 31.6109C42.2894 31.8277 42.3687 32.0041 42.5305 32.1401C42.6956 32.276 42.9675 32.3877 43.3461 32.4751L44.6182 32.747C45.3238 32.8991 45.8481 33.1402 46.1912 33.4704C46.5375 33.8005 46.7123 34.2326 46.7156 34.7667C46.7123 35.236 46.5748 35.6503 46.3029 36.0096C46.0342 36.3656 45.6604 36.644 45.1814 36.8446C44.7023 37.0453 44.1521 37.1457 43.5306 37.1457C42.6179 37.1457 41.8832 36.9547 41.3264 36.5728C40.7697 36.1876 40.438 35.6519 40.3312 34.9657L42.045 34.8007C42.1227 35.1373 42.2877 35.3914 42.5402 35.5629C42.7927 35.7344 43.1212 35.8202 43.5258 35.8202C43.9433 35.8202 44.2783 35.7344 44.5308 35.5629C44.7865 35.3914 44.9143 35.1793 44.9143 34.9269C44.9143 34.7133 44.8318 34.5369 44.6667 34.3977C44.5049 34.2585 44.2524 34.1517 43.9093 34.0772L42.6373 33.8102C41.922 33.6613 41.3928 33.4105 41.0497 33.0577C40.7066 32.7016 40.5367 32.2517 40.5399 31.708C40.5367 31.2484 40.6613 30.8502 40.9138 30.5136C41.1695 30.1738 41.5239 29.9116 41.977 29.7271C42.4334 29.5394 42.9594 29.4455 43.5549 29.4455C44.4288 29.4455 45.1166 29.6316 45.6183 30.0038C46.1232 30.3761 46.4356 30.8794 46.5553 31.5138ZM47.8148 37V29.5426H49.5723V37H47.8148ZM48.6984 28.4842C48.4201 28.4842 48.1806 28.392 47.9799 28.2075C47.7792 28.0197 47.6789 27.7948 47.6789 27.5326C47.6789 27.2672 47.7792 27.0423 47.9799 26.8578C48.1806 26.67 48.4201 26.5762 48.6984 26.5762C48.98 26.5762 49.2195 26.67 49.417 26.8578C49.6177 27.0423 49.718 27.2672 49.718 27.5326C49.718 27.7948 49.6177 28.0197 49.417 28.2075C49.2195 28.392 48.98 28.4842 48.6984 28.4842ZM54.7535 29.5426V30.902H50.4665V29.5426H54.7535ZM51.5249 27.7559H53.2824V34.757C53.2824 34.9932 53.318 35.1745 53.3892 35.3007C53.4636 35.4237 53.5607 35.5079 53.6805 35.5532C53.8003 35.5985 53.933 35.6212 54.0786 35.6212C54.1887 35.6212 54.289 35.6131 54.3796 35.5969C54.4735 35.5807 54.5447 35.5661 54.5933 35.5532L54.8894 36.9272C54.7956 36.9595 54.6612 36.9951 54.4864 37.034C54.3149 37.0728 54.1045 37.0955 53.8553 37.102C53.4151 37.1149 53.0186 37.0486 52.6658 36.9029C52.313 36.754 52.033 36.5242 51.8259 36.2135C51.622 35.9028 51.5216 35.5143 51.5249 35.0483V27.7559ZM59.0461 37.1457C58.3179 37.1457 57.6867 36.9854 57.1527 36.665C56.6186 36.3446 56.2043 35.8963 55.9098 35.3201C55.6185 34.744 55.4728 34.0708 55.4728 33.3004C55.4728 32.5301 55.6185 31.8552 55.9098 31.2759C56.2043 30.6965 56.6186 30.2466 57.1527 29.9262C57.6867 29.6057 58.3179 29.4455 59.0461 29.4455C59.7744 29.4455 60.4056 29.6057 60.9396 29.9262C61.4737 30.2466 61.8864 30.6965 62.1777 31.2759C62.4722 31.8552 62.6195 32.5301 62.6195 33.3004C62.6195 34.0708 62.4722 34.744 62.1777 35.3201C61.8864 35.8963 61.4737 36.3446 60.9396 36.665C60.4056 36.9854 59.7744 37.1457 59.0461 37.1457ZM59.0558 35.7377C59.4507 35.7377 59.7809 35.6293 60.0463 35.4124C60.3117 35.1923 60.5091 34.8978 60.6386 34.5288C60.7713 34.1598 60.8377 33.7487 60.8377 33.2956C60.8377 32.8392 60.7713 32.4265 60.6386 32.0575C60.5091 31.6853 60.3117 31.3892 60.0463 31.1691C59.7809 30.949 59.4507 30.8389 59.0558 30.8389C58.6513 30.8389 58.3146 30.949 58.046 31.1691C57.7806 31.3892 57.5815 31.6853 57.4488 32.0575C57.3194 32.4265 57.2546 32.8392 57.2546 33.2956C57.2546 33.7487 57.3194 34.1598 57.4488 34.5288C57.5815 34.8978 57.7806 35.1923 58.046 35.4124C58.3146 35.6293 58.6513 35.7377 59.0558 35.7377ZM63.7612 37V29.5426H65.4653V30.7855H65.543C65.6789 30.355 65.912 30.0233 66.2421 29.7902C66.5755 29.5539 66.9558 29.4358 67.3831 29.4358C67.4802 29.4358 67.5886 29.4407 67.7084 29.4504C67.8314 29.4568 67.9333 29.4682 68.0142 29.4844V31.1011C67.9398 31.0752 67.8216 31.0525 67.6598 31.0331C67.5012 31.0105 67.3475 30.9991 67.1986 30.9991C66.8781 30.9991 66.5901 31.0687 66.3344 31.2079C66.0819 31.3438 65.8829 31.5332 65.7372 31.7759C65.5916 32.0187 65.5187 32.2987 65.5187 32.6159V37H63.7612ZM74.7259 31.5138L73.1238 31.6886C73.0784 31.5267 72.9991 31.3746 72.8859 31.2322C72.7758 31.0898 72.6269 30.9749 72.4392 30.8875C72.2515 30.8001 72.0217 30.7564 71.7498 30.7564C71.384 30.7564 71.0765 30.8357 70.8273 30.9943C70.5813 31.1529 70.4599 31.3584 70.4632 31.6109C70.4599 31.8277 70.5392 32.0041 70.7011 32.1401C70.8661 32.276 71.138 32.3877 71.5167 32.4751L72.7888 32.747C73.4944 32.8991 74.0187 33.1402 74.3618 33.4704C74.7081 33.8005 74.8829 34.2326 74.8861 34.7667C74.8829 35.236 74.7453 35.6503 74.4735 36.0096C74.2048 36.3656 73.831 36.644 73.3519 36.8446C72.8729 37.0453 72.3227 37.1457 71.7012 37.1457C70.7885 37.1457 70.0537 36.9547 69.497 36.5728C68.9403 36.1876 68.6085 35.6519 68.5017 34.9657L70.2156 34.8007C70.2932 35.1373 70.4583 35.3914 70.7108 35.5629C70.9632 35.7344 71.2918 35.8202 71.6964 35.8202C72.1139 35.8202 72.4489 35.7344 72.7014 35.5629C72.9571 35.3914 73.0849 35.1793 73.0849 34.9269C73.0849 34.7133 73.0024 34.5369 72.8373 34.3977C72.6755 34.2585 72.423 34.1517 72.0799 34.0772L70.8079 33.8102C70.0926 33.6613 69.5634 33.4105 69.2203 33.0577C68.8772 32.7016 68.7073 32.2517 68.7105 31.708C68.7073 31.2484 68.8319 30.8502 69.0843 30.5136C69.34 30.1738 69.6945 29.9116 70.1476 29.7271C70.604 29.5394 71.1299 29.4455 71.7255 29.4455C72.5994 29.4455 73.2872 29.6316 73.7889 30.0038C74.2938 30.3761 74.6062 30.8794 74.7259 31.5138ZM82.8039 29.5426V30.902H78.3955V29.5426H82.8039ZM79.4976 37V28.8386C79.4976 28.3369 79.6012 27.9194 79.8083 27.586C80.0187 27.2526 80.3003 27.0034 80.6531 26.8383C81.0059 26.6733 81.3975 26.5907 81.828 26.5907C82.1323 26.5907 82.4025 26.615 82.6388 26.6636C82.8751 26.7121 83.0499 26.7558 83.1632 26.7946L82.8136 28.1541C82.7392 28.1314 82.6453 28.1087 82.532 28.0861C82.4187 28.0602 82.2925 28.0473 82.1533 28.0473C81.8264 28.0473 81.595 28.1266 81.459 28.2852C81.3263 28.4405 81.26 28.6638 81.26 28.9552V37H79.4976ZM83.8303 37V29.5426H85.5344V30.7855H85.6121C85.7481 30.355 85.9811 30.0233 86.3112 29.7902C86.6446 29.5539 87.0249 29.4358 87.4522 29.4358C87.5493 29.4358 87.6577 29.4407 87.7775 29.4504C87.9005 29.4568 88.0024 29.4682 88.0833 29.4844V31.1011C88.0089 31.0752 87.8908 31.0525 87.7289 31.0331C87.5703 31.0105 87.4166 30.9991 87.2677 30.9991C86.9473 30.9991 86.6592 31.0687 86.4035 31.2079C86.151 31.3438 85.952 31.5332 85.8063 31.7759C85.6607 32.0187 85.5878 32.2987 85.5878 32.6159V37H83.8303ZM91.8468 37.1457C91.1185 37.1457 90.4874 36.9854 89.9533 36.665C89.4193 36.3446 89.005 35.8963 88.7104 35.3201C88.4191 34.744 88.2735 34.0708 88.2735 33.3004C88.2735 32.5301 88.4191 31.8552 88.7104 31.2759C89.005 30.6965 89.4193 30.2466 89.9533 29.9262C90.4874 29.6057 91.1185 29.4455 91.8468 29.4455C92.5751 29.4455 93.2062 29.6057 93.7403 29.9262C94.2743 30.2466 94.687 30.6965 94.9783 31.2759C95.2729 31.8552 95.4201 32.5301 95.4201 33.3004C95.4201 34.0708 95.2729 34.744 94.9783 35.3201C94.687 35.8963 94.2743 36.3446 93.7403 36.665C93.2062 36.9854 92.5751 37.1457 91.8468 37.1457ZM91.8565 35.7377C92.2514 35.7377 92.5815 35.6293 92.8469 35.4124C93.1124 35.1923 93.3098 34.8978 93.4393 34.5288C93.572 34.1598 93.6383 33.7487 93.6383 33.2956C93.6383 32.8392 93.572 32.4265 93.4393 32.0575C93.3098 31.6853 93.1124 31.3892 92.8469 31.1691C92.5815 30.949 92.2514 30.8389 91.8565 30.8389C91.4519 30.8389 91.1153 30.949 90.8467 31.1691C90.5812 31.3892 90.3822 31.6853 90.2495 32.0575C90.12 32.4265 90.0553 32.8392 90.0553 33.2956C90.0553 33.7487 90.12 34.1598 90.2495 34.5288C90.3822 34.8978 90.5812 35.1923 90.8467 35.4124C91.1153 35.6293 91.4519 35.7377 91.8565 35.7377ZM96.5619 37V29.5426H98.2417V30.8098H98.3291C98.4845 30.3825 98.7418 30.0492 99.1011 29.8096C99.4603 29.5669 99.8892 29.4455 100.388 29.4455C100.893 29.4455 101.318 29.5685 101.665 29.8145C102.014 30.0573 102.26 30.389 102.403 30.8098H102.48C102.645 30.3955 102.924 30.0653 103.315 29.8194C103.71 29.5701 104.178 29.4455 104.718 29.4455C105.405 29.4455 105.965 29.6624 106.398 30.0961C106.832 30.5298 107.049 31.1626 107.049 31.9944V37H105.286V32.2663C105.286 31.8035 105.163 31.4652 104.917 31.2516C104.671 31.0347 104.37 30.9263 104.014 30.9263C103.59 30.9263 103.259 31.059 103.019 31.3244C102.783 31.5866 102.665 31.9281 102.665 32.3488V37H100.941V32.1935C100.941 31.8083 100.825 31.5008 100.592 31.271C100.362 31.0412 100.061 30.9263 99.6885 30.9263C99.4361 30.9263 99.2063 30.991 98.9991 31.1205C98.792 31.2467 98.6269 31.4264 98.5039 31.6594C98.3809 31.8892 98.3194 32.1579 98.3194 32.4654V37H96.5619Z" fill="#09090B"/>
</g>
<defs>
<filter id="filter0_dd_270_19496" x="0" y="0" width="406" height="211" filterUnits="userSpaceOnUse" color-interpolation-filters="sRGB">
<feFlood flood-opacity="0" result="BackgroundImageFix"/>
<feColorMatrix in="SourceAlpha" type="matrix" values="0 0 0 0 0 0 0 0 0 0 0 0 0 0 0 0 0 0 127 0" result="hardAlpha"/>
<feMorphology radius="1" operator="erode" in="SourceAlpha" result="effect1_dropShadow_270_19496"/>
<feOffset dy="1"/>
<feGaussianBlur stdDeviation="1"/>
<feComposite in2="hardAlpha" operator="out"/>
<feColorMatrix type="matrix" values="0 0 0 0 0 0 0 0 0 0 0 0 0 0 0 0 0 0 0.1 0"/>
<feBlend mode="normal" in2="BackgroundImageFix" result="effect1_dropShadow_270_19496"/>
<feColorMatrix in="SourceAlpha" type="matrix" values="0 0 0 0 0 0 0 0 0 0 0 0 0 0 0 0 0 0 127 0" result="hardAlpha"/>
<feOffset dy="1"/>
<feGaussianBlur stdDeviation="1.5"/>
<feComposite in2="hardAlpha" operator="out"/>
<feColorMatrix type="matrix" values="0 0 0 0 0 0 0 0 0 0 0 0 0 0 0 0 0 0 0.1 0"/>
<feBlend mode="normal" in2="effect1_dropShadow_270_19496" result="effect2_dropShadow_270_19496"/>
<feBlend mode="normal" in="SourceGraphic" in2="effect2_dropShadow_270_19496" result="shape"/>
</filter>
</defs>
</svg>
