<svg width="16" height="17" viewBox="0 0 16 17" fill="none" xmlns="http://www.w3.org/2000/svg">
<g clip-path="url(#clip0_664_5961)">
<path d="M10.5763 2.36673C10.575 2.36673 10.3976 2.42206 10.097 2.51473C10.047 2.35206 9.97297 2.15206 9.86764 1.95139C9.52831 1.30339 9.03097 0.960727 8.43031 0.96006H8.42831C8.38697 0.96006 8.34497 0.96406 8.30364 0.96806C8.28631 0.946727 8.26831 0.925394 8.24964 0.905394C7.98831 0.625394 7.65231 0.488727 7.25031 0.500727C6.47431 0.522727 5.70164 1.08339 5.07497 2.07873C4.63364 2.77873 4.29897 3.65873 4.20364 4.34006C3.31231 4.61606 2.68897 4.80873 2.67564 4.81339C2.22631 4.95406 2.21231 4.96806 2.15297 5.39206C2.10831 5.71273 0.931641 14.8121 0.931641 14.8121L10.6943 16.5001V2.34673C10.6463 2.35006 10.6036 2.35873 10.5763 2.36673ZM8.32231 3.06473C7.80564 3.22473 7.24164 3.39939 6.67564 3.57473C6.83497 2.96539 7.13631 2.35873 7.50697 1.96139C7.64497 1.81339 7.83764 1.64873 8.06564 1.55406C8.28097 2.00139 8.32697 2.63606 8.32231 3.06473ZM7.26497 1.01673C7.44697 1.01273 7.60031 1.05273 7.73164 1.13939C7.52231 1.24806 7.31897 1.40473 7.12897 1.60873C6.63631 2.13739 6.25897 2.95873 6.10831 3.75006C5.63831 3.89539 5.17897 4.03806 4.75564 4.16873C5.02231 2.92206 6.06764 1.05139 7.26497 1.01673ZM5.75497 8.11806C5.80764 8.94873 7.99231 9.13006 8.11497 11.0754C8.21164 12.6061 7.30297 13.6527 5.99431 13.7354C4.42364 13.8347 3.55897 12.9074 3.55897 12.9074L3.89164 11.4914C3.89164 11.4914 4.76231 12.1481 5.45897 12.1041C5.91431 12.0754 6.07697 11.7054 6.06031 11.4434C5.99164 10.3601 4.21297 10.4241 4.10031 8.64339C4.00564 7.14539 4.98964 5.62739 7.16031 5.49006C7.99697 5.43739 8.42497 5.65073 8.42497 5.65073L7.92831 7.50806C7.92831 7.50806 7.37431 7.25606 6.71831 7.29739C5.75564 7.35873 5.74564 7.96539 5.75497 8.11806ZM8.83764 2.90473C8.83164 2.51206 8.78497 1.96539 8.60164 1.49273C9.19031 1.60406 9.48031 2.27073 9.60297 2.66806C9.37631 2.73806 9.11764 2.81806 8.83764 2.90473Z" fill="black"/>
<path d="M11.0176 16.4614L15.0676 15.4547C15.0676 15.4547 13.3236 3.6654 13.3129 3.58407C13.3016 3.5034 13.2309 3.45873 13.1729 3.4534C13.1142 3.44873 11.9742 3.4314 11.9742 3.4314C11.9742 3.4314 11.2789 2.75607 11.0176 2.50073V16.4614Z" fill="black"/>
</g>
<defs>
<clipPath id="clip0_664_5961">
<rect width="16" height="16" fill="white" transform="translate(0 0.5)"/>
</clipPath>
</defs>
</svg>
