<svg width="36" height="36" viewBox="0 0 36 36" fill="none" xmlns="http://www.w3.org/2000/svg">
<rect width="36" height="36" rx="5" fill="#B9FFE2" fill-opacity="0.5"/>
<g clip-path="url(#clip0_276_10377)">
<path d="M20.3189 12.4799C20.3177 12.4799 20.1581 12.5297 19.8875 12.6131C19.8425 12.4667 19.7759 12.2867 19.6811 12.1061C19.3757 11.5229 18.9281 11.2145 18.3875 11.2139H18.3857C18.3485 11.2139 18.3107 11.2175 18.2735 11.2211C18.2579 11.2019 18.2417 11.1827 18.2249 11.1647C17.9897 10.9127 17.6873 10.7897 17.3255 10.8005C16.6271 10.8203 15.9317 11.3249 15.3677 12.2207C14.9705 12.8507 14.6693 13.6427 14.5835 14.2559C13.7813 14.5043 13.2203 14.6777 13.2083 14.6819C12.8039 14.8085 12.7913 14.8211 12.7379 15.2027C12.6977 15.4913 11.6387 23.6807 11.6387 23.6807L20.4251 25.1999V12.4619C20.3819 12.4649 20.3435 12.4727 20.3189 12.4799ZM18.2903 13.1081C17.8253 13.2521 17.3177 13.4093 16.8083 13.5671C16.9517 13.0187 17.2229 12.4727 17.5565 12.1151C17.6807 11.9819 17.8541 11.8337 18.0593 11.7485C18.2531 12.1511 18.2945 12.7223 18.2903 13.1081ZM17.3387 11.2649C17.5025 11.2613 17.6405 11.2973 17.7587 11.3753C17.5703 11.4731 17.3873 11.6141 17.2163 11.7977C16.7729 12.2735 16.4333 13.0127 16.2977 13.7249C15.8747 13.8557 15.4613 13.9841 15.0803 14.1017C15.3203 12.9797 16.2611 11.2961 17.3387 11.2649ZM15.9797 17.6561C16.0271 18.4037 17.9933 18.5669 18.1037 20.3177C18.1907 21.6953 17.3729 22.6373 16.1951 22.7117C14.7815 22.8011 14.0033 21.9665 14.0033 21.9665L14.3027 20.6921C14.3027 20.6921 15.0863 21.2831 15.7133 21.2435C16.1231 21.2177 16.2695 20.8847 16.2545 20.6489C16.1927 19.6739 14.5919 19.7315 14.4905 18.1289C14.4053 16.7807 15.2909 15.4145 17.2445 15.2909C17.9975 15.2435 18.3827 15.4355 18.3827 15.4355L17.9357 17.1071C17.9357 17.1071 17.4371 16.8803 16.8467 16.9175C15.9803 16.9727 15.9713 17.5187 15.9797 17.6561ZM18.7541 12.9641C18.7487 12.6107 18.7067 12.1187 18.5417 11.6933C19.0715 11.7935 19.3325 12.3935 19.4429 12.7511C19.2389 12.8141 19.0061 12.8861 18.7541 12.9641Z" fill="black"/>
<path d="M20.7158 25.1652L24.3608 24.2592C24.3608 24.2592 22.7912 13.6488 22.7816 13.5756C22.7714 13.503 22.7078 13.4628 22.6556 13.458C22.6028 13.4538 21.5768 13.4382 21.5768 13.4382C21.5768 13.4382 20.951 12.8304 20.7158 12.6006V25.1652Z" fill="black"/>
</g>
<defs>
<clipPath id="clip0_276_10377">
<rect x="10.7998" y="10.7998" width="14.4" height="14.4" rx="5" fill="white"/>
</clipPath>
</defs>
</svg>
