<svg width="68" height="49" viewBox="0 0 68 49" fill="none" xmlns="http://www.w3.org/2000/svg">
<g clip-path="url(#clip0_81_4946)">
<path d="M21.2138 3.72929C23.2321 5.2947 23.6164 6.89569 22.7541 9.29556C22.5927 9.74513 21.8048 11.0097 21.7951 11.1876C21.766 11.7051 23.0997 13.6101 23.1481 14.1309C23.1675 14.3411 23.0674 14.3767 22.9318 14.4963L19.3893 13.5131C14.103 17.2779 7.24094 17.6789 2.67159 12.5525C-1.93329 7.39701 1.25719 0.595226 7.81574 0.0421567C11.6876 -0.28451 18.1041 1.31971 21.2106 3.72929H21.2138ZM21.7176 13.2026L20.9038 11.1779C22.1051 8.81041 23.4194 6.60783 20.9361 4.56051C18.0427 2.17358 11.5261 0.514368 7.82866 0.866909C3.04295 1.32618 -0.367116 5.97067 2.16783 10.4696C5.71675 16.7668 14.0352 16.7539 19.2569 12.5752L21.7176 13.2026Z" fill="black"/>
<path d="M54.1235 45.8076C47.594 52.0142 39.8568 48.492 36.5759 41.0369C36.1303 40.0246 35.7266 38.0355 35.2971 37.3142C35.1034 36.9876 34.3703 36.5671 34.0442 36.1434C32.8752 34.633 32.3198 31.0655 32.6621 29.2219C32.8558 28.1773 33.5953 28.1417 33.5986 29.1928C33.6018 29.9012 33.3596 30.5965 33.421 31.4504C33.5178 32.7894 33.9183 34.8723 35.0097 35.7456C34.5867 33.5268 34.4672 31.2984 34.5544 29.0344C28.3608 22.6757 26.1068 7.04095 35.8945 2.92042C41.029 0.759894 46.0085 2.57758 50.3841 5.44643C50.862 5.76016 51.8082 6.73369 52.2247 6.84042C52.9739 7.03448 54.4142 6.92775 55.3732 7.09593C57.6498 7.49376 60.5788 8.70986 62.4743 10.0295C70.1276 15.3596 67.7864 24.1699 63.6885 31.0235C64.3117 33.6691 63.6885 36.3698 61.2085 37.7767C60.146 38.3783 59.1385 38.3912 58.0018 38.76C57.4593 41.2892 55.9997 44.019 54.1203 45.8043L54.1235 45.8076ZM52.7091 15.6184C51.6435 16.1197 50.6586 16.7601 49.5832 17.2485C45.2884 19.202 40.606 20.1852 35.8945 20.389C35.2358 27.6371 34.3994 36.4021 38.4747 42.8578C43.9741 51.5711 53.6295 48.6861 56.8684 39.8887C57.0589 39.3713 57.1752 38.2037 57.4399 37.8641C57.7241 37.4986 58.0406 37.822 58.4475 37.767C59.8393 37.5794 61.2537 37.1202 62.1385 35.959C63.0943 34.7041 63.7951 32.0746 62.061 31.2078C60.3269 30.341 59.3226 31.3243 58.5185 32.7862C58.2537 33.2681 57.6337 35.5774 56.8296 35.0308C56.2387 34.6265 57.046 28.6171 57.2171 27.5724C57.3754 26.6183 57.75 25.6254 57.8404 24.6551C54.9664 22.4396 52.89 19.3508 52.7091 15.6216V15.6184Z" fill="black"/>
<path d="M36.471 46.5319C36.6744 46.7486 38.1114 47.4343 37.2137 47.8127C36.5549 48.0908 35.4215 46.6063 35.0566 46.0856C34.6917 45.5648 32.9769 42.4696 33.3709 42.0459C34.3752 42.0653 34.5786 43.6145 35.0049 44.3681C35.3956 45.0603 35.9381 45.9594 36.4742 46.5319H36.471Z" fill="black"/>
<path d="M46.8041 30.4932C46.8784 31.8969 47.1076 33.3232 46.7718 34.7172C46.6103 35.39 46.1292 36.0013 45.3638 35.7846C44.9699 35.1086 45.8805 35.0407 45.9968 34.4229C46.0646 34.0704 46.1421 32.8866 46.155 32.4694C46.1744 31.7708 45.4736 29.8464 46.8041 30.4932Z" fill="black"/>
<path d="M50.4959 30.1889C52.0556 29.8655 52.6272 32.081 51.0546 32.4012C49.4819 32.7214 49.0686 30.4865 50.4959 30.1889Z" fill="black"/>
<path d="M53.1362 29.3578C52.8681 28.3972 52.0899 27.7245 51.0985 27.5919C50.6787 27.5369 49.6938 27.6889 49.4936 27.414L49.4258 26.9224C50.7142 26.531 52.4064 26.738 53.2976 27.8248C53.7013 28.3164 54.205 29.4549 53.1362 29.3578Z" fill="black"/>
<path d="M40.4708 29.9917C41.9078 29.8397 42.0725 32.2848 40.5871 32.3754C39.2114 32.4562 39.2082 30.1243 40.4708 29.9917Z" fill="black"/>
<path d="M42.8286 39.6655C43.4906 39.4973 44.3496 41.273 44.8824 41.4994C45.4152 41.7258 46.3356 41.0886 46.0514 42.1139C45.5024 42.5602 44.947 42.5247 44.356 42.1721C44.2172 42.088 42.7156 40.4256 42.6607 40.3124C42.5444 40.0601 42.567 39.7334 42.8286 39.6655Z" fill="black"/>
<path d="M42.9641 27.6984C42.0793 27.6822 41.5755 27.2779 40.6164 27.3555C39.9609 27.4073 39.5185 27.7922 38.8565 27.6822C38.4109 26.9706 39.4733 26.6763 40.0223 26.5922C40.9006 26.4596 43.1449 26.4143 42.9641 27.6984Z" fill="black"/>
<path d="M60.5418 32.3105C62.4599 32.5531 60.2544 35.3702 59.179 35.0371C58.1037 34.7039 60.038 33.8404 60.2188 33.5299C60.4352 33.1579 60.4126 32.7084 60.5418 32.3105Z" fill="black"/>
<path d="M6.16448 7.79491C5.77697 7.67847 5.84478 6.98633 6.32917 6.98633L16.8242 7.03484C17.1277 7.03484 17.1245 7.84342 16.8209 7.84342L6.16448 7.79167V7.79491Z" fill="black"/>
<path d="M13.0145 10.7345C12.8046 11.0579 6.88867 10.4143 5.99417 10.3787L5.59375 9.81274C5.69386 9.49577 6.37845 9.56046 6.64971 9.56369C7.63785 9.57986 8.86819 9.82891 9.87248 9.90976C10.218 9.93887 13.683 9.70277 13.0145 10.7313V10.7345Z" fill="black"/>
<path d="M7.06833 4.72521L6.98438 4.23683C7.11354 4.05894 7.26532 3.96191 7.48168 3.9231C7.92731 3.84224 11.121 3.86164 11.4795 3.97161C11.6732 4.02983 11.7862 4.20772 11.9154 4.34679L11.6732 4.74785L7.07156 4.72521H7.06833Z" fill="black"/>
</g>
<defs>
<clipPath id="clip0_81_4946">
<rect width="67" height="49" fill="white" transform="translate(0.5)"/>
</clipPath>
</defs>
</svg>
