<svg width="36" height="36" viewBox="0 0 36 36" fill="none" xmlns="http://www.w3.org/2000/svg">
<rect width="36" height="36" rx="5" fill="#C7059D" fill-opacity="0.07"/>
<path d="M20.666 12.333C20.666 11.7807 20.2183 11.333 19.666 11.333C19.1137 11.333 18.666 11.7807 18.666 12.333V15.6663C18.666 16.2186 19.1137 16.6663 19.666 16.6663C20.2183 16.6663 20.666 16.2186 20.666 15.6663V12.333Z" stroke="#C7059D" stroke-width="1.33333" stroke-linecap="round" stroke-linejoin="round"/>
<path d="M20.666 12.333C20.666 11.7807 20.2183 11.333 19.666 11.333C19.1137 11.333 18.666 11.7807 18.666 12.333V15.6663C18.666 16.2186 19.1137 16.6663 19.666 16.6663C20.2183 16.6663 20.666 16.2186 20.666 15.6663V12.333Z" stroke="#C7059D" stroke-width="1.33333" stroke-linecap="round" stroke-linejoin="round"/>
<path d="M22.666 15.667V16.667H23.666C23.8638 16.667 24.0571 16.6083 24.2216 16.4985C24.386 16.3886 24.5142 16.2324 24.5899 16.0497C24.6656 15.867 24.6854 15.6659 24.6468 15.4719C24.6082 15.2779 24.513 15.0997 24.3731 14.9599C24.2333 14.82 24.0551 14.7248 23.8611 14.6862C23.6671 14.6476 23.4661 14.6674 23.2833 14.7431C23.1006 14.8188 22.9444 14.947 22.8345 15.1114C22.7247 15.2759 22.666 15.4692 22.666 15.667Z" stroke="#C7059D" stroke-width="1.33333" stroke-linecap="round" stroke-linejoin="round"/>
<path d="M22.666 15.667V16.667H23.666C23.8638 16.667 24.0571 16.6083 24.2216 16.4985C24.386 16.3886 24.5142 16.2324 24.5899 16.0497C24.6656 15.867 24.6854 15.6659 24.6468 15.4719C24.6082 15.2779 24.513 15.0997 24.3731 14.9599C24.2333 14.82 24.0551 14.7248 23.8611 14.6862C23.6671 14.6476 23.4661 14.6674 23.2833 14.7431C23.1006 14.8188 22.9444 14.947 22.8345 15.1114C22.7247 15.2759 22.666 15.4692 22.666 15.667Z" stroke="#C7059D" stroke-width="1.33333" stroke-linecap="round" stroke-linejoin="round"/>
<path d="M17.334 20.333C17.334 19.7807 16.8863 19.333 16.334 19.333C15.7817 19.333 15.334 19.7807 15.334 20.333V23.6663C15.334 24.2186 15.7817 24.6663 16.334 24.6663C16.8863 24.6663 17.334 24.2186 17.334 23.6663V20.333Z" stroke="#C7059D" stroke-width="1.33333" stroke-linecap="round" stroke-linejoin="round"/>
<path d="M17.334 20.333C17.334 19.7807 16.8863 19.333 16.334 19.333C15.7817 19.333 15.334 19.7807 15.334 20.333V23.6663C15.334 24.2186 15.7817 24.6663 16.334 24.6663C16.8863 24.6663 17.334 24.2186 17.334 23.6663V20.333Z" stroke="#C7059D" stroke-width="1.33333" stroke-linecap="round" stroke-linejoin="round"/>
<path d="M13.334 20.333V19.333H12.334C12.1362 19.333 11.9429 19.3917 11.7784 19.5015C11.614 19.6114 11.4858 19.7676 11.4101 19.9503C11.3344 20.1331 11.3146 20.3341 11.3532 20.5281C11.3918 20.7221 11.487 20.9003 11.6269 21.0401C11.7667 21.18 11.9449 21.2752 12.1389 21.3138C12.3329 21.3524 12.5339 21.3326 12.7167 21.2569C12.8994 21.1812 13.0556 21.053 13.1655 20.8886C13.2753 20.7241 13.334 20.5308 13.334 20.333Z" stroke="#C7059D" stroke-width="1.33333" stroke-linecap="round" stroke-linejoin="round"/>
<path d="M13.334 20.333V19.333H12.334C12.1362 19.333 11.9429 19.3917 11.7784 19.5015C11.614 19.6114 11.4858 19.7676 11.4101 19.9503C11.3344 20.1331 11.3146 20.3341 11.3532 20.5281C11.3918 20.7221 11.487 20.9003 11.6269 21.0401C11.7667 21.18 11.9449 21.2752 12.1389 21.3138C12.3329 21.3524 12.5339 21.3326 12.7167 21.2569C12.8994 21.1812 13.0556 21.053 13.1655 20.8886C13.2753 20.7241 13.334 20.5308 13.334 20.333Z" stroke="#C7059D" stroke-width="1.33333" stroke-linecap="round" stroke-linejoin="round"/>
<path d="M23.6673 18.667H20.334C19.7817 18.667 19.334 19.1147 19.334 19.667C19.334 20.2193 19.7817 20.667 20.334 20.667H23.6673C24.2196 20.667 24.6673 20.2193 24.6673 19.667C24.6673 19.1147 24.2196 18.667 23.6673 18.667Z" stroke="#C7059D" stroke-width="1.33333" stroke-linecap="round" stroke-linejoin="round"/>
<path d="M23.6673 18.667H20.334C19.7817 18.667 19.334 19.1147 19.334 19.667C19.334 20.2193 19.7817 20.667 20.334 20.667H23.6673C24.2196 20.667 24.6673 20.2193 24.6673 19.667C24.6673 19.1147 24.2196 18.667 23.6673 18.667Z" stroke="#C7059D" stroke-width="1.33333" stroke-linecap="round" stroke-linejoin="round"/>
<path d="M20.334 22.667H19.334V23.667C19.334 23.8648 19.3926 24.0581 19.5025 24.2226C19.6124 24.387 19.7686 24.5152 19.9513 24.5909C20.134 24.6666 20.3351 24.6864 20.5291 24.6478C20.7231 24.6092 20.9012 24.514 21.0411 24.3741C21.1809 24.2342 21.2762 24.0561 21.3148 23.8621C21.3534 23.6681 21.3336 23.467 21.2579 23.2843C21.1822 23.1016 21.054 22.9454 20.8896 22.8355C20.7251 22.7256 20.5318 22.667 20.334 22.667Z" stroke="#C7059D" stroke-width="1.33333" stroke-linecap="round" stroke-linejoin="round"/>
<path d="M20.334 22.667H19.334V23.667C19.334 23.8648 19.3926 24.0581 19.5025 24.2226C19.6124 24.387 19.7686 24.5152 19.9513 24.5909C20.134 24.6666 20.3351 24.6864 20.5291 24.6478C20.7231 24.6092 20.9012 24.514 21.0411 24.3741C21.1809 24.2342 21.2762 24.0561 21.3148 23.8621C21.3534 23.6681 21.3336 23.467 21.2579 23.2843C21.1822 23.1016 21.054 22.9454 20.8896 22.8355C20.7251 22.7256 20.5318 22.667 20.334 22.667Z" stroke="#C7059D" stroke-width="1.33333" stroke-linecap="round" stroke-linejoin="round"/>
<path d="M15.6673 15.333H12.334C11.7817 15.333 11.334 15.7807 11.334 16.333C11.334 16.8853 11.7817 17.333 12.334 17.333H15.6673C16.2196 17.333 16.6673 16.8853 16.6673 16.333C16.6673 15.7807 16.2196 15.333 15.6673 15.333Z" stroke="#C7059D" stroke-width="1.33333" stroke-linecap="round" stroke-linejoin="round"/>
<path d="M15.6673 15.333H12.334C11.7817 15.333 11.334 15.7807 11.334 16.333C11.334 16.8853 11.7817 17.333 12.334 17.333H15.6673C16.2196 17.333 16.6673 16.8853 16.6673 16.333C16.6673 15.7807 16.2196 15.333 15.6673 15.333Z" stroke="#C7059D" stroke-width="1.33333" stroke-linecap="round" stroke-linejoin="round"/>
<path d="M15.666 13.333H16.666V12.333C16.666 12.1352 16.6074 11.9419 16.4975 11.7774C16.3876 11.613 16.2314 11.4848 16.0487 11.4091C15.866 11.3334 15.6649 11.3136 15.4709 11.3522C15.2769 11.3908 15.0988 11.486 14.9589 11.6259C14.8191 11.7658 14.7238 11.9439 14.6852 12.1379C14.6466 12.3319 14.6664 12.533 14.7421 12.7157C14.8178 12.8984 14.946 13.0546 15.1104 13.1645C15.2749 13.2744 15.4682 13.333 15.666 13.333Z" stroke="#C7059D" stroke-width="1.33333" stroke-linecap="round" stroke-linejoin="round"/>
<path d="M15.666 13.333H16.666V12.333C16.666 12.1352 16.6074 11.9419 16.4975 11.7774C16.3876 11.613 16.2314 11.4848 16.0487 11.4091C15.866 11.3334 15.6649 11.3136 15.4709 11.3522C15.2769 11.3908 15.0988 11.486 14.9589 11.6259C14.8191 11.7658 14.7238 11.9439 14.6852 12.1379C14.6466 12.3319 14.6664 12.533 14.7421 12.7157C14.8178 12.8984 14.946 13.0546 15.1104 13.1645C15.2749 13.2744 15.4682 13.333 15.666 13.333Z" stroke="#C7059D" stroke-width="1.33333" stroke-linecap="round" stroke-linejoin="round"/>
</svg>
