<svg width="94" height="93" viewBox="0 0 94 93" fill="none" xmlns="http://www.w3.org/2000/svg">
<g clip-path="url(#clip0_76_16679)">
<path d="M47.9348 60.481L47.097 60.6501C44.9107 63.379 42.9669 66.1595 39.0168 65.8174C37.8483 65.7144 36.79 65.0451 35.6987 64.9127C32.873 64.5633 29.9297 65.571 28.3092 67.9579C28.1475 68.1969 27.7066 68.7523 27.7544 69.0024C27.8021 69.2525 28.0777 69.5062 28.4048 69.3554C28.7575 69.1936 29.6835 67.7078 30.3155 67.2076C34.2913 64.0411 36.9259 67.2113 40.8503 66.7185C41.9894 66.575 43.6099 65.7696 44.5101 65.0488C44.9915 64.6589 47.4939 61.9226 47.7327 61.4703C47.9054 61.1393 47.9862 60.8598 47.9385 60.4846L47.9348 60.481ZM29.1948 78.1343C29.3785 77.2369 28.368 76.8177 27.7103 76.4021C25.1822 74.8096 21.5959 73.9747 18.6195 73.8975C17.5429 73.8681 16.8851 74.6919 18.1198 74.9677C19.0164 75.17 20.229 74.9089 21.188 75.0229C23.3008 75.273 25.8767 76.4425 27.7139 77.5017C28.188 77.7739 28.3423 78.377 29.1948 78.1343ZM59.6932 74.6404C59.0796 74.0262 52.9799 78.0902 52.1054 78.7191C50.3894 79.9548 48.2398 81.6208 46.7406 83.0919C46.2445 83.5811 44.6094 84.9713 46.2849 84.8462C49.5259 81.8341 52.9652 79.0206 56.8161 76.814C57.3269 76.5198 59.2964 75.7143 59.5132 75.4679C59.6859 75.273 59.7961 74.7397 59.6932 74.6404Z" fill="white"/>
<path d="M53.6309 27.7487L54.1858 27.6494C54.4724 27.8443 54.5165 28.0613 54.5606 28.385C54.8325 30.5585 54.5128 33.6699 53.1569 35.4573C52.7748 35.9612 51.9811 36.4871 51.7165 36.9579C51.1249 38.0024 50.7244 40.073 50.0887 41.397C47.6562 46.4649 42.8058 50.4627 36.9119 48.6238C32.3996 47.2152 28.8463 42.6915 28.071 38.0722C24.8705 37.8994 22.0816 36.0348 21.8464 32.6181C21.7839 31.7023 22.2947 30.6799 22.1844 30.0915C22.0926 29.5913 20.5677 27.1456 20.2186 26.3438C16.2281 17.1567 18.1976 9.14284 28.2841 5.96524C30.3823 5.30324 32.6348 5.40254 34.3949 4.90971C34.788 4.79938 37.2389 2.89061 38.0106 2.46031C50.7942 -4.64148 60.8183 4.55665 57.6178 18.2233C56.7947 21.7319 55.3763 25.3435 52.7491 27.8774L52.1611 35.1043C52.8189 34.5122 53.6273 32.5004 53.6273 31.7023V27.7487H53.6309ZM33.8804 14.1446C33.5644 14.163 33.4468 16.1159 33.3366 16.5352C32.5833 19.4149 30.4558 21.6988 28.3209 23.6333C28.4752 24.5969 28.8243 25.6487 28.9676 26.5976C29.1734 27.962 29.9634 33.3095 29.2836 34.1775C29.1072 34.4018 29.0889 34.4165 28.8243 34.2805C27.6264 33.6626 27.5713 29.172 24.3708 29.9995C21.6149 30.713 22.9671 34.7291 24.6941 36.02C25.9876 36.9873 27.4574 36.8402 28.8463 37.3808C30.4154 46.2627 40.1528 52.4891 47.1087 44.2987C52.5911 37.8442 51.9443 27.3037 51.0294 19.4075L50.7575 19.128C44.8452 18.8154 38.9439 17.2303 33.8768 14.1409L33.8804 14.1446Z" fill="black"/>
<path d="M8.98479 91.9261L7.1806 84.2432L7.44516 83.6658L40.3982 87.6967C40.6113 87.5054 39.3142 86.3175 39.1158 86.1336C33.3872 80.7972 25.6487 79.5614 18.0682 79.7858C17.4545 79.8042 15.022 80.2198 14.6803 80.0763C14.1071 79.8336 14.2761 79.2819 14.853 79.1422C24.201 78.1418 32.3804 79.2304 39.6633 85.4054C39.8103 85.5305 40.0344 85.8872 40.2145 85.5893C37.94 80.5839 34.1552 76.5089 29.3526 73.8425C24.5537 71.1798 18.9537 70.0323 13.4934 69.8558C13.0488 69.8411 11.4614 69.7601 11.2667 70.036C10.9102 70.7752 12.1816 73.1952 11.5643 73.6439L11.0094 73.7248L9.90341 69.1312C10.4472 69.1202 11.3548 69.0761 11.7517 68.6826C12.0677 68.3699 13.2619 65.4424 13.6661 64.7142C18.0682 56.7666 24.4398 52.265 33.4019 50.5401C33.5746 49.6501 33.0308 48.4143 33.8796 47.8185C36.3195 49.8781 39.9609 50.3672 42.9667 49.3522C44.1389 48.9586 44.8848 48.1495 45.9798 47.7817C46.6669 48.5835 46.7184 49.5397 46.6486 50.5548C55.2322 51.2462 62.6364 57.5279 66.0978 65.1997C66.3917 65.8507 67.4867 68.2302 67.1413 68.7635C66.965 68.9694 66.9172 68.9915 66.671 68.8554C66.4248 68.7193 64.7749 64.5671 64.3597 63.8132C60.7991 57.3256 54.207 52.2576 46.7368 51.4669C43.4591 53.2322 39.4281 54.8394 35.8051 52.8571C35.1657 52.5077 34.2691 51.4926 33.7032 51.4558C32.7405 51.397 28.6471 52.7909 27.5484 53.2212C20.4162 56.031 15.4483 61.8492 12.8467 68.94C18.8619 69.0246 24.7815 70.1794 30.0545 73.14C33.7988 75.24 37.4806 78.7634 39.6707 82.4558C40.2292 83.3974 40.6591 84.7066 41.1809 85.5415C41.3242 85.7695 41.3536 85.9277 41.688 85.8615C44.2565 76.3029 52.921 69.2563 62.5151 67.4873C63.9445 69.2342 63.0075 72.5994 62.0668 68.5906C56.0737 69.7344 50.3084 73.3349 46.5714 78.1528C46.0864 78.7781 45.4837 79.6129 45.1788 80.3448L48.1147 77.4945C52.322 73.7984 59.3146 70.8672 64.9293 70.6024C65.4547 70.5766 67.7072 70.5251 66.5902 71.3453C66.2337 71.6064 62.8495 71.794 62.0374 71.9374C53.575 73.4232 45.1898 79.19 42.4229 87.5165L44.9105 87.156L70.1655 70.4148L70.0222 78.7413C70.1434 79.1569 71.7896 80.0874 72.2857 80.5213C73.6011 81.6688 75.104 83.8129 75.5817 85.4974C75.7985 86.255 76.3423 89.1641 75.6883 89.6385C74.652 90.3925 74.9717 87.568 74.9203 87.0788C74.8321 86.2697 73.9649 83.6732 73.4284 83.1509C73.1969 82.9266 72.8221 82.9229 72.5172 82.956C71.0657 83.0995 67.1707 84.5301 65.6642 85.1222C64.8374 85.4496 62.438 86.038 63.4484 87.1671C64.5177 88.0019 68.3355 86.1299 69.6253 86.3175C70.1802 86.6816 69.3093 87.1082 69.0668 87.2406C67.8873 87.8842 66.1529 87.921 64.8448 88.2557C64.7823 88.572 64.9219 88.6308 65.1608 88.7669C66.1896 89.359 69.5371 88.5867 69.8054 88.9949C70.0148 89.4583 69.3056 89.9107 68.9786 89.9107H66.3146C66.7592 91.1942 70.3345 90.5837 70.6432 91.003L70.724 91.562C69.1844 91.9445 66.6379 91.9077 65.4805 90.6536C64.966 90.0946 64.2238 88.8441 63.7387 88.3513C63.2537 87.8585 62.3718 88.0939 62.2616 87.0641C62.0558 85.1222 63.9114 84.828 65.3519 84.2543C67.5198 83.3937 69.9082 82.6434 72.1975 82.1837C72.6715 81.6872 70.5366 80.4809 70.2683 80.1646C69.8127 80.1646 70.1324 81.838 69.8274 82.2609L69.0741 82.3676V73.2651C69.0741 73.0297 69.6437 72.3934 68.8206 72.2684L46.1415 87.362L46.6816 91.9114C56.1656 92.3233 65.723 92.0328 75.24 92.1063C75.8683 91.9997 76.1696 92.8162 75.567 93.0037L3.42157 92.8198C1.39324 89.9033 0.504003 85.4348 0.731823 81.9079C0.783266 81.1282 1.15072 80.1168 1.08825 79.3555C1.01476 78.4655 0.162273 77.3143 0.0299908 76.3397C-0.212527 74.5707 2.02158 73.243 3.02472 75.0083C4.74439 73.4342 6.67351 72.2941 9.09869 72.9782C10.8882 73.4821 10.4546 74.6737 10.822 74.9311C11.2409 75.2253 12.8761 74.773 13.6771 75.9351C14.3679 76.9318 13.7102 77.3732 13.6441 78.0683C13.6 78.5243 13.927 79.0465 13.7396 79.6644C13.4934 80.4698 11.5643 80.4809 10.9176 81.2495C10.4583 81.7938 10.3811 83.7688 9.82992 83.6511C9.0252 83.4783 9.56903 81.5989 9.84095 81.0914C10.5685 79.7269 11.9464 79.955 12.5968 79.4364C13.9674 78.3441 10.5134 78.1161 9.50289 79.0465C9.05828 79.4585 9.13177 80.3963 8.08453 80.1572C8.01839 79.2084 8.72389 78.2521 9.57271 77.877C10.4656 77.4835 12.832 77.7887 13.0268 77.0936C13.5155 75.3357 8.67245 75.8505 7.5407 76.5824C6.65514 77.1562 6.69189 78.3331 5.69609 78.322C5.21841 76.2625 8.06248 74.9863 9.73806 75.012C10.0063 74.1294 8.86353 73.8278 8.16169 73.7395C5.92024 73.4637 4.07196 75.0488 3.09454 76.9134C0.779592 81.3268 1.47408 87.7298 3.9507 91.9298H9.00316L8.98479 91.9261ZM1.81581 77.5828C1.99953 76.9796 2.94388 75.2878 1.73129 75.2033C0.404791 75.1113 1.27933 77.9837 1.81581 77.5828ZM9.90341 91.9261H39.8507L39.373 88.6051L8.72757 84.7765L8.44463 85.376L9.90709 91.9298L9.90341 91.9261ZM45.7299 91.9261C45.3515 91.0214 45.5536 89.3995 45.142 88.5646C45.0355 88.3476 45.0171 88.2594 44.7378 88.2557C44.1168 88.2483 43.0145 88.5536 42.331 88.6124C41.7541 88.6639 41.1625 88.583 40.5856 88.6124L40.7693 91.9224H45.7299V91.9261Z" fill="black"/>
<path d="M47.9338 60.4807C47.9816 60.8559 47.9008 61.1391 47.7281 61.4664C47.4892 61.9187 44.9869 64.655 44.5055 65.0449C43.6089 65.7657 41.9848 66.5711 40.8457 66.7146C36.925 67.2074 34.2867 64.0371 30.3109 67.2037C29.6788 67.7076 28.7565 69.1897 28.4001 69.3515C28.0731 69.5023 27.7975 69.2486 27.7497 68.9985C27.7019 68.7484 28.1392 68.193 28.3046 67.954C29.925 65.5671 32.8683 64.5594 35.694 64.9088C36.789 65.0449 37.8436 65.7142 39.0121 65.8135C42.9622 66.1555 44.9024 63.3715 47.0924 60.6462L47.9302 60.4771L47.9338 60.4807Z" fill="black"/>
<path d="M59.6926 74.6406C59.7954 74.7436 59.6815 75.2732 59.5125 75.4681C59.2957 75.7145 57.3262 76.52 56.8154 76.8142C52.9645 79.0209 49.5215 81.8344 46.2842 84.8465C44.6087 84.9715 46.2438 83.5776 46.7399 83.0922C48.2391 81.6247 50.3887 79.9587 52.1047 78.7193C52.9792 78.0904 59.0826 74.0264 59.6926 74.6406Z" fill="black"/>
<path d="M29.1941 78.1341C28.3416 78.3805 28.1873 77.7736 27.7133 77.5015C25.876 76.4423 23.3039 75.2727 21.1873 75.0227C20.2283 74.9086 19.0157 75.1698 18.1191 74.9675C16.8882 74.6917 17.5459 73.8678 18.6189 73.8973C21.5952 73.9745 25.1815 74.8093 27.7096 76.4018C28.3674 76.8137 29.3742 77.2367 29.1941 78.1341Z" fill="black"/>
<path d="M1.81637 77.5829C1.27989 77.9837 0.409029 75.1114 1.73185 75.2033C2.94444 75.2879 1.99642 76.9797 1.81637 77.5829Z" fill="white"/>
<path d="M40.13 29.4072C41.2544 29.0762 40.571 31.7021 40.5857 32.2501C40.593 32.5075 40.7473 33.655 40.8135 33.872C40.8943 34.1405 42.0003 35.0526 41.214 35.2806C39.7809 35.6998 39.634 32.3641 39.6634 31.5145C39.6744 31.1468 39.8655 29.4881 40.13 29.4108V29.4072Z" fill="black"/>
<path d="M32.5017 28.3005C32.5017 26.2924 35.6398 24.8617 37.0912 26.1894C37.2198 26.8036 35.107 26.5977 34.3904 26.9765C33.5526 27.4215 33.549 28.4844 32.498 28.3005H32.5017Z" fill="black"/>
<path d="M45.6004 29.459C46.824 28.466 48.3453 30.3306 47.1952 31.3273C45.9238 32.4306 44.3768 30.4556 45.6004 29.459Z" fill="black"/>
<path d="M35.39 29.4406C37.1905 29.0361 37.389 31.4781 36.0404 31.7613C34.5155 32.0813 33.8798 29.7827 35.39 29.4406Z" fill="black"/>
<path d="M44.2599 39.3336C44.2673 40.5252 41.2652 43.4747 40.3025 41.9154C39.7072 40.9518 41.2248 41.4703 41.6841 41.2644C42.5072 40.8929 43.0253 38.8076 44.2599 39.3336Z" fill="black"/>
<path d="M48.2948 26.8219C47.4313 27.1566 46.9536 26.2224 46.0092 26.2629C45.2927 26.296 44.0434 27.4398 43.709 26.3696C44.363 25.6708 45.4213 25.2809 46.3693 25.3508C47.0859 25.4023 48.5887 25.8804 48.2948 26.8219Z" fill="black"/>
<path d="M25.2454 31.2461C25.848 31.647 25.6092 32.3053 25.9877 32.8937C26.3919 33.5263 27.88 33.7911 26.6895 34.5267C25.521 34.1405 23.7536 32.1986 25.2454 31.2498V31.2461Z" fill="black"/>
</g>
<defs>
<clipPath id="clip0_76_16679">
<rect width="76" height="93" fill="white"/>
</clipPath>
</defs>
</svg>
