<svg width="98" height="98" viewBox="0 0 98 98" fill="none" xmlns="http://www.w3.org/2000/svg">
<path d="M40.5751 63.2915C40.2105 61.8784 39.474 60.5888 38.442 59.5569C37.4101 58.5249 36.1204 57.7883 34.7073 57.4238L9.65607 50.964C9.22867 50.8426 8.8525 50.5852 8.58465 50.2308C8.3168 49.8763 8.17188 49.4442 8.17188 48.9999C8.17188 48.5556 8.3168 48.1234 8.58465 47.769C8.8525 47.4145 9.22867 47.1571 9.65607 47.0358L34.7073 40.5719C36.1199 40.2077 37.4092 39.4717 38.4411 38.4405C39.473 37.4093 40.2099 36.1206 40.5751 34.7082L47.0349 9.65696C47.155 9.22788 47.4121 8.84986 47.7671 8.58057C48.1221 8.31129 48.5555 8.16553 49.001 8.16553C49.4466 8.16553 49.8799 8.31129 50.2349 8.58057C50.5899 8.84986 50.8471 9.22788 50.9672 9.65696L57.4229 34.7082C57.7875 36.1213 58.524 37.411 59.556 38.4429C60.5879 39.4748 61.8775 40.2114 63.2907 40.576L88.3419 47.0317C88.7727 47.1505 89.1526 47.4074 89.4233 47.7629C89.6941 48.1185 89.8407 48.553 89.8407 48.9999C89.8407 49.4467 89.6941 49.8813 89.4233 50.2368C89.1526 50.5923 88.7727 50.8492 88.3419 50.968L63.2907 57.4238C61.8775 57.7883 60.5879 58.5249 59.556 59.5569C58.524 60.5888 57.7875 61.8784 57.4229 63.2915L50.9631 88.3428C50.843 88.7719 50.5858 89.1499 50.2308 89.4192C49.8759 89.6885 49.4425 89.8342 48.9969 89.8342C48.5514 89.8342 48.118 89.6885 47.763 89.4192C47.4081 89.1499 47.1509 88.7719 47.0308 88.3428L40.5751 63.2915Z" fill="white"/>
<path d="M81.6659 12.2499V28.5832V12.2499Z" fill="white"/>
<path d="M89.8326 20.4165H73.4992H89.8326Z" fill="white"/>
<path d="M16.3326 69.4165V77.5832V69.4165Z" fill="white"/>
<path d="M20.4159 73.4999H12.2492H20.4159Z" fill="white"/>
<path d="M81.6659 12.2499V28.5832M89.8326 20.4165H73.4992M16.3326 69.4165V77.5832M20.4159 73.4999H12.2492M40.5751 63.2915C40.2105 61.8784 39.474 60.5888 38.442 59.5569C37.4101 58.5249 36.1204 57.7883 34.7073 57.4238L9.65607 50.964C9.22867 50.8426 8.8525 50.5852 8.58465 50.2308C8.3168 49.8763 8.17188 49.4442 8.17188 48.9999C8.17188 48.5556 8.3168 48.1234 8.58465 47.769C8.8525 47.4145 9.22867 47.1571 9.65607 47.0358L34.7073 40.5719C36.1199 40.2077 37.4092 39.4717 38.4411 38.4405C39.473 37.4093 40.2099 36.1206 40.5751 34.7082L47.0349 9.65696C47.155 9.22788 47.4121 8.84986 47.7671 8.58057C48.1221 8.31129 48.5555 8.16553 49.001 8.16553C49.4466 8.16553 49.8799 8.31129 50.2349 8.58057C50.5899 8.84986 50.8471 9.22788 50.9672 9.65696L57.4229 34.7082C57.7875 36.1213 58.524 37.411 59.556 38.4429C60.5879 39.4748 61.8775 40.2114 63.2907 40.576L88.3419 47.0317C88.7727 47.1505 89.1526 47.4074 89.4233 47.7629C89.6941 48.1185 89.8407 48.553 89.8407 48.9999C89.8407 49.4467 89.6941 49.8813 89.4233 50.2368C89.1526 50.5923 88.7727 50.8492 88.3419 50.968L63.2907 57.4238C61.8775 57.7883 60.5879 58.5249 59.556 59.5569C58.524 60.5888 57.7875 61.8784 57.4229 63.2915L50.9631 88.3428C50.843 88.7719 50.5858 89.1499 50.2308 89.4192C49.8759 89.6885 49.4425 89.8342 48.9969 89.8342C48.5514 89.8342 48.118 89.6885 47.763 89.4192C47.4081 89.1499 47.1509 88.7719 47.0308 88.3428L40.5751 63.2915Z" stroke="white" stroke-width="4" stroke-linecap="round" stroke-linejoin="round"/>
</svg>
