<svg width="200" height="144" viewBox="0 0 200 144" fill="none" xmlns="http://www.w3.org/2000/svg">
<path d="M1 6C1 3.23858 3.23858 1 6 1H194C196.761 1 199 3.23857 199 6V138C199 140.761 196.761 143 194 143H5.99999C3.23857 143 1 140.761 1 138V6Z" stroke="#F1F5F9" stroke-width="2"/>
<path d="M4.5 8C4.5 5.79086 6.29086 4 8.5 4H100.5V140H8.5C6.29086 140 4.5 138.209 4.5 136V8Z" fill="#020617"/>
<g filter="url(#filter0_d_422_9878)">
<path d="M12.5 18C12.5 14.6863 15.1863 12 18.5 12H86.5C89.8137 12 92.5 14.6863 92.5 18V46C92.5 49.3137 89.8137 52 86.5 52H18.5C15.1863 52 12.5 49.3137 12.5 46V18Z" fill="#1E293B" shape-rendering="crispEdges"/>
<path d="M20.5 24C20.5 21.7909 22.2909 20 24.5 20H80.5C82.7091 20 84.5 21.7909 84.5 24C84.5 26.2091 82.7091 28 80.5 28H24.5C22.2909 28 20.5 26.2091 20.5 24Z" fill="#94A3B8"/>
<path d="M20.5 40C20.5 37.7909 22.2909 36 24.5 36H80.5C82.7091 36 84.5 37.7909 84.5 40C84.5 42.2091 82.7091 44 80.5 44H24.5C22.2909 44 20.5 42.2091 20.5 40Z" fill="#94A3B8"/>
</g>
<g filter="url(#filter1_d_422_9878)">
<path d="M12.5 66C12.5 62.6863 15.1863 60 18.5 60H86.5C89.8137 60 92.5 62.6863 92.5 66V86C92.5 89.3137 89.8137 92 86.5 92H18.5C15.1863 92 12.5 89.3137 12.5 86V66Z" fill="#1E293B" shape-rendering="crispEdges"/>
<path d="M20.5 76C20.5 71.5817 24.0817 68 28.5 68C32.9183 68 36.5 71.5817 36.5 76C36.5 80.4183 32.9183 84 28.5 84C24.0817 84 20.5 80.4183 20.5 76Z" fill="#94A3B8"/>
<path d="M44.5 76C44.5 73.7909 46.2909 72 48.5 72H72.5C74.7091 72 76.5 73.7909 76.5 76C76.5 78.2091 74.7091 80 72.5 80H48.5C46.2909 80 44.5 78.2091 44.5 76Z" fill="#94A3B8"/>
</g>
<g filter="url(#filter2_d_422_9878)">
<path d="M12.5 106C12.5 102.686 15.1863 100 18.5 100H86.5C89.8137 100 92.5 102.686 92.5 106V126C92.5 129.314 89.8137 132 86.5 132H18.5C15.1863 132 12.5 129.314 12.5 126V106Z" fill="#1E293B" shape-rendering="crispEdges"/>
<path d="M20.5 116C20.5 111.582 24.0817 108 28.5 108C32.9183 108 36.5 111.582 36.5 116C36.5 120.418 32.9183 124 28.5 124C24.0817 124 20.5 120.418 20.5 116Z" fill="#94A3B8"/>
<path d="M44.5 116C44.5 113.791 46.2909 112 48.5 112H72.5C74.7091 112 76.5 113.791 76.5 116C76.5 118.209 74.7091 120 72.5 120H48.5C46.2909 120 44.5 118.209 44.5 116Z" fill="#94A3B8"/>
</g>
<path d="M100.5 4H191.5C193.709 4 195.5 5.79086 195.5 8V136C195.5 138.209 193.709 140 191.5 140H100.5V4Z" fill="#ECEDEF"/>
<g filter="url(#filter3_d_422_9878)">
<path d="M108.5 18C108.5 14.6863 111.186 12 114.5 12H181.5C184.814 12 187.5 14.6863 187.5 18V46C187.5 49.3137 184.814 52 181.5 52H114.5C111.186 52 108.5 49.3137 108.5 46V18Z" fill="white" shape-rendering="crispEdges"/>
<path d="M116.5 24C116.5 21.7909 118.291 20 120.5 20H154.5C156.709 20 158.5 21.7909 158.5 24C158.5 26.2091 156.709 28 154.5 28H120.5C118.291 28 116.5 26.2091 116.5 24Z" fill="#ECEDEF"/>
<path d="M116.5 40C116.5 37.7909 118.291 36 120.5 36H165.5C167.709 36 169.5 37.7909 169.5 40C169.5 42.2091 167.709 44 165.5 44H120.5C118.291 44 116.5 42.2091 116.5 40Z" fill="#ECEDEF"/>
</g>
<g filter="url(#filter4_d_422_9878)">
<path d="M108.5 66C108.5 62.6863 111.186 60 114.5 60H181.5C184.814 60 187.5 62.6863 187.5 66V86C187.5 89.3137 184.814 92 181.5 92H114.5C111.186 92 108.5 89.3137 108.5 86V66Z" fill="white" shape-rendering="crispEdges"/>
<path d="M116.5 76C116.5 71.5817 120.082 68 124.5 68C128.918 68 132.5 71.5817 132.5 76C132.5 80.4183 128.918 84 124.5 84C120.082 84 116.5 80.4183 116.5 76Z" fill="#ECEDEF"/>
<path d="M140.5 76C140.5 73.7909 142.291 72 144.5 72H162.5C164.709 72 166.5 73.7909 166.5 76C166.5 78.2091 164.709 80 162.5 80H144.5C142.291 80 140.5 78.2091 140.5 76Z" fill="#ECEDEF"/>
</g>
<g filter="url(#filter5_d_422_9878)">
<path d="M108.5 106C108.5 102.686 111.186 100 114.5 100H181.5C184.814 100 187.5 102.686 187.5 106V126C187.5 129.314 184.814 132 181.5 132H114.5C111.186 132 108.5 129.314 108.5 126V106Z" fill="white" shape-rendering="crispEdges"/>
<path d="M116.5 116C116.5 111.582 120.082 108 124.5 108C128.918 108 132.5 111.582 132.5 116C132.5 120.418 128.918 124 124.5 124C120.082 124 116.5 120.418 116.5 116Z" fill="#ECEDEF"/>
<path d="M140.5 116C140.5 113.791 142.291 112 144.5 112H163.5C165.709 112 167.5 113.791 167.5 116C167.5 118.209 165.709 120 163.5 120H144.5C142.291 120 140.5 118.209 140.5 116Z" fill="#ECEDEF"/>
</g>
<defs>
<filter id="filter0_d_422_9878" x="10.5" y="11" width="84" height="44" filterUnits="userSpaceOnUse" color-interpolation-filters="sRGB">
<feFlood flood-opacity="0" result="BackgroundImageFix"/>
<feColorMatrix in="SourceAlpha" type="matrix" values="0 0 0 0 0 0 0 0 0 0 0 0 0 0 0 0 0 0 127 0" result="hardAlpha"/>
<feOffset dy="1"/>
<feGaussianBlur stdDeviation="1"/>
<feComposite in2="hardAlpha" operator="out"/>
<feColorMatrix type="matrix" values="0 0 0 0 0 0 0 0 0 0 0 0 0 0 0 0 0 0 0.05 0"/>
<feBlend mode="normal" in2="BackgroundImageFix" result="effect1_dropShadow_422_9878"/>
<feBlend mode="normal" in="SourceGraphic" in2="effect1_dropShadow_422_9878" result="shape"/>
</filter>
<filter id="filter1_d_422_9878" x="10.5" y="59" width="84" height="36" filterUnits="userSpaceOnUse" color-interpolation-filters="sRGB">
<feFlood flood-opacity="0" result="BackgroundImageFix"/>
<feColorMatrix in="SourceAlpha" type="matrix" values="0 0 0 0 0 0 0 0 0 0 0 0 0 0 0 0 0 0 127 0" result="hardAlpha"/>
<feOffset dy="1"/>
<feGaussianBlur stdDeviation="1"/>
<feComposite in2="hardAlpha" operator="out"/>
<feColorMatrix type="matrix" values="0 0 0 0 0 0 0 0 0 0 0 0 0 0 0 0 0 0 0.05 0"/>
<feBlend mode="normal" in2="BackgroundImageFix" result="effect1_dropShadow_422_9878"/>
<feBlend mode="normal" in="SourceGraphic" in2="effect1_dropShadow_422_9878" result="shape"/>
</filter>
<filter id="filter2_d_422_9878" x="10.5" y="99" width="84" height="36" filterUnits="userSpaceOnUse" color-interpolation-filters="sRGB">
<feFlood flood-opacity="0" result="BackgroundImageFix"/>
<feColorMatrix in="SourceAlpha" type="matrix" values="0 0 0 0 0 0 0 0 0 0 0 0 0 0 0 0 0 0 127 0" result="hardAlpha"/>
<feOffset dy="1"/>
<feGaussianBlur stdDeviation="1"/>
<feComposite in2="hardAlpha" operator="out"/>
<feColorMatrix type="matrix" values="0 0 0 0 0 0 0 0 0 0 0 0 0 0 0 0 0 0 0.05 0"/>
<feBlend mode="normal" in2="BackgroundImageFix" result="effect1_dropShadow_422_9878"/>
<feBlend mode="normal" in="SourceGraphic" in2="effect1_dropShadow_422_9878" result="shape"/>
</filter>
<filter id="filter3_d_422_9878" x="106.5" y="11" width="83" height="44" filterUnits="userSpaceOnUse" color-interpolation-filters="sRGB">
<feFlood flood-opacity="0" result="BackgroundImageFix"/>
<feColorMatrix in="SourceAlpha" type="matrix" values="0 0 0 0 0 0 0 0 0 0 0 0 0 0 0 0 0 0 127 0" result="hardAlpha"/>
<feOffset dy="1"/>
<feGaussianBlur stdDeviation="1"/>
<feComposite in2="hardAlpha" operator="out"/>
<feColorMatrix type="matrix" values="0 0 0 0 0 0 0 0 0 0 0 0 0 0 0 0 0 0 0.05 0"/>
<feBlend mode="normal" in2="BackgroundImageFix" result="effect1_dropShadow_422_9878"/>
<feBlend mode="normal" in="SourceGraphic" in2="effect1_dropShadow_422_9878" result="shape"/>
</filter>
<filter id="filter4_d_422_9878" x="106.5" y="59" width="83" height="36" filterUnits="userSpaceOnUse" color-interpolation-filters="sRGB">
<feFlood flood-opacity="0" result="BackgroundImageFix"/>
<feColorMatrix in="SourceAlpha" type="matrix" values="0 0 0 0 0 0 0 0 0 0 0 0 0 0 0 0 0 0 127 0" result="hardAlpha"/>
<feOffset dy="1"/>
<feGaussianBlur stdDeviation="1"/>
<feComposite in2="hardAlpha" operator="out"/>
<feColorMatrix type="matrix" values="0 0 0 0 0 0 0 0 0 0 0 0 0 0 0 0 0 0 0.05 0"/>
<feBlend mode="normal" in2="BackgroundImageFix" result="effect1_dropShadow_422_9878"/>
<feBlend mode="normal" in="SourceGraphic" in2="effect1_dropShadow_422_9878" result="shape"/>
</filter>
<filter id="filter5_d_422_9878" x="106.5" y="99" width="83" height="36" filterUnits="userSpaceOnUse" color-interpolation-filters="sRGB">
<feFlood flood-opacity="0" result="BackgroundImageFix"/>
<feColorMatrix in="SourceAlpha" type="matrix" values="0 0 0 0 0 0 0 0 0 0 0 0 0 0 0 0 0 0 127 0" result="hardAlpha"/>
<feOffset dy="1"/>
<feGaussianBlur stdDeviation="1"/>
<feComposite in2="hardAlpha" operator="out"/>
<feColorMatrix type="matrix" values="0 0 0 0 0 0 0 0 0 0 0 0 0 0 0 0 0 0 0.05 0"/>
<feBlend mode="normal" in2="BackgroundImageFix" result="effect1_dropShadow_422_9878"/>
<feBlend mode="normal" in="SourceGraphic" in2="effect1_dropShadow_422_9878" result="shape"/>
</filter>
</defs>
</svg>
