<svg width="144" height="103" viewBox="0 0 144 103" fill="none" xmlns="http://www.w3.org/2000/svg">
<path d="M101.386 97.7699C97.5845 97.8978 48.188 98.9908 39.1895 98.6993C39.0628 98.6952 38.9394 98.7404 38.8455 98.8255C38.7515 98.9106 38.6943 99.0288 38.6859 99.1552C38.6859 99.1552 38.6212 100.025 38.8566 100.937C38.9744 101.392 39.1671 101.873 39.5206 102.268C39.8742 102.663 40.4112 102.949 41.0658 102.962C41.6345 102.974 45.1672 102.983 50.2305 102.99C55.2937 102.996 61.8573 103 68.3901 103C74.9228 103 81.4245 102.996 86.3636 102.987C88.8332 102.982 90.9122 102.976 92.4095 102.968C93.1582 102.965 93.7616 102.96 94.1964 102.956C94.6312 102.951 94.8553 102.95 94.9957 102.939C95.3845 102.909 95.9683 102.764 96.7575 102.554C97.5467 102.344 98.5007 102.069 99.4621 101.778C101.385 101.197 103.308 100.57 104.052 100.267C104.406 100.123 104.71 99.9288 104.917 99.6319C105.021 99.4835 105.1 99.2989 105.104 99.0898C105.109 98.8807 105.027 98.6635 104.895 98.5013C104.632 98.1768 104.233 98.0156 103.673 97.9013C103.114 97.787 102.374 97.7365 101.386 97.7699ZM101.419 98.7467C102.355 98.7151 103.032 98.7675 103.478 98.8585C103.886 98.9419 104.037 99.0581 104.081 99.0958C104.026 99.1612 103.895 99.2757 103.683 99.362C103.057 99.6171 101.088 100.266 99.1795 100.842C98.2254 101.13 97.2792 101.404 96.5065 101.61C95.7339 101.815 95.0944 101.951 94.921 101.965C94.9209 101.965 94.6176 101.974 94.186 101.978C93.7545 101.983 93.1523 101.987 92.4046 101.991C90.9092 101.998 88.831 102.005 86.362 102.009C81.4239 102.019 74.9224 102.023 68.3901 102.023C61.8577 102.023 55.2942 102.019 50.2316 102.012C45.1689 102.005 41.5769 101.995 41.086 101.985C40.681 101.977 40.4509 101.842 40.249 101.616C40.0472 101.391 39.8963 101.053 39.8033 100.692C39.7083 100.324 39.6741 99.9559 39.6625 99.6761C49.5222 99.9445 97.5594 98.8766 101.419 98.7467Z" fill="black"/>
<path fill-rule="evenodd" clip-rule="evenodd" d="M39.1722 99.188C39.1722 99.188 38.9557 102.43 41.0749 102.474C43.1941 102.517 93.8328 102.538 94.9571 102.452C96.0815 102.366 102.496 100.373 103.866 99.8149C105.034 99.3393 105.25 98.1287 101.401 98.2586C97.5521 98.3882 48.2672 99.4826 39.1722 99.188Z" fill="black"/>
<path d="M81.5563 72.6674C80.8032 72.6674 71.4412 72.7752 61.9672 72.8833C52.4931 72.9915 42.921 73.0999 41.9841 73.0999C41.0336 73.0999 40.3726 72.9762 39.74 73.312C39.4237 73.48 39.1788 73.7802 39.022 74.1504C38.8652 74.5205 38.7677 74.9722 38.6821 75.5728C38.5829 76.2682 38.553 77.9778 38.538 80.2984C38.5231 82.6189 38.5345 85.4907 38.556 88.2899C38.5991 93.8885 38.6837 99.1957 38.6837 99.1957C38.6847 99.2599 38.6983 99.3232 38.7238 99.3821C38.7493 99.4411 38.7862 99.4944 38.8323 99.539C38.8784 99.5837 38.9328 99.6189 38.9925 99.6425C39.0522 99.6661 39.116 99.6778 39.1802 99.6768C39.3098 99.6746 39.4332 99.6211 39.5233 99.528C39.6135 99.435 39.6629 99.3099 39.6609 99.1804C39.6609 99.1804 39.5768 93.8763 39.5338 88.2829C39.5122 85.4861 39.5009 82.6166 39.5158 80.3044C39.5307 77.9922 39.5835 76.1775 39.65 75.7108C39.73 75.1496 39.8237 74.7637 39.9223 74.5311C40.0208 74.2984 40.0953 74.2304 40.1989 74.1755C40.406 74.0655 40.9883 74.0773 41.9841 74.0773C42.9935 74.0773 52.5045 73.9689 61.9786 73.8607C71.4527 73.7526 80.9036 73.6448 81.5563 73.6448C82.1775 73.6448 82.3957 73.75 82.5744 74.02C82.753 74.29 82.8798 74.8749 82.9061 75.8177C82.9543 77.5553 82.1713 95.5114 81.6163 98.6072C81.6049 98.6704 81.6062 98.7351 81.6199 98.7978C81.6336 98.8605 81.6596 98.9199 81.6963 98.9726C81.7329 99.0253 81.7796 99.0702 81.8337 99.1048C81.8878 99.1395 81.9481 99.1631 82.0113 99.1744C82.1388 99.1973 82.2703 99.1686 82.3767 99.0947C82.4831 99.0207 82.5557 98.9076 82.5787 98.7801C83.2143 95.2346 83.943 77.944 83.8833 75.7905C83.8554 74.7877 83.7656 74.0482 83.3901 73.4806C83.0145 72.9129 82.3405 72.6674 81.5563 72.6674Z" fill="black"/>
<path d="M50.5083 24.8767C49.8486 24.8349 49.1628 24.872 48.4541 24.9891C48.3262 25.0102 48.2119 25.0813 48.1364 25.1866C48.0609 25.292 48.0303 25.423 48.0515 25.5509C48.0726 25.6788 48.1437 25.793 48.2491 25.8685C48.3544 25.944 48.4855 25.9745 48.6134 25.9534C51.1888 25.5277 53.2367 26.2082 54.9605 28.0217C55.0048 28.0682 55.0577 28.1055 55.1164 28.1316C55.1751 28.1577 55.2384 28.1719 55.3026 28.1735C55.3668 28.1752 55.4307 28.1641 55.4906 28.1411C55.5505 28.118 55.6053 28.0833 55.6518 28.0391C55.7457 27.9498 55.8002 27.8269 55.8035 27.6975C55.8068 27.568 55.7585 27.4425 55.6693 27.3486C54.2334 25.8381 52.4876 25.0023 50.5083 24.8767Z" fill="black"/>
<path d="M62.2686 28.1721C61.2834 28.1402 60.3627 28.439 59.5383 28.9597C59.4287 29.0289 59.3511 29.1388 59.3225 29.2653C59.294 29.3917 59.3169 29.5243 59.3861 29.6339C59.4553 29.7434 59.5653 29.821 59.6918 29.8496C59.8182 29.8781 59.9509 29.8552 60.0605 29.786C60.9899 29.199 61.924 28.9795 63.0297 29.2646C63.0918 29.2807 63.1566 29.2844 63.2201 29.2755C63.2837 29.2665 63.3449 29.2452 63.4003 29.2126C63.4556 29.1801 63.504 29.1369 63.5426 29.0857C63.5812 29.0344 63.6094 28.976 63.6255 28.9139C63.6416 28.8517 63.6452 28.787 63.6363 28.7234C63.6273 28.6598 63.6059 28.5986 63.5733 28.5433C63.5407 28.488 63.4974 28.4396 63.4461 28.401C63.3948 28.3624 63.3363 28.3343 63.2741 28.3183C62.9326 28.2302 62.5969 28.1828 62.2686 28.1721Z" fill="black"/>
<path d="M48.5564 0.0102677C46.8044 0.10617 45.1048 0.879585 43.9558 2.40032C42.9111 3.783 42.3748 5.78836 42.5448 8.35689C41.9918 8.17632 41.2242 7.97154 40.2074 7.91292C38.5021 7.8146 36.3486 8.244 34.9248 10.2773C33.2918 12.609 32.5997 15.7501 32.4019 18.2383C32.4019 18.2385 32.4019 18.2387 32.4019 18.2389C32.3351 19.0812 32.0668 21.4467 32.1509 24.0766C32.2351 26.7065 32.6488 29.6295 34.0639 31.6962C34.9506 32.9913 36.3089 33.3531 37.4963 33.1901C38.6837 33.027 39.7394 32.4235 40.3619 31.7523C40.6691 31.4209 40.8909 31.0868 40.7858 30.6697C40.7333 30.4611 40.5884 30.2996 40.4497 30.2055C40.311 30.1115 40.1724 30.0625 40.0334 30.0255C39.4776 29.8774 38.8102 29.9047 38.5128 29.8646C37.8194 29.7713 37.1513 29.1514 36.8165 28.302C36.4817 27.4526 36.4929 26.4368 37.0456 25.6196C37.6003 24.7994 38.2553 24.6841 38.9444 24.8331C39.6335 24.9821 40.3064 25.504 40.5414 25.9038C40.7799 26.3098 40.9064 27.1295 40.9718 27.9251C41.0045 28.3229 41.0288 28.7154 41.0706 29.0678C41.1124 29.4201 41.1524 29.7252 41.3145 30.0184C41.58 30.4986 42.1076 30.883 42.7293 30.7815C43.351 30.68 43.8438 30.104 44.1091 29.1447C44.609 27.3375 45.535 21.8665 49.3508 19.6696C50.8875 21.1824 52.5232 22.1659 54.263 22.5047C56.0116 22.8452 57.8397 22.5218 59.6989 21.5949C61.593 23.5096 63.29 24.6496 64.8096 25.1249C66.3979 25.6216 67.8163 25.3777 68.8974 24.598C71.0596 23.0386 71.9175 19.6137 71.6876 16.0561C71.4577 12.4986 70.1034 8.74434 67.4411 6.50083C64.8806 4.34315 61.0893 3.73622 56.2915 6.06995C55.4395 2.07745 51.8836 -0.171855 48.5564 0.0102677ZM48.6099 0.986577C51.6181 0.821913 54.9528 2.92571 55.4688 6.82752C55.4791 6.90558 55.5082 6.97997 55.5535 7.04438C55.5988 7.10879 55.659 7.16131 55.7289 7.19746C55.7989 7.23361 55.8766 7.25233 55.9554 7.25202C56.0341 7.25171 56.1116 7.23239 56.1813 7.19569C61.0212 4.64351 64.4398 5.24987 66.8109 7.24805C69.1821 9.24622 70.4949 12.7676 70.7115 16.1194C70.9281 19.4711 70.0122 22.5891 68.3256 23.8055C67.4823 24.4137 66.4573 24.6161 65.1021 24.1922C63.7469 23.7683 62.0786 22.6784 60.1512 20.6758C60.0772 20.599 59.9801 20.5484 59.8747 20.5319C59.7693 20.5153 59.6614 20.5337 59.5674 20.5842C57.7455 21.5637 56.0604 21.8589 54.4496 21.5452C52.8387 21.2316 51.2766 20.2965 49.7529 18.7118C49.6802 18.6362 49.5851 18.586 49.4816 18.5686C49.3782 18.5512 49.2718 18.5676 49.1784 18.6152C44.5293 20.9911 43.6108 27.2789 43.1668 28.8839C42.954 29.6535 42.685 29.7981 42.5716 29.8166C42.4582 29.8351 42.2772 29.7383 42.1706 29.5455C42.1466 29.5022 42.078 29.2627 42.0412 28.9527C42.0044 28.6426 41.98 28.255 41.9463 27.8449C41.8789 27.0247 41.8017 26.118 41.3849 25.4085C40.9642 24.6926 40.1316 24.09 39.1511 23.878C38.1707 23.666 36.9917 23.9535 36.2354 25.072H36.236C35.4777 26.193 35.4712 27.5547 35.907 28.6603C36.3427 29.7659 37.2334 30.6786 38.3824 30.8333C38.8359 30.8944 39.4299 30.8954 39.735 30.9658C39.709 31.0048 39.7041 31.0242 39.6449 31.088C39.2154 31.5512 38.2879 32.0949 37.3632 32.2219C36.4384 32.3489 35.5551 32.1437 34.8708 31.1442C33.6543 29.3674 33.2096 26.5904 33.1281 24.0455C33.0467 21.5005 33.3055 19.2166 33.3769 18.3158C33.5652 15.9466 34.2585 12.9331 35.7258 10.838C36.9258 9.1243 38.6427 8.80171 40.1513 8.88868C41.6599 8.97565 42.869 9.50228 42.869 9.50228C42.9479 9.5368 43.0345 9.54987 43.1201 9.54016C43.2057 9.53045 43.2872 9.49831 43.3563 9.44699C43.4255 9.39568 43.4799 9.327 43.514 9.24793C43.548 9.16885 43.5606 9.08217 43.5504 8.99668C43.2185 6.22274 43.7686 4.26978 44.736 2.98937C45.7035 1.70897 47.1058 1.06891 48.6099 0.986577Z" fill="black"/>
<path fill-rule="evenodd" clip-rule="evenodd" d="M43.962 27.6894L41.2224 26.3046C41.1562 26.0633 41.0719 25.8427 40.9623 25.6562C40.3067 24.5405 37.9509 23.407 36.6399 25.3456C35.3289 27.284 36.6044 30.1008 38.4468 30.3488C39.2133 30.4521 41.0542 30.2857 40.0025 31.4203C38.9504 32.5546 36.0376 33.715 34.4665 31.4203C31.835 27.5769 32.7505 20.0205 32.8888 18.2774C33.0818 15.8487 33.7746 12.771 35.3247 10.5576C37.9484 6.81049 43.0645 9.05461 43.0645 9.05461C41.6934 -2.40443 54.8546 -1.53902 55.9524 6.7633C75.777 -3.6907 75.503 37.3322 59.7983 21.0149C56.0025 23.0557 52.546 22.3224 49.3999 19.0503C45.8382 20.8705 44.5682 25.2186 43.962 27.6894Z" fill="black"/>
<path d="M41.0707 25.8405C40.9476 25.8809 40.8455 25.9686 40.787 26.0843C40.758 26.1415 40.7406 26.204 40.7358 26.2679C40.7309 26.3319 40.7387 26.3963 40.7587 26.4572C40.7788 26.5182 40.8106 26.5747 40.8524 26.6233C40.8942 26.672 40.9453 26.712 41.0025 26.741L47.5646 30.0571C47.6119 30.081 47.6628 30.097 47.7152 30.1046L64.7656 32.5617C64.8291 32.5709 64.8939 32.5675 64.9561 32.5517C65.0183 32.5358 65.0768 32.5079 65.1283 32.4694C65.1797 32.431 65.223 32.3828 65.2558 32.3276C65.2886 32.2724 65.3102 32.2113 65.3194 32.1478C65.3286 32.0842 65.3251 32.0195 65.3093 31.9573C65.2935 31.8951 65.2655 31.8366 65.227 31.7852C65.1886 31.7338 65.1404 31.6905 65.0852 31.6577C65.0299 31.6249 64.9688 31.6033 64.9053 31.5941L47.934 29.149L41.4439 25.8683C41.3866 25.8394 41.3241 25.822 41.2601 25.8173C41.1961 25.8125 41.1317 25.8204 41.0707 25.8405Z" fill="black"/>
<path d="M47.7968 29.1211C47.7327 29.1172 47.6685 29.126 47.6078 29.1469C47.5471 29.1678 47.4911 29.2005 47.443 29.243C47.3949 29.2855 47.3557 29.3371 47.3275 29.3948C47.2994 29.4526 47.2829 29.5152 47.279 29.5793C47.1333 31.9883 47.4511 33.7109 48.1045 34.8699C48.758 36.029 49.8137 36.5949 50.8893 36.5253C53.0406 36.3861 55.1364 34.0984 55.7949 30.8021C55.8076 30.7391 55.8077 30.6743 55.7952 30.6112C55.7827 30.5482 55.7579 30.4883 55.7223 30.4348C55.6866 30.3814 55.6407 30.3355 55.5873 30.2998C55.5338 30.2641 55.4739 30.2392 55.4108 30.2267C55.3479 30.2142 55.283 30.2142 55.22 30.2267C55.157 30.2392 55.0971 30.2639 55.0437 30.2996C54.9903 30.3353 54.9445 30.3811 54.9088 30.4345C54.8731 30.4878 54.8483 30.5477 54.8358 30.6107C54.2403 33.591 52.2776 35.4562 50.8261 35.5501C50.1003 35.597 49.4688 35.299 48.9562 34.3899C48.4437 33.4809 48.1164 31.9311 48.2551 29.6382C48.2629 29.5089 48.219 29.3818 48.133 29.2848C48.0471 29.1879 47.9262 29.129 47.7968 29.1211Z" fill="black"/>
<path d="M57.9862 30.5983C57.8588 30.5747 57.7272 30.6026 57.6204 30.6759C57.5136 30.7493 57.4403 30.862 57.4165 30.9893C57.0223 33.1153 57.151 34.5614 57.7275 35.5114C58.3041 36.4615 59.3622 36.7674 60.3694 36.593C61.3766 36.4186 62.4027 35.8436 63.289 35.0658C64.1753 34.2881 64.9213 33.3025 65.2952 32.24C65.3381 32.1177 65.3307 31.9835 65.2747 31.8667C65.2186 31.7499 65.1184 31.6601 64.9962 31.6171C64.8739 31.5742 64.7396 31.5816 64.6227 31.6376C64.5059 31.6937 64.4161 31.7938 64.3731 31.916C64.0736 32.7673 63.424 33.6467 62.644 34.3311C61.8641 35.0156 60.9531 35.4999 60.203 35.6298C59.4529 35.7597 58.9335 35.6146 58.5634 35.0047C58.1933 34.3949 58.0062 33.1722 58.3779 31.1677C58.4015 31.0402 58.3735 30.9087 58.3 30.8019C58.2265 30.6951 58.1136 30.6218 57.9862 30.5983Z" fill="black"/>
<path d="M56.7408 30.4236C56.6794 30.4047 56.6149 30.3981 56.551 30.4041C56.4871 30.4102 56.4249 30.4288 56.3682 30.4588C56.3114 30.4888 56.2612 30.5297 56.2202 30.5792C56.1793 30.6286 56.1486 30.6857 56.1297 30.747C55.0414 34.2864 55.4678 37.1589 57.3202 39.2218C57.4068 39.3183 57.5281 39.3765 57.6575 39.3835C57.7869 39.3906 57.9139 39.346 58.0104 39.2595C58.0582 39.2166 58.0971 39.1647 58.1249 39.1068C58.1526 39.0489 58.1687 38.986 58.1721 38.9219C58.1756 38.8578 58.1663 38.7936 58.1449 38.733C58.1236 38.6725 58.0905 38.6167 58.0475 38.569C56.4399 36.7787 56.0384 34.371 57.0643 31.0345C57.0832 30.9731 57.0898 30.9087 57.0838 30.8448C57.0777 30.7809 57.0592 30.7188 57.0291 30.662C56.9991 30.6053 56.9582 30.5551 56.9087 30.5141C56.8592 30.4732 56.8021 30.4425 56.7408 30.4236Z" fill="black"/>
<path fill-rule="evenodd" clip-rule="evenodd" d="M53.4769 32.5693C53.4251 32.7068 53.3568 32.8366 53.2759 32.9513C53.1949 33.066 53.103 33.1632 53.0052 33.2375C52.9074 33.3118 52.8058 33.3616 52.7061 33.3842C52.6064 33.4068 52.5106 33.4017 52.4242 33.3692C52.3377 33.3367 52.2623 33.2774 52.2023 33.1947C52.1422 33.112 52.0987 33.0075 52.0742 32.8872C52.0497 32.7669 52.0447 32.6332 52.0594 32.4936C52.0742 32.3541 52.1085 32.2115 52.1603 32.0739C52.2649 31.796 52.4345 31.5557 52.632 31.4056C52.8294 31.2556 53.0384 31.2082 53.213 31.2739C53.3876 31.3396 53.5135 31.513 53.563 31.7559C53.6125 31.9988 53.5815 32.2914 53.4769 32.5693Z" fill="black"/>
<path fill-rule="evenodd" clip-rule="evenodd" d="M60.4222 33.8655C60.3704 34.0031 60.3021 34.1329 60.2212 34.2476C60.1403 34.3622 60.0483 34.4595 59.9505 34.5338C59.8528 34.608 59.7511 34.6579 59.6514 34.6805C59.5517 34.7031 59.4559 34.698 59.3695 34.6655C59.283 34.6329 59.2076 34.5736 59.1476 34.4909C59.0875 34.4082 59.044 34.3037 59.0195 34.1835C58.995 34.0632 58.99 33.9295 59.0047 33.7899C59.0195 33.6503 59.0538 33.5077 59.1056 33.3701C59.2102 33.0923 59.3799 32.8519 59.5773 32.7019C59.7747 32.5519 59.9837 32.5045 60.1583 32.5702C60.3329 32.6359 60.4588 32.8093 60.5083 33.0522C60.5578 33.2951 60.5268 33.5877 60.4222 33.8655Z" fill="black"/>
<path d="M60.3035 37.3843C60.1838 37.3346 60.0493 37.3344 59.9295 37.3838C59.8097 37.4332 59.7144 37.5282 59.6646 37.6478C57.5843 42.6498 53.0759 46.3794 48.6187 47.1098C46.3901 47.475 44.1844 47.109 42.235 45.8051C40.2856 44.5012 38.5769 42.2406 37.4243 38.743C37.4043 38.682 37.3724 38.6255 37.3305 38.5768C37.2886 38.5282 37.2375 38.4882 37.1801 38.4593C37.1227 38.4304 37.0603 38.413 36.9962 38.4083C36.9321 38.4035 36.8677 38.4114 36.8067 38.4316C36.6836 38.4721 36.5816 38.5598 36.5232 38.6755C36.4647 38.7912 36.4547 38.9253 36.4952 39.0484C37.6986 42.7004 39.5265 45.17 41.691 46.6178C43.8556 48.0657 46.3411 48.4733 48.7769 48.0741C53.6485 47.2758 58.3625 43.3251 60.5676 38.023C60.6173 37.9033 60.6174 37.7688 60.5678 37.649C60.5183 37.5292 60.4232 37.434 60.3035 37.3843Z" fill="black"/>
<path d="M48.9924 40.0215C48.8764 39.9636 48.7422 39.9541 48.6192 39.9951C48.4962 40.0361 48.3946 40.1243 48.3366 40.2402C48.3079 40.2977 48.2909 40.3602 48.2864 40.4242C48.2819 40.4883 48.29 40.5526 48.3104 40.6134C48.3308 40.6743 48.3629 40.7306 48.4051 40.7791C48.4472 40.8275 48.4985 40.8672 48.5559 40.8958C48.5559 40.8958 50.0642 41.6533 52.0429 41.6911C52.1725 41.6935 52.2978 41.6445 52.3912 41.5547C52.4846 41.4649 52.5385 41.3417 52.5411 41.2122C52.5423 41.148 52.5309 41.0842 52.5074 41.0244C52.484 40.9647 52.449 40.9101 52.4045 40.8639C52.3599 40.8176 52.3067 40.7806 52.2479 40.7549C52.189 40.7292 52.1257 40.7154 52.0615 40.7142C50.3215 40.681 48.9924 40.0215 48.9924 40.0215Z" fill="black"/>
<path fill-rule="evenodd" clip-rule="evenodd" d="M22.3099 68.3984C20.5905 70.6409 17.7408 77.157 16.7887 79.7469C15.8364 82.337 16.08 82.7796 16.8994 82.9787C18.5794 83.3873 27.3067 86.432 28.7459 86.8526C30.1851 87.2731 30.1443 87.728 29.1001 88.2913C25.992 89.9685 23.8463 93.1392 22.3269 95.1719C19.3859 99.1064 21.1159 100.879 19.9915 100.836C18.8668 100.792 12.1302 99.9335 8.87662 99.236C0.230075 97.3823 -0.411046 91.0945 0.148498 85.7364C0.760841 79.872 7.35637 68.0002 11.493 61.4282C19.494 48.7175 27.8414 46.157 30.8045 45.4058C33.86 44.6314 34.9098 45.0936 35.1501 46.5404C36.5005 54.6732 41.2118 52.7382 42.4571 51.9359C43.9355 50.9837 44.1536 49.8169 46.1317 49.8468C58.7309 50.0375 60.8548 64.9052 61.4358 68.0871C62.0172 71.2692 61.4914 71.7118 60.5307 71.7947C59.0879 71.9196 45.4532 71.9676 41.7336 72.0109C38.0143 72.0542 38.0143 72.4865 37.7548 73.9565C37.2843 76.6212 37.5059 88.9844 37.5059 88.9844C36.62 89.2612 34.7654 88.2927 32.1915 86.8816C29.6172 85.4705 24.0815 83.838 20.76 83.0078C17.4385 82.1778 17.4938 81.5967 18.1305 78.8851C18.7671 76.1735 22.3099 68.3984 22.3099 68.3984ZM40.3315 56.1725C39.4759 56.1725 38.7814 56.9101 38.7814 57.8188C38.7814 58.7275 39.4759 59.465 40.3315 59.465C41.1869 59.465 41.8814 58.7275 41.8814 57.8188C41.8814 56.9101 41.1869 56.1725 40.3315 56.1725ZM40.3315 65.4453C39.7061 65.4453 39.1982 65.9845 39.1982 66.6489C39.1982 67.3132 39.7061 67.8525 40.3315 67.8525C40.957 67.8525 41.4646 67.3132 41.4646 66.6489C41.4646 65.9845 40.957 65.4453 40.3315 65.4453Z" fill="black"/>
<path d="M26.6752 87.9119C26.5577 87.8573 26.4232 87.8517 26.3015 87.8962C26.1797 87.9407 26.0806 88.0317 26.026 88.1492C25.9714 88.2667 25.9657 88.4011 26.0102 88.5229C26.0547 88.6446 26.1457 88.7436 26.2633 88.7983C26.2633 88.7983 28.4325 89.8058 30.9141 91.1507C33.3957 92.4956 36.206 94.2166 37.3594 95.4606C37.4476 95.5556 37.5698 95.6118 37.6994 95.6167C37.8289 95.6216 37.9551 95.5748 38.0502 95.4868C38.1452 95.3987 38.2014 95.2764 38.2063 95.1469C38.2112 95.0175 38.1644 94.8913 38.0763 94.7963C36.7055 93.3178 33.8917 91.6528 31.38 90.2916C28.8684 88.9304 26.6752 87.9119 26.6752 87.9119Z" fill="black"/>
<path d="M35.4019 95.0907C35.3411 95.1116 35.2851 95.1443 35.237 95.1869C35.1888 95.2295 35.1496 95.2811 35.1215 95.3389C35.0648 95.4554 35.0568 95.5895 35.099 95.7119C35.1413 95.8344 35.2304 95.935 35.3468 95.9918C35.3468 95.9918 37.0185 96.8388 37.7349 97.567C37.7799 97.6128 37.8335 97.6493 37.8927 97.6745C37.9518 97.6996 38.0154 97.7128 38.0796 97.7133C38.1439 97.7139 38.2076 97.7018 38.2672 97.6777C38.3267 97.6536 38.381 97.618 38.4268 97.573C38.5192 97.482 38.5716 97.3582 38.5727 97.2286C38.5737 97.099 38.5232 96.9743 38.4322 96.8819C37.4759 95.91 35.7751 95.1136 35.7751 95.1136C35.6586 95.0569 35.5244 95.0486 35.4019 95.0907Z" fill="black"/>
<path d="M34.1128 96.7429C33.9851 96.7209 33.8538 96.7506 33.7479 96.8254C33.642 96.9001 33.5701 97.0139 33.5481 97.1416C33.5261 97.2693 33.5557 97.4004 33.6304 97.5063C33.7051 97.6121 33.8187 97.684 33.9464 97.7061C33.9464 97.7061 35.779 98.0271 37.4918 98.9186C37.5488 98.9483 37.611 98.9665 37.675 98.9721C37.739 98.9777 37.8034 98.9707 37.8647 98.9514C37.926 98.9321 37.9828 98.9009 38.032 98.8596C38.0812 98.8183 38.1218 98.7678 38.1514 98.7108C38.2112 98.5959 38.2229 98.4619 38.1839 98.3384C38.145 98.2148 38.0585 98.1118 37.9436 98.0519C36.0639 97.0736 34.1128 96.7429 34.1128 96.7429Z" fill="black"/>
<path d="M20.2899 94.4019C20.2387 94.4406 20.1956 94.489 20.1631 94.5443C20.1305 94.5996 20.1093 94.6608 20.1004 94.7244C20.0915 94.7879 20.0953 94.8526 20.1114 94.9148C20.1275 94.9769 20.1558 95.0352 20.1945 95.0864C20.1945 95.0864 20.8262 95.9221 21.5879 96.8601C22.3497 97.7981 23.2002 98.8152 23.8173 99.2987C24.3295 99.7001 24.7419 100.016 25.4034 100.183C26.0649 100.351 26.922 100.385 28.4687 100.372C31.5434 100.344 35.1271 100.292 38.0185 100.672C38.0822 100.68 38.147 100.676 38.209 100.659C38.2711 100.643 38.3293 100.614 38.3803 100.575C38.4313 100.536 38.474 100.487 38.5061 100.431C38.5382 100.376 38.5591 100.314 38.5674 100.25C38.5757 100.187 38.5715 100.122 38.5548 100.06C38.5382 99.9982 38.5095 99.9401 38.4704 99.8892C38.4313 99.8383 38.3825 99.7956 38.3269 99.7635C38.2712 99.7315 38.2098 99.7107 38.1462 99.7023C35.141 99.3075 31.5298 99.3665 28.4599 99.3942C26.934 99.4079 26.1306 99.3592 25.6435 99.236C25.1563 99.1128 24.9322 98.9309 24.4202 98.5297C24.0133 98.2108 23.0968 97.1665 22.3474 96.2438C21.5981 95.321 20.9747 94.4968 20.9747 94.4968C20.8965 94.3935 20.7804 94.3254 20.652 94.3076C20.5236 94.2898 20.3933 94.3237 20.2899 94.4019Z" fill="black"/>
<path d="M92.28 31.7136C92.1552 31.6791 92.0217 31.6956 91.909 31.7594C91.8531 31.791 91.804 31.8333 91.7644 31.884C91.7249 31.9346 91.6957 31.9925 91.6786 32.0544C91.6615 32.1163 91.6567 32.181 91.6646 32.2447C91.6725 32.3085 91.6929 32.37 91.7246 32.4259C93.1648 34.9632 93.1156 37.3717 91.5145 39.9151C91.4803 39.9695 91.4572 40.03 91.4464 40.0933C91.4356 40.1566 91.4374 40.2214 91.4517 40.284C91.466 40.3467 91.4925 40.4058 91.5297 40.4582C91.5668 40.5106 91.614 40.5551 91.6684 40.5892C91.7781 40.6582 91.9107 40.6808 92.037 40.652C92.1634 40.6233 92.2732 40.5456 92.3422 40.436C94.0945 37.6523 94.1587 34.7329 92.5752 31.9432C92.5112 31.8305 92.405 31.748 92.28 31.7136Z" fill="black"/>
<path d="M90.5321 33.8173C90.4074 33.8525 90.3017 33.9357 90.2384 34.0487C90.1751 34.1618 90.1592 34.2953 90.1943 34.42C90.359 35.003 90.3568 35.4579 90.2773 35.7519C90.1977 36.0459 90.069 36.1708 89.921 36.2291C89.773 36.2874 89.5506 36.2883 89.2373 36.1228C88.9241 35.9573 88.542 35.622 88.1679 35.0745C88.0949 34.9675 87.9822 34.8938 87.8548 34.8698C87.7275 34.8457 87.5957 34.8733 87.4886 34.9463C87.3816 35.0194 87.3079 35.132 87.2839 35.2593C87.2598 35.3866 87.2874 35.5183 87.3604 35.6254C87.8025 36.2723 88.2824 36.7243 88.7801 36.9873C89.2778 37.2503 89.8151 37.3213 90.2795 37.1384C90.7439 36.9555 91.0803 36.528 91.2212 36.0072C91.3621 35.4864 91.3358 34.8634 91.1355 34.1544C91.1002 34.0297 91.0168 33.9241 90.9036 33.8609C90.7905 33.7977 90.6568 33.782 90.5321 33.8173Z" fill="black"/>
<path d="M98.3749 30.4073C98.313 30.4244 98.255 30.4535 98.2043 30.4929C98.1537 30.5323 98.1113 30.5813 98.0796 30.6371C98.0478 30.693 98.0274 30.7545 98.0195 30.8182C98.0116 30.8819 98.0163 30.9465 98.0333 31.0084C98.3688 32.2267 98.0305 33.0952 97.6514 33.357C97.4618 33.4879 97.2661 33.525 96.9677 33.4121C96.6694 33.2992 96.2763 32.9994 95.8738 32.4161C95.8002 32.3095 95.6872 32.2364 95.5597 32.213C95.4323 32.1896 95.3007 32.2177 95.194 32.2912C95.1411 32.3277 95.0959 32.3742 95.0609 32.4281C95.026 32.482 95.0021 32.5423 94.9905 32.6054C94.9789 32.6686 94.9798 32.7334 94.9933 32.7962C95.0068 32.859 95.0325 32.9185 95.069 32.9714C95.549 33.667 96.0696 34.1173 96.6218 34.3262C97.174 34.5352 97.7656 34.4656 98.2068 34.161C99.0893 33.5516 99.3851 32.234 98.9761 30.7488C98.9591 30.6869 98.93 30.629 98.8906 30.5783C98.8511 30.5276 98.8021 30.4852 98.7463 30.4535C98.6904 30.4218 98.6289 30.4014 98.5652 30.3935C98.5015 30.3856 98.4368 30.3903 98.3749 30.4073Z" fill="black"/>
<path d="M100.509 40.49C100.399 40.4222 100.266 40.4009 100.14 40.4309C100.014 40.4608 99.9052 40.5396 99.8373 40.6498C99.0734 41.889 98.2647 42.8734 97.4278 43.3911C96.591 43.9089 95.7589 44.022 94.6556 43.5166C94.5972 43.4898 94.5342 43.4748 94.47 43.4724C94.4058 43.47 94.3418 43.4803 94.2816 43.5026C94.2215 43.525 94.1662 43.5589 94.1192 43.6026C94.0721 43.6463 94.0341 43.6988 94.0074 43.7571C93.9806 43.8154 93.9656 43.8785 93.9632 43.9426C93.9608 44.0067 93.9711 44.0707 93.9934 44.1309C94.0158 44.1911 94.0498 44.2462 94.0934 44.2933C94.1371 44.3403 94.1896 44.3783 94.248 44.4051C95.5966 45.0228 96.8829 44.8778 97.9423 44.2223C99.0018 43.5669 99.8677 42.4629 100.669 41.1625C100.703 41.1079 100.726 41.0471 100.736 40.9838C100.746 40.9204 100.744 40.8556 100.729 40.7932C100.714 40.7307 100.687 40.6718 100.649 40.6198C100.612 40.5678 100.564 40.5237 100.509 40.49Z" fill="black"/>
<path d="M106.429 42.393C106.307 42.3485 106.173 42.3542 106.055 42.4088C105.938 42.4634 105.846 42.5625 105.802 42.6842C105.317 44.0099 104.219 45.4478 102.876 46.4313C101.532 47.4147 99.9746 47.9365 98.5377 47.605C96.7182 47.1853 94.9581 47.9855 93.3609 49.2648C91.7638 50.544 90.2755 52.3278 88.9087 54.071C83.621 60.8151 80.3121 70.4288 80.3121 70.4288C80.291 70.4895 80.2822 70.5537 80.286 70.6178C80.2898 70.6819 80.3063 70.7446 80.3343 70.8023C80.3624 70.8601 80.4016 70.9117 80.4496 70.9543C80.4977 70.9969 80.5536 71.0297 80.6143 71.0506C80.675 71.0716 80.7392 71.0805 80.8033 71.0767C80.8675 71.0728 80.9302 71.0564 80.988 71.0284C81.0457 71.0003 81.0974 70.9611 81.14 70.9131C81.1826 70.8651 81.2153 70.8091 81.2363 70.7485C81.2363 70.7485 84.5475 61.2178 89.678 54.6743C91.0313 52.9483 92.4914 51.2131 93.972 50.0273C95.4526 48.8414 96.899 48.23 98.3178 48.5573C100.119 48.9729 101.953 48.3186 103.454 47.22C104.954 46.1214 106.153 44.5714 106.72 43.0196C106.765 42.8979 106.759 42.7635 106.704 42.646C106.65 42.5285 106.551 42.4374 106.429 42.393Z" fill="black"/>
<path d="M98.0808 51.7175C98.0167 51.7223 97.9543 51.7396 97.8969 51.7686C97.8395 51.7975 97.7884 51.8374 97.7465 51.8861C97.7046 51.9348 97.6727 51.9913 97.6527 52.0523C97.6326 52.1133 97.6248 52.1776 97.6296 52.2417C98.5964 65.1238 98.1121 77.2238 92.8091 86.8259C92.778 86.8821 92.7583 86.9439 92.7511 87.0077C92.7439 87.0715 92.7494 87.1361 92.7672 87.1978C92.785 87.2595 92.8147 87.3171 92.8548 87.3672C92.8948 87.4174 92.9444 87.4592 93.0006 87.4903C93.0569 87.5213 93.1187 87.541 93.1825 87.5481C93.2464 87.5553 93.311 87.5498 93.3727 87.532C93.4344 87.5141 93.492 87.4843 93.5422 87.4442C93.5924 87.4041 93.6342 87.3545 93.6652 87.2983C99.1234 77.415 99.5766 65.12 98.6046 52.1686C98.595 52.0394 98.5344 51.9192 98.4362 51.8346C98.3379 51.75 98.2101 51.7079 98.0808 51.7175Z" fill="black"/>
<path d="M117.599 46.0146C116.874 46.0123 116.154 46.1345 115.411 46.3609C113.81 46.8485 112.426 48.239 111.011 49.6694C109.596 51.0999 108.157 52.5879 106.67 53.3587C104.307 54.5842 102.838 54.0871 101.838 53.3336C100.839 52.5801 100.382 51.5255 100.382 51.5255C100.357 51.4664 100.321 51.4128 100.275 51.3677C100.229 51.3226 100.175 51.287 100.116 51.2629C100.056 51.2388 99.9925 51.2266 99.9283 51.2272C99.864 51.2277 99.8005 51.2409 99.7414 51.2659C99.6823 51.291 99.6287 51.3274 99.5836 51.3732C99.5386 51.419 99.5031 51.4732 99.479 51.5327C99.4549 51.5922 99.4428 51.6559 99.4434 51.7201C99.4439 51.7842 99.4571 51.8477 99.4822 51.9068C99.4822 51.9068 100.014 53.183 101.249 54.1141C102.485 55.0452 104.497 55.5863 107.12 54.2259C108.827 53.341 110.299 51.7789 111.706 50.3572C113.113 48.9355 114.462 47.6716 115.696 47.2958C117.043 46.8854 118.141 46.8569 119.497 47.3367C120.853 47.8164 122.467 48.8402 124.672 50.5694C129.388 54.267 137.803 60.3908 142.312 76.1291C143.46 80.1372 143.102 84.578 142.023 88.3744C140.944 92.1708 139.118 95.3252 137.529 96.7014C137.529 96.7014 137.529 96.7014 137.529 96.7014C136.509 97.5853 134.565 99.4576 130.881 100.57C127.197 101.683 121.783 102.015 113.91 99.6167C113.885 99.6091 113.868 99.5907 113.862 99.5654C113.857 99.5404 113.864 99.5164 113.884 99.4989C113.885 99.4972 113.887 99.4956 113.889 99.4939C114.659 98.7813 115.775 97.5122 116.394 95.6934C117.013 93.8748 117.112 91.5075 115.888 88.7131C115.88 88.6957 115.88 88.6771 115.888 88.6591C115.894 88.6441 115.907 88.6351 115.921 88.6285C117.457 88.2356 122.14 87.3855 130.399 88.8184C130.463 88.8293 130.527 88.8277 130.59 88.8137C130.653 88.7996 130.712 88.7733 130.764 88.7363C130.817 88.6994 130.862 88.6524 130.896 88.5982C130.93 88.5439 130.954 88.4834 130.965 88.4202C130.976 88.3569 130.974 88.2922 130.96 88.2295C130.946 88.1669 130.919 88.1077 130.883 88.0552C130.846 88.0027 130.799 87.958 130.744 87.9237C130.69 87.8894 130.63 87.8661 130.566 87.8551C122.146 86.3943 117.299 87.2613 115.647 87.6871C115.635 87.6903 115.623 87.694 115.612 87.6981C115.335 87.7922 115.111 87.9984 114.993 88.2648C114.993 88.2651 114.992 88.2655 114.992 88.2659C114.875 88.5325 114.875 88.8374 114.992 89.1047C116.129 91.6991 116.016 93.7693 115.468 95.3787C114.92 96.9882 113.914 98.1381 113.225 98.7767L113.23 98.7718C112.95 99.0235 112.826 99.4089 112.907 99.7771C112.989 100.145 113.264 100.442 113.625 100.552C121.642 102.993 127.276 102.68 131.164 101.506C135.051 100.332 137.203 98.2774 138.169 97.4399C140.024 95.8334 141.846 92.575 142.964 88.6417C144.081 84.7083 144.468 80.1024 143.252 75.8602C138.673 59.8749 129.961 53.474 125.275 49.8004C123.036 48.0447 121.358 46.9584 119.823 46.4155C119.056 46.144 118.325 46.0169 117.599 46.0146Z" fill="black"/>
<path d="M101.41 88.9133C101.41 88.9133 96.2283 88.5747 93.1266 92.7019C92.4479 93.6047 91.8623 94.5889 91.5563 95.4655C91.4033 95.9039 91.3131 96.3163 91.3533 96.7184C91.3936 97.1204 91.6331 97.5436 92.037 97.7263C92.0372 97.7263 92.0374 97.7263 92.0375 97.7263C92.6004 97.9806 93.2413 97.833 93.8719 97.4776C94.5024 97.1222 95.1881 96.5445 95.9916 95.7519C99.3206 92.4678 102.098 91.51 104.362 91.6421C104.427 91.6459 104.491 91.6369 104.551 91.6159C104.612 91.5948 104.668 91.562 104.716 91.5193C104.764 91.4766 104.803 91.4248 104.831 91.367C104.859 91.3092 104.875 91.2464 104.879 91.1823C104.887 91.0529 104.842 90.9259 104.756 90.8291C104.67 90.7323 104.549 90.6738 104.419 90.6663C101.83 90.5153 98.7617 91.6462 95.3052 95.0559C94.5328 95.8179 93.8861 96.3476 93.3918 96.6262C92.8974 96.9048 92.6215 96.9175 92.4402 96.8356C92.3538 96.7965 92.3432 96.7912 92.3262 96.6213C92.3091 96.451 92.3541 96.1472 92.4795 95.7879C92.7303 95.0693 93.2747 94.1324 93.9084 93.2893C96.6798 89.6017 101.348 89.8886 101.348 89.8886C101.413 89.8926 101.477 89.884 101.538 89.8633C101.598 89.8425 101.654 89.81 101.703 89.7675C101.751 89.7251 101.79 89.6735 101.818 89.6159C101.847 89.5582 101.863 89.4956 101.867 89.4315C101.875 89.3022 101.832 89.175 101.746 89.0778C101.66 88.9806 101.539 88.9215 101.41 88.9133Z" fill="black"/>
<path d="M104.549 93.4316C103.468 93.4658 102.168 93.7877 100.96 94.2585C99.7528 94.7292 98.6495 95.3322 97.9731 96.0496C97.4366 96.6186 96.9808 96.8691 96.6549 96.9425C96.329 97.0159 96.1258 96.9463 95.9445 96.799C95.9692 96.8191 95.9345 96.7926 95.9172 96.6823C95.9 96.572 95.9012 96.4058 95.9184 96.2427C95.9527 95.9165 96.0384 95.6171 96.0384 95.6171C96.0745 95.4926 96.0596 95.3589 95.9971 95.2454C95.9346 95.1319 95.8295 95.0478 95.705 95.0117C95.5805 94.9756 95.4467 94.9904 95.3332 95.0529C95.2196 95.1154 95.1355 95.2205 95.0994 95.3449C95.0994 95.3449 94.9914 95.7098 94.9461 96.1402C94.9234 96.3554 94.9131 96.5909 94.951 96.8334C94.9889 97.0759 95.0761 97.3535 95.3275 97.5577C95.7217 97.878 96.2839 98.0279 96.8699 97.8959C97.456 97.7639 98.059 97.3834 98.6846 96.72C99.1704 96.2047 100.192 95.6072 101.316 95.1693C102.439 94.7314 103.675 94.4371 104.579 94.4085C104.58 94.4085 104.58 94.4085 104.58 94.4085C105.413 94.382 105.859 94.4997 106.347 94.7973C106.835 95.095 107.372 95.6184 108.199 96.3883C109.148 97.2716 110.519 97.6208 111.95 97.537C113.381 97.4532 114.894 96.9362 116.189 96.0071C116.294 95.9316 116.365 95.8173 116.386 95.6895C116.407 95.5616 116.377 95.4306 116.301 95.3253C116.264 95.2731 116.217 95.2288 116.162 95.1949C116.107 95.161 116.047 95.1382 115.983 95.1277C115.92 95.1173 115.855 95.1194 115.793 95.1341C115.73 95.1487 115.671 95.1755 115.619 95.213C114.479 96.0309 113.128 96.4889 111.893 96.5612C110.658 96.6336 109.56 96.3201 108.865 95.6733C108.049 94.9132 107.494 94.3529 106.856 93.9634C106.217 93.5739 105.501 93.4014 104.549 93.4316Z" fill="black"/>
<path d="M103.118 85.3926C100.584 85.4206 97.9823 85.9078 95.8668 86.9247C94.0669 87.7899 92.3282 89.1071 90.9732 90.4683C89.6181 91.8296 88.6313 93.1923 88.4022 94.3779C88.1919 95.466 88.4279 96.446 89.1279 97.0014C89.8279 97.5569 90.8638 97.6032 92.0158 97.1743C92.1373 97.1291 92.2358 97.0375 92.2897 96.9197C92.3436 96.8018 92.3485 96.6674 92.3034 96.546C92.281 96.4858 92.2469 96.4306 92.2032 96.3836C92.1594 96.3366 92.1068 96.2987 92.0484 96.272C91.99 96.2453 91.9269 96.2303 91.8627 96.228C91.7985 96.2257 91.7345 96.2361 91.6743 96.2586C90.7183 96.6144 90.0844 96.5123 89.7357 96.2357C89.3871 95.959 89.1957 95.4234 89.362 94.5634C89.5092 93.8012 90.3851 92.4452 91.6666 91.1578C92.9481 89.8704 94.6195 88.6087 96.2901 87.8056C100.164 85.9437 106.253 86.036 109.564 87.5089C113.104 89.0833 115.405 89.5198 115.405 89.5198C115.468 89.5318 115.533 89.5312 115.595 89.518C115.658 89.5049 115.718 89.4795 115.771 89.4432C115.824 89.407 115.87 89.3607 115.905 89.3069C115.94 89.2532 115.964 89.193 115.976 89.1299C116 89.0025 115.972 88.8708 115.899 88.7639C115.826 88.6569 115.713 88.5833 115.586 88.5594C115.586 88.5594 113.42 88.1542 109.962 86.616C108.119 85.7961 105.653 85.3646 103.118 85.3926Z" fill="black"/>
<path d="M122.492 61.0956C122.43 61.1108 122.371 61.1382 122.319 61.1761C122.267 61.214 122.224 61.2618 122.19 61.3166C122.157 61.3715 122.135 61.4323 122.125 61.4958C122.115 61.5592 122.118 61.624 122.133 61.6863C123.096 65.6329 123.33 71.1815 123.883 76.2731C124.436 81.3648 125.248 86.0341 127.743 88.3275C127.839 88.4153 127.965 88.4615 128.094 88.4561C128.224 88.4507 128.346 88.394 128.434 88.2986C128.477 88.2514 128.511 88.196 128.533 88.1357C128.555 88.0754 128.565 88.0114 128.562 87.9473C128.559 87.8832 128.544 87.8202 128.517 87.762C128.49 87.7038 128.452 87.6515 128.404 87.6081C126.34 85.7111 125.403 81.2114 124.855 76.1673C124.307 71.1232 124.087 65.5684 123.083 61.4545C123.068 61.3921 123.04 61.3334 123.002 61.2816C122.965 61.2298 122.917 61.186 122.862 61.1527C122.807 61.1194 122.746 61.0972 122.683 61.0874C122.619 61.0776 122.554 61.0804 122.492 61.0956Z" fill="black"/>
<path d="M94.952 23.914C94.8495 23.9256 94.7533 23.9693 94.6772 24.0389C94.601 24.1084 94.5489 24.2003 94.5281 24.3013C94.5281 24.3013 94.1109 26.3278 92.7368 28.4198C91.3628 30.5117 89.0907 32.6244 85.2745 32.8628C85.2051 32.8672 85.1374 32.8863 85.076 32.9189C85.0146 32.9515 84.9608 32.9968 84.9183 33.0519C84.8758 33.1069 84.8456 33.1704 84.8295 33.238C84.8135 33.3057 84.8121 33.376 84.8255 33.4442C84.8255 33.4442 87.2386 45.9176 98.1679 48.5257C98.2303 48.5407 98.2951 48.5431 98.3586 48.533C98.422 48.5229 98.4829 48.5004 98.5376 48.4667C98.5923 48.4331 98.6399 48.389 98.6775 48.337C98.7152 48.285 98.7422 48.226 98.7571 48.1636C98.7871 48.0375 98.7658 47.9047 98.6979 47.7943C98.6299 47.6839 98.5209 47.6051 98.3948 47.5751C88.8078 45.2872 86.2398 35.1518 85.9254 33.7622C89.727 33.3222 92.144 31.1034 93.5542 28.9564C94.4231 27.6335 94.8697 26.4955 95.1463 25.643C96.8322 28.7427 98.9854 30.5277 100.816 31.4469C102.856 32.4711 104.505 32.5317 104.505 32.5317C104.588 32.5345 104.67 32.5162 104.744 32.4784C104.818 32.4406 104.881 32.3846 104.927 32.3157C104.974 32.2468 105.002 32.1672 105.009 32.0844C105.016 32.0017 105.001 31.9186 104.967 31.8428C104.796 31.4627 104.729 30.7649 104.822 30.0369C104.914 29.3089 105.156 28.5463 105.484 27.9992C105.812 27.4522 106.186 27.1655 106.548 27.1478C106.91 27.1301 107.45 27.3671 108.142 28.2992C109.396 29.988 108.984 31.4965 108.25 32.7291C107.516 33.9618 106.447 34.7859 106.447 34.7859C106.38 34.8375 106.327 34.9057 106.294 34.9839C106.125 35.3824 106.116 35.8481 106.135 36.4882C106.155 37.1283 106.238 37.9041 106.394 38.7321C106.705 40.388 107.297 42.2498 108.328 43.5989C109.708 45.4055 111.939 46.2282 113.798 46.6287C115.657 47.0293 117.194 47.0007 117.194 47.0007C117.258 46.9996 117.321 46.9858 117.38 46.9602C117.439 46.9346 117.492 46.8976 117.537 46.8514C117.582 46.8052 117.617 46.7507 117.64 46.691C117.664 46.6313 117.675 46.5675 117.674 46.5033C117.673 46.4391 117.659 46.3758 117.634 46.3169C117.608 46.2581 117.571 46.2048 117.525 46.1603C117.478 46.1157 117.424 46.0806 117.364 46.0572C117.304 46.0337 117.241 46.0222 117.176 46.0233C117.176 46.0233 115.746 46.0485 114.004 45.6732C112.262 45.2979 110.259 44.5156 109.105 43.0055C108.233 41.8645 107.648 40.1116 107.354 38.551C107.207 37.7707 107.13 37.0378 107.113 36.4588C107.096 35.9141 107.163 35.5227 107.189 35.4295C107.4 35.2625 108.331 34.5046 109.09 33.2293C109.939 31.8042 110.422 29.7295 108.927 27.7167C108.135 26.6495 107.315 26.1317 106.5 26.1715C105.685 26.2113 105.066 26.7947 104.645 27.4969C104.224 28.1991 103.96 29.0652 103.852 29.9131C103.783 30.4566 103.807 30.9717 103.886 31.4583C103.322 31.372 102.477 31.1866 101.255 30.5731C99.3854 29.6345 97.1017 27.8152 95.4518 24.1965C95.4089 24.1028 95.3375 24.0249 95.2478 23.9742C95.158 23.9235 95.0545 23.9024 94.952 23.914Z" fill="black"/>
<path d="M104.999 6.78008C104.088 6.74002 103.125 6.77204 102.105 6.87825C98.0926 7.29622 95.7767 9.35323 94.5236 11.2924C93.6212 12.6888 93.3271 13.7826 93.1874 14.4297C90.2398 12.7994 87.7212 12.3095 85.6356 12.7525C83.4101 13.2252 81.7183 14.7004 80.5008 16.6135C78.0658 20.4397 77.387 26.0481 77.6974 29.9279C78.2956 37.4008 76.3777 38.983 75.1544 41.3834C75.1542 41.3834 75.154 41.3834 75.1538 41.3834C74.5477 42.5729 73.8074 44.4607 73.7226 46.6882C73.6379 48.9157 74.2286 51.4867 76.251 53.9353C80.3635 58.9145 87.7105 57.1964 87.7105 57.1964C87.8369 57.1675 87.9467 57.0896 88.0156 56.9799C88.0846 56.8701 88.1071 56.7375 88.0782 56.6111C88.0494 56.4848 87.9715 56.375 87.8617 56.3061C87.7519 56.2372 87.6192 56.2146 87.4928 56.2435C87.4928 56.2435 80.6764 57.7587 77.0045 53.3129C75.1347 51.0491 74.6225 48.7562 74.6998 46.7253C74.7771 44.6944 75.4635 42.929 76.0251 41.8269C77.1372 39.6447 79.285 37.5088 78.6719 29.8499C78.377 26.164 79.0834 20.6617 81.3258 17.1382C82.4469 15.3765 83.9167 14.1168 85.8385 13.7086C87.7604 13.3004 90.1956 13.7373 93.2676 15.5663C93.3372 15.6078 93.4161 15.6312 93.4971 15.6346C93.5782 15.638 93.6587 15.6212 93.7316 15.5857C93.8045 15.5502 93.8675 15.4972 93.9147 15.4313C93.962 15.3655 93.9922 15.2889 94.0025 15.2085C94.0025 15.2085 94.2142 13.5728 95.3453 11.8225C96.4763 10.0722 98.4794 8.23845 102.206 7.8502C106.116 7.44292 109.001 8.15754 111.292 9.82736C113.583 11.4972 115.302 14.1647 116.731 17.7382C118.168 21.3302 119.02 24.5018 120.739 27.0175C122.457 29.5332 125.077 31.3174 129.792 32.0365C131.288 32.2645 134.074 33.1824 136.238 34.9256C138.402 36.6688 139.971 39.1556 139.311 42.7639C138.648 46.3928 136.461 48.4692 133.856 49.6057C131.252 50.7422 128.223 50.8821 126.087 50.5084C125.96 50.486 125.828 50.5153 125.722 50.5898C125.616 50.6642 125.544 50.7778 125.521 50.9054C125.499 51.0331 125.528 51.1644 125.603 51.2705C125.677 51.3765 125.791 51.4487 125.919 51.471C128.245 51.8782 131.419 51.7355 134.247 50.5013C137.076 49.267 139.552 46.8835 140.273 42.9395C140.998 38.9746 139.199 36.0559 136.851 34.1647C134.504 32.2737 131.634 31.3288 129.94 31.0705H129.94C125.404 30.3788 123.131 28.7856 121.546 26.4661C119.961 24.1464 119.099 21.0247 117.639 17.3749C116.172 13.7067 114.371 10.8615 111.869 9.03759C109.992 7.66962 107.732 6.90024 104.999 6.78008Z" fill="black"/>
<path fill-rule="evenodd" clip-rule="evenodd" d="M87.6011 56.7202C87.6011 56.7202 80.5195 58.3365 76.6272 53.6241C72.735 48.9116 74.4215 43.8967 75.5892 41.6051C76.7569 39.3138 78.7897 37.4548 78.1841 29.8889C77.5787 22.3232 80.955 7.66698 93.5172 15.1463C93.5172 15.1463 94.4159 8.17048 102.155 7.36426C110.145 6.53208 114.288 10.3149 117.185 17.5566C120.081 24.7983 120.614 30.1427 129.866 31.5535C133.055 32.0397 141.175 35.2788 139.792 42.852C138.408 50.4249 130.464 51.7703 126.002 50.9895C125.643 50.7072 125.299 50.4397 124.973 50.1847C121.412 47.3927 119.33 46.3662 117.185 46.5122C117.185 46.5122 111.25 46.6189 108.715 43.3022C106.812 40.812 106.363 36.0736 106.743 35.1744C106.743 35.1744 111.282 31.7096 108.534 28.0081C105.565 24.0094 103.587 29.9682 104.521 32.0433C104.521 32.0433 98.3967 31.8359 95.0062 24.3995C95.0062 24.3995 93.2761 32.8526 85.3045 33.3505C85.3045 33.3505 87.6798 45.5206 98.2808 48.0504C95.0933 47.4421 91.9718 50.956 89.2928 54.3728C88.704 55.124 88.1394 55.9123 87.6011 56.7202Z" fill="black"/>
<path d="M87.6021 8.61376C86.2757 8.51388 84.7824 8.89266 83.127 9.87042C83.0154 9.93632 82.9345 10.0438 82.9022 10.1693C82.8698 10.2949 82.8887 10.4281 82.9546 10.5397C83.0205 10.6513 83.1281 10.7321 83.2536 10.7644C83.3792 10.7967 83.5124 10.7779 83.6241 10.712C85.1539 9.80842 86.4404 9.5065 87.5285 9.58844C88.6165 9.67037 89.5303 10.1325 90.3291 10.8598C91.9266 12.3145 92.992 14.8575 93.5575 17.1191C93.573 17.1814 93.6007 17.24 93.639 17.2916C93.6772 17.3432 93.7252 17.3867 93.7803 17.4198C93.8354 17.4528 93.8964 17.4746 93.96 17.4841C94.0235 17.4935 94.0883 17.4903 94.1506 17.4747C94.2763 17.4433 94.3844 17.3632 94.4511 17.2522C94.5178 17.1411 94.5376 17.0081 94.5063 16.8824C93.9141 14.5137 92.8363 11.8204 90.9876 10.1371C90.0633 9.29548 88.9285 8.71365 87.6021 8.61376Z" fill="black"/>
</svg>
