<svg width="84" height="47" viewBox="0 0 84 47" fill="none" xmlns="http://www.w3.org/2000/svg">
<g clip-path="url(#clip0_124_6967)">
<path d="M36.9182 41.3224C35.9795 42.3934 35.1758 43.3014 33.9274 44.0398C29.7177 46.531 25.7519 44.2526 21.3545 44.0863C19.4374 47.6053 14.826 47.3292 11.4662 46.378C8.10638 45.4267 0.764253 41.3424 0.507328 37.6305C0.40851 36.207 1.33081 36.0972 1.96653 35.3555C6.05428 30.5993 3.99887 23.761 4.52261 17.9072C5.54701 6.46904 11.7363 -1.15087 23.9369 0.472226C26.3415 0.791524 28.1235 2.06206 29.9121 2.44123C31.984 2.88026 33.1862 2.39799 35.5447 3.42573C41.0686 5.83377 43.0021 11.7441 43.2327 17.4183C43.3117 19.374 42.9395 21.3696 43.035 23.2422C43.2524 27.4562 47.0174 34.4608 44.7808 38.0596C43.8453 39.5663 40.1594 40.2315 38.9275 38.778C38.3214 39.696 37.6297 40.5109 36.9215 41.3224H36.9182ZM38.2654 21.476C37.8274 17.2487 35.9465 12.0933 32.063 9.97134C30.5676 16.2542 26.5226 21.5459 21.9408 25.8864C23.2123 26.2023 23.1629 25.1081 23.8579 24.4163C25.8803 22.4073 28.7922 23.2721 30.1229 25.577L32.1421 25.2577C32.3726 21.975 35.1889 19.8596 38.2654 21.476ZM34.0361 22.6767C31.5887 25.2311 34.0361 30.3166 37.4683 28.6004C40.6074 27.0305 39.2536 20.8241 35.2943 21.8752C35.0275 21.945 34.2304 22.4739 34.0361 22.6801V22.6767ZM26.5029 24.1435C22.458 24.2067 22.537 31.3976 26.5819 31.3344C30.6367 31.2745 30.6367 24.077 26.5029 24.1435ZM39.6917 33.8721C39.9025 32.0295 39.5599 29.8476 39.7181 27.9684C39.1219 27.8687 38.967 28.5838 38.4763 28.9596C35.9169 30.9153 32.9128 29.2057 32.2903 26.2921L30.5972 26.4085C30.5445 28.4241 30.3337 30.4596 28.4496 31.6038C25.1392 33.616 22.0627 30.0971 22.5963 26.7212C20.9098 26.2722 19.388 27.7423 17.8893 27.5394C17.27 27.4562 16.4169 26.6879 15.6725 26.4484C13.4162 25.72 11.9438 26.5283 11.2158 28.7401C10.1354 32.0229 12.1513 34.3744 15.1257 35.3522C15.2377 38.7813 19.2365 40.3945 20.9461 43.022C24.5595 43.3147 28.8086 45.2039 32.3199 43.9034C35.8774 42.5863 39.2635 37.6139 39.6917 33.8721Z" fill="black"/>
<path d="M49.3289 37.4011C49.4113 36.1638 49.4179 34.8966 49.5134 33.6627C49.6089 32.4287 50.2512 28.8333 49.9087 27.9685C49.7604 27.596 49.161 27.004 48.9073 26.4885C46.0614 20.6679 50.439 13.7332 55.841 11.375C60.8214 9.1998 70.9205 9.15656 75.2883 12.6821C83.141 19.0149 76.3226 28.9164 68.875 31.5141C64.112 33.1738 59.1876 32.8678 54.4115 31.4642C53.9734 31.5906 51.3316 35.9643 50.5675 36.7492C50.192 37.135 49.9449 37.5275 49.3289 37.4078V37.4011ZM74.837 26.4751C78.2067 22.4108 79.6066 17.5481 75.1335 13.6567C71.1577 10.1976 62.1159 10.1078 57.3233 11.7143C51.0319 13.823 46.0581 21.6125 50.7289 27.6359C51.2559 28.6969 49.9844 34.9532 50.3237 35.4055C50.7486 35.5086 50.6103 35.2791 50.7486 35.0929C51.8686 33.5862 52.8501 31.9664 53.9174 30.4231C60.7456 32.7347 69.8961 32.4287 74.8337 26.4718L74.837 26.4751Z" fill="black"/>
<path d="M31.8992 27.7689C32.2319 27.7157 32.2846 27.7889 32.4394 28.0517C32.5481 28.2379 33.5297 30.9852 33.5692 31.2247C33.6417 31.6637 33.6614 31.9996 33.5132 32.4254C33.0685 33.7059 30.0842 34.2148 30.8748 33.0773C31.0493 32.8278 32.1166 32.748 32.4427 32.5052C33.3584 31.8234 31.8037 29.4453 31.6785 28.4741C31.639 28.1614 31.6027 27.9718 31.8992 27.7723V27.7689Z" fill="black"/>
<path d="M29.969 38.8745L29.9492 38.2326C31.0626 38.2326 32.2912 38.7148 33.2398 37.8268C33.3848 37.6904 34.1226 36.2536 34.3927 37.1882C34.8571 38.7947 31.0823 39.8058 29.969 38.8745Z" fill="black"/>
<path d="M14.3501 28.6802C13.9548 29.8776 13.5101 30.749 14.3369 31.9165C12.5779 33.1205 12.5681 27.9851 14.3501 28.6802Z" fill="black"/>
<path d="M27.18 26.4419C27.8355 27.2102 27.493 29.126 26.3599 28.8399C25.2268 28.5539 25.7867 25.9463 27.18 26.4419Z" fill="black"/>
<path d="M36.5601 26.422C36.4151 26.5051 35.7662 26.5051 35.6312 26.422C35.0053 25.7335 35.3973 23.9707 36.3624 23.9607C37.3275 23.9508 37.2057 26.0561 36.5601 26.422Z" fill="black"/>
<path d="M58.9336 22.8995L54.4357 23.9812C54.0335 24.1342 53.785 23.3111 54.2574 23.0707L58.6225 22L59 22.3715L58.9317 22.8959L58.9336 22.8995Z" fill="black"/>
<path d="M56.1008 25.9943L55.3113 21.4361C55.1845 21.0249 56.0219 20.8299 56.2313 21.3168L57.0185 25.7418L56.6235 26.0946L56.1046 25.9926L56.1008 25.9943Z" fill="black"/>
<path d="M58.0023 25.3661L54.292 22.603C53.9171 22.392 54.3903 21.6741 54.8774 21.8832L58.4943 24.5512L58.4505 25.079L58.0039 25.3623L58.0023 25.3661Z" fill="black"/>
<path d="M62.1355 18.4394L64.5232 22.4016C64.7903 22.739 64.0805 23.2241 63.7089 22.8462L61.3716 19.0073L61.6119 18.5353L62.1326 18.4423L62.1355 18.4394Z" fill="black"/>
<path d="M65.939 20.2069L61.8311 22.3343C61.4773 22.5791 61.0389 21.8395 61.4399 21.493L65.4215 19.408L65.877 19.6783L65.9363 20.2038L65.939 20.2069Z" fill="black"/>
<path d="M64.7664 18.5834L63.2509 22.9543C63.1628 23.3754 62.3357 23.1407 62.3881 22.6133L63.8412 18.3602L64.3576 18.2427L64.7623 18.5831L64.7664 18.5834Z" fill="black"/>
<path d="M69.4562 21.0134L70.5784 17.4637C70.6399 17.123 71.3105 17.2935 71.28 17.7189L70.2055 21.1725L69.7926 21.2785L69.4595 21.0136L69.4562 21.0134Z" fill="black"/>
<path d="M68.5025 17.7754L71.9725 19.124C72.3086 19.2074 72.0952 19.8656 71.6727 19.8078L68.2955 18.5129L68.2163 18.0941L68.5021 17.7787L68.5025 17.7754Z" fill="black"/>
<path d="M68.1455 19.3471L71.5909 17.9369C71.8921 17.7661 72.1904 18.3903 71.8441 18.6393L68.5029 20.0246L68.1572 19.7753L68.1475 19.3498L68.1455 19.3471Z" fill="black"/>
</g>
<defs>
<clipPath id="clip0_124_6967">
<rect width="83" height="47" fill="white" transform="translate(0.5)"/>
</clipPath>
</defs>
</svg>
