<svg width="36" height="36" viewBox="0 0 36 36" fill="none" xmlns="http://www.w3.org/2000/svg">
<rect width="36" height="36" rx="5" fill="#34A853" fill-opacity="0.13"/>
<g clip-path="url(#clip0_276_8315)">
<path d="M18.002 10H17.998C13.587 10 10 13.588 10 18C10 19.75 10.564 21.372 11.523 22.689L10.526 25.661L13.601 24.678C14.866 25.516 16.375 26 18.002 26C22.413 26 26 22.411 26 18C26 13.589 22.413 10 18.002 10ZM22.657 21.297C22.464 21.842 21.698 22.294 21.087 22.426C20.669 22.515 20.123 22.586 18.285 21.824C15.934 20.85 14.42 18.461 14.302 18.306C14.189 18.151 13.352 17.041 13.352 15.893C13.352 14.745 13.935 14.186 14.17 13.946C14.363 13.749 14.682 13.659 14.988 13.659C15.087 13.659 15.176 13.664 15.256 13.668C15.491 13.678 15.609 13.692 15.764 14.063C15.957 14.528 16.427 15.676 16.483 15.794C16.54 15.912 16.597 16.072 16.517 16.227C16.442 16.387 16.376 16.458 16.258 16.594C16.14 16.73 16.028 16.834 15.91 16.98C15.802 17.107 15.68 17.243 15.816 17.478C15.952 17.708 16.422 18.475 17.114 19.091C18.007 19.886 18.731 20.14 18.99 20.248C19.183 20.328 19.413 20.309 19.554 20.159C19.733 19.966 19.954 19.646 20.179 19.331C20.339 19.105 20.541 19.077 20.753 19.157C20.969 19.232 22.112 19.797 22.347 19.914C22.582 20.032 22.737 20.088 22.794 20.187C22.85 20.286 22.85 20.751 22.657 21.297Z" fill="#34A853"/>
</g>
<defs>
<clipPath id="clip0_276_8315">
<rect width="16" height="16" fill="white" transform="translate(10 10)"/>
</clipPath>
</defs>
</svg>
