<svg width="106" height="98" viewBox="0 0 106 98" fill="none" xmlns="http://www.w3.org/2000/svg">
<g clip-path="url(#clip0_690_10437)">
<path d="M41.7871 72.6596C41.7239 72.5966 41.1153 71.462 41.0666 71.3165C39.684 66.9963 43.8562 64.4167 43.681 60.494C43.3596 53.3663 31.7874 53.9142 32.7416 61.6771C33.0873 64.4846 37.4202 72.4657 31.8799 72.9797C27.0991 73.4209 21.6416 72.6354 16.783 72.9651C16.0186 72.8196 15.7557 72.0826 15.6778 71.399C15.0352 65.8471 16.2182 59.0879 15.6924 53.4439C15.6097 52.5517 15.449 51.5965 14.524 51.2183C11.8464 50.1128 9.3489 53.1045 6.55442 53.1093C-2.60793 53.1287 -2.03833 39.5473 7.50863 40.7449C9.81626 41.0358 13.268 44.3864 14.9184 42.0201C16.4568 39.8091 15.4003 30.0776 15.6778 26.7756C15.8142 25.1124 16.0868 24.8506 17.7469 24.7148C21.9094 24.3754 29.6891 24.3512 33.8322 24.7148C39.1485 25.1803 34.6549 30.6206 34.2508 33.3942C33.5595 38.1314 36.1057 41.3365 41.0666 40.4249C43.9877 39.8867 45.3898 36.124 44.7812 33.4475C44.3966 31.7698 38.7444 25.6312 43.5495 25.1949L76.7959 25.093C82.7354 22.6347 75.8612 12.8595 82.2096 10.8473C86.3331 9.54297 90.1305 11.3807 89.6826 16.1131C89.4246 18.8429 86.1141 24.9573 91.5034 25.4567C95.4858 25.8252 100.267 24.9864 104.176 25.4421C105.354 25.5779 106.021 26.281 106.006 27.498L105.943 71.5832C105.739 72.3154 105.159 72.8439 104.4 72.9554L89.2006 73.0863C87.7304 73.9591 90.1694 78.1679 90.3544 79.4576C91.1285 84.7622 88.4558 87.9818 82.9983 87.5115C79.1717 87.1818 76.8884 83.8846 77.3363 80.1801C77.5554 78.3715 80.0334 73.673 77.0978 73.0185L43.0578 72.9797C42.6635 72.9506 42.0793 72.9457 41.792 72.6645L41.7871 72.6596ZM104.531 26.9016H91.2648C91.1772 26.9016 89.8287 26.4507 89.6242 26.3537C87.0829 25.1949 86.8054 21.9365 87.263 19.5218C87.6671 17.4029 89.2883 15.7737 88.0273 13.3978C86.9174 11.3079 82.4628 11.3031 81.1531 13.0196C79.6342 15.0076 80.9243 17.8974 80.9292 20.0067C80.9292 22.5765 79.605 26.0676 76.6645 26.4264C72.2001 26.9647 66.4554 25.83 62.0446 26.4119C61.2462 26.5186 61.0563 26.698 60.9492 27.5029C60.6328 29.8933 61.1002 33.0887 61.2121 35.5034C61.3874 39.1691 60.4478 43.7754 65.9442 43.3875C68.505 43.2081 70.4426 42.345 73.1884 42.9705C78.9867 44.2942 79.2593 51.9456 73.6607 53.9821C69.3667 55.5434 67.4242 53.1675 63.9968 53.57C63.364 53.6427 62.1761 54.2633 62.1761 54.9082V71.5153H76.903C77.5651 71.5153 79.0451 72.4851 79.42 73.13C81.1726 76.112 77.3753 79.734 79.2399 83.7343C80.8951 87.2787 87.3263 87.2012 88.7576 83.5694C90.335 79.5692 87.0877 77.0623 87.4821 73.5712C87.6135 72.4269 88.7138 71.5153 89.7994 71.5153H104.405L104.77 71.1517V27.5077C104.77 27.4253 104.449 27.1392 104.526 26.9016H104.531Z" fill="black"/>
<path d="M53.6168 0.519395C54.941 2.94379 56.9711 7.70045 55.681 10.3576C55.3694 11.0025 54.5759 10.9346 54.425 10.2461C54.3519 9.91635 54.6733 8.35019 54.6392 7.61802C54.61 7.02647 54.4542 6.10035 54.3227 5.51365C54.1183 4.63117 52.1319 0.834566 52.7064 0.5L53.6217 0.519395H53.6168Z" fill="black"/>
<path d="M58.7655 87.6322C58.9505 86.9776 59.9436 86.8418 60.1676 87.6613C59.374 90.973 60.7372 93.9744 62.1782 96.8546C62.2074 97.4219 61.3944 97.6353 60.9952 97.4074C60.6934 97.2376 58.7655 92.4955 58.7655 91.9961C58.7655 91.0167 58.5659 88.3353 58.7655 87.6322Z" fill="black"/>
<path d="M59.8124 10.2458C60.0315 9.98393 60.6936 9.64452 61.0782 9.20812C62.3002 7.82622 63.8338 6.16309 64.6614 4.52904C64.973 3.9181 64.603 2.98713 65.8298 3.24896C67.1248 4.18963 63.9652 7.92804 63.269 8.72325C62.9185 9.12569 60.5378 11.5307 60.3042 11.5937C59.4035 11.8362 59.3207 10.8422 59.8124 10.2458Z" fill="black"/>
<path d="M54.7691 87.671C54.5646 88.0007 53.8003 88.408 53.5179 88.7232C52.3397 90.0421 51.1421 91.4191 50.1976 92.9271C49.7108 93.7078 49.3116 95.9624 48.3379 93.989C48.4547 92.6313 53.1576 86.6479 54.3017 86.3424C55.29 86.0758 55.1731 87.0261 54.7691 87.6759V87.671Z" fill="black"/>
<path d="M48.6848 5.09636C49.0743 4.97999 49.5368 5.06727 49.7364 5.46972C50.0236 7.23468 51.9321 9.11601 52.3313 10.6531C52.453 11.1331 52.5309 11.298 52.0684 11.6277C51.6594 11.7053 51.4793 11.5259 51.2115 11.2737C50.8075 10.8858 48.5047 6.42493 48.3976 5.81883C48.3392 5.48912 48.2905 5.21758 48.6848 5.09636Z" fill="black"/>
<path d="M66.0677 92.8447L64.9723 92.6023C64.5682 90.813 62.7912 88.8784 62.2849 87.2734C62.0902 86.6576 62.2508 86.2164 62.9908 86.3473C63.5653 86.4491 66.6811 92.2386 66.0677 92.8495V92.8447Z" fill="black"/>
</g>
<defs>
<clipPath id="clip0_690_10437">
<rect width="106" height="97" fill="white" transform="translate(0 0.5)"/>
</clipPath>
</defs>
</svg>
