<svg width="36" height="36" viewBox="0 0 36 36" fill="none" xmlns="http://www.w3.org/2000/svg">
<rect width="36" height="36" rx="5" fill="#4285F4" fill-opacity="0.23"/>
<g clip-path="url(#clip0_275_8990)">
<path d="M18 10.48C19.0153 10.48 20 10.6787 20.9267 11.0707C22.7073 11.824 24.176 13.2927 24.9287 15.0727C25.3213 16 25.52 16.9847 25.52 18C25.52 19.0153 25.3213 20 24.9293 20.9267C24.1853 22.686 22.696 24.1807 20.9273 24.9287C20 25.3213 19.0153 25.52 18 25.52C16.9847 25.52 16 25.3213 15.0733 24.9293C13.3147 24.1853 11.8193 22.6953 11.0713 20.9273C10.6787 20 10.48 19.0153 10.48 18C10.48 16.9847 10.6787 16 11.0707 15.0733C11.824 13.2927 13.2933 11.8233 15.0733 11.0707C16 10.6787 16.9847 10.48 18 10.48ZM18 10C13.582 10 10 13.582 10 18C10 22.418 13.582 26 18 26C22.418 26 26 22.418 26 18C26 13.582 22.418 10 18 10Z" fill="#4285F4"/>
<path d="M11.333 18.0002C11.333 20.6388 12.8663 22.9195 15.0903 24.0002L11.9103 15.2868C11.5403 16.1162 11.333 17.0335 11.333 18.0002ZM22.5003 17.6635C22.5003 16.8395 22.2043 16.2688 21.951 15.8248C21.613 15.2755 21.2963 14.8108 21.2963 14.2615C21.2963 13.6488 21.761 13.0782 22.4157 13.0782C22.445 13.0782 22.473 13.0815 22.5017 13.0835C21.3157 11.9968 19.735 11.3335 17.9997 11.3335C15.6703 11.3335 13.6217 12.5288 12.4297 14.3382C12.5863 14.3435 12.7337 14.3462 12.8583 14.3462C13.5557 14.3462 14.635 14.2615 14.635 14.2615C14.9943 14.2402 15.0363 14.7682 14.6777 14.8108C14.6777 14.8108 14.3163 14.8528 13.915 14.8742L16.3423 22.0955L17.8017 17.7202L16.763 14.8742C16.4043 14.8535 16.0637 14.8108 16.0637 14.8108C15.7043 14.7895 15.747 14.2408 16.1063 14.2615C16.1063 14.2615 17.207 14.3462 17.8623 14.3462C18.5597 14.3462 19.6397 14.2615 19.6397 14.2615C19.999 14.2402 20.041 14.7682 19.6823 14.8108C19.6823 14.8108 19.321 14.8528 18.9197 14.8742L21.329 22.0402L22.017 19.8608C22.321 18.9088 22.5003 18.2342 22.5003 17.6635ZM18.117 18.5828L16.1163 24.3948C16.7137 24.5708 17.345 24.6668 17.9997 24.6668C18.7757 24.6668 19.521 24.5328 20.2137 24.2888C20.1957 24.2602 20.1797 24.2302 20.1657 24.1968L18.117 18.5828ZM23.8497 14.8015C23.8783 15.0135 23.8943 15.2415 23.8943 15.4868C23.8943 16.1628 23.7677 16.9235 23.387 17.8748L21.351 23.7622C23.3337 22.6068 24.6663 20.4595 24.6663 18.0002C24.6663 16.8408 24.3703 15.7515 23.8497 14.8015Z" fill="#4285F4"/>
</g>
<defs>
<clipPath id="clip0_275_8990">
<rect width="16" height="16" fill="white" transform="translate(10 10)"/>
</clipPath>
</defs>
</svg>
