<svg width="14" height="15" viewBox="0 0 14 15" fill="none" xmlns="http://www.w3.org/2000/svg">
<path d="M0.333984 7.49992C0.333984 10.1386 1.86732 12.4193 4.09132 13.4999L0.911318 4.78659C0.541318 5.61592 0.333984 6.53325 0.333984 7.49992ZM11.5013 7.16325C11.5013 6.33925 11.2053 5.76859 10.952 5.32459C10.614 4.77525 10.2973 4.31059 10.2973 3.76125C10.2973 3.14859 10.762 2.57792 11.4167 2.57792C11.446 2.57792 11.474 2.58125 11.5027 2.58325C10.3167 1.49659 8.73598 0.833252 7.00065 0.833252C4.67132 0.833252 2.62265 2.02859 1.43065 3.83792C1.58732 3.84325 1.73465 3.84592 1.85932 3.84592C2.55665 3.84592 3.63598 3.76125 3.63598 3.76125C3.99532 3.73992 4.03732 4.26792 3.67865 4.31059C3.67865 4.31059 3.31732 4.35259 2.91598 4.37392L5.34332 11.5953L6.80265 7.21992L5.76398 4.37392C5.40532 4.35325 5.06465 4.31059 5.06465 4.31059C4.70532 4.28925 4.74798 3.74059 5.10732 3.76125C5.10732 3.76125 6.20798 3.84592 6.86332 3.84592C7.56065 3.84592 8.64065 3.76125 8.64065 3.76125C8.99998 3.73992 9.04198 4.26792 8.68332 4.31059C8.68332 4.31059 8.32198 4.35259 7.92065 4.37392L10.33 11.5399L11.018 9.36059C11.322 8.40859 11.5013 7.73392 11.5013 7.16325ZM7.11798 8.08259L5.11732 13.8946C5.71465 14.0706 6.34598 14.1666 7.00065 14.1666C7.77665 14.1666 8.52199 14.0326 9.21465 13.7886C9.19665 13.7599 9.18065 13.7299 9.16665 13.6966L7.11798 8.08259ZM12.8507 4.30125C12.8793 4.51325 12.8953 4.74125 12.8953 4.98659C12.8953 5.66259 12.7687 6.42325 12.388 7.37459L10.352 13.2619C12.3347 12.1066 13.6673 9.95925 13.6673 7.49992C13.6673 6.34059 13.3713 5.25125 12.8507 4.30125Z" fill="black"/>
</svg>
